<svg width="25" height="24" viewBox="0 0 25 24" fill="none" xmlns="http://www.w3.org/2000/svg">
<path d="M21.7428 12.4371C21.9016 12.3489 22 12.1816 22 12C22 11.8184 21.9016 11.6511 21.7428 11.5629L19.4605 10.295C14.964 7.79689 10.2239 5.76488 5.31421 4.2306L4.64914 4.02276C4.49732 3.97532 4.33198 4.00294 4.20383 4.09716C4.07568 4.19138 4 4.34094 4 4.5V10.25C4 10.5159 4.20816 10.7353 4.47372 10.7493L5.48336 10.8025C7.94497 10.932 10.3916 11.2659 12.7979 11.8006L13.0362 11.8536C13.0892 11.8654 13.1122 11.887 13.125 11.9042C13.1411 11.926 13.1536 11.9594 13.1536 12C13.1536 12.0406 13.1411 12.0741 13.125 12.0958C13.1122 12.113 13.0892 12.1347 13.0362 12.1464L12.7979 12.1994C10.3916 12.7341 7.94496 13.068 5.48334 13.1976L4.47372 13.2507C4.20816 13.2647 4 13.4841 4 13.75V19.5C4 19.6591 4.07568 19.8086 4.20383 19.9029C4.33198 19.9971 4.49732 20.0247 4.64914 19.9772L5.31422 19.7694C10.2239 18.2351 14.964 16.2031 19.4605 13.705L21.7428 12.4371Z" fill="white"/>
</svg>
