<svg width="24" height="24" viewBox="0 0 24 24" fill="none" xmlns="http://www.w3.org/2000/svg">
<path d="M12.9697 8.53033C12.6768 8.23744 12.6768 7.76256 12.9697 7.46967C13.2626 7.17678 13.7374 7.17678 14.0303 7.46967L18.0303 11.4697C18.1768 11.6161 18.25 11.8081 18.25 12C18.25 12.1017 18.2298 12.1987 18.1931 12.2871C18.1565 12.3755 18.1022 12.4584 18.0303 12.5303L14.0303 16.5303C13.7374 16.8232 13.2626 16.8232 12.9697 16.5303C12.6768 16.2374 12.6768 15.7626 12.9697 15.4697L15.6893 12.75H6C5.58579 12.75 5.25 12.4142 5.25 12C5.25 11.5858 5.58579 11.25 6 11.25H15.6893L12.9697 8.53033Z" fill="black"/>
</svg>
