<svg width="20" height="20" viewBox="0 0 20 20" fill="none" xmlns="http://www.w3.org/2000/svg">
<path fill-rule="evenodd" clip-rule="evenodd" d="M6.04207 4.55056V5.73439L4.63046 5.84833C3.63239 5.92889 2.81825 6.68037 2.65818 7.66881C2.62339 7.88363 2.59175 8.09882 2.56327 8.31433C2.54913 8.42127 2.60616 8.52479 2.70366 8.57095L2.76787 8.60135C7.2918 10.7434 12.709 10.7434 17.2329 8.60135L17.2971 8.57096C17.3946 8.52479 17.4517 8.42128 17.4375 8.31434C17.409 8.09883 17.3774 7.88363 17.3426 7.66881C17.1825 6.68037 16.3684 5.92889 15.3703 5.84833L13.9587 5.73439V4.55056C13.9587 3.82869 13.4306 3.21544 12.7167 3.10836L11.7001 2.95587C10.5733 2.78684 9.42752 2.78684 8.30067 2.95587L7.28407 3.10836C6.57019 3.21544 6.04207 3.82869 6.04207 4.55056ZM11.5147 4.19204C10.5108 4.04145 9.49002 4.04145 8.48609 4.19204L7.4695 4.34453C7.36751 4.35983 7.29207 4.44744 7.29207 4.55056V5.64641C9.09614 5.54306 10.9047 5.54306 12.7087 5.64641V4.55056C12.7087 4.44744 12.6333 4.35983 12.5313 4.34453L11.5147 4.19204Z" fill="black"/>
<path d="M17.599 10.0586C17.5928 9.94187 17.4705 9.86893 17.3636 9.91627C12.7212 11.9718 7.2796 11.9718 2.63717 9.91626C2.53025 9.86892 2.40802 9.94186 2.4018 10.0586C2.31699 11.6515 2.40245 13.2512 2.65818 14.8303C2.81825 15.8188 3.63239 16.5702 4.63046 16.6508L6.19039 16.7767C8.72627 16.9814 11.2745 16.9814 13.8104 16.7767L15.3703 16.6508C16.3684 16.5702 17.1825 15.8188 17.3426 14.8303C17.5983 13.2512 17.6838 11.6515 17.599 10.0586Z" fill="black"/>
</svg>
