<svg width="25" height="24" viewBox="0 0 25 24" fill="none" xmlns="http://www.w3.org/2000/svg">
<path d="M19.6477 5.25H5.83514L4.65497 3.1346C4.5225 2.89715 4.2719 2.75 4 2.75H2.5C2.08579 2.75 1.75 3.08579 1.75 3.5C1.75 3.91421 2.08579 4.25 2.5 4.25H3.5596L4.72429 6.33765L7.41037 12.2809L7.41312 12.2869L7.64971 12.8104L4.95287 15.687C4.75895 15.8939 4.69825 16.1924 4.79599 16.4585C4.89372 16.7247 5.13317 16.913 5.41486 16.9452L7.87299 17.2261C10.9477 17.5775 14.0524 17.5775 17.127 17.2261L19.5852 16.9452C19.9967 16.8981 20.2922 16.5264 20.2452 16.1148C20.1981 15.7033 19.8264 15.4078 19.4149 15.4549L16.9567 15.7358C13.9952 16.0742 11.0048 16.0742 8.04331 15.7358L7.06779 15.6243L9.04717 13.513C9.06632 13.4925 9.0841 13.4713 9.10052 13.4494L9.85334 13.5474C10.9083 13.6847 11.9746 13.7116 13.0351 13.6277C15.5086 13.4321 17.801 12.2551 19.4015 10.3591L19.9795 9.67425C19.999 9.65125 20.017 9.62711 20.0335 9.60194L21.1109 7.96009C21.8745 6.79633 21.0397 5.25 19.6477 5.25Z" fill="white"/>
<path d="M7 18.5C6.17157 18.5 5.5 19.1716 5.5 20C5.5 20.8284 6.17157 21.5 7 21.5C7.82843 21.5 8.5 20.8284 8.5 20C8.5 19.1716 7.82843 18.5 7 18.5Z" fill="white"/>
<path d="M16.5 20C16.5 19.1716 17.1716 18.5 18 18.5C18.8284 18.5 19.5 19.1716 19.5 20C19.5 20.8284 18.8284 21.5 18 21.5C17.1716 21.5 16.5 20.8284 16.5 20Z" fill="white"/>
</svg>
