<svg width="16" height="16" viewBox="0 0 16 16" fill="none" xmlns="http://www.w3.org/2000/svg">
<path d="M13.2239 11.271C13.5194 8.43131 13.5194 5.56865 13.2239 2.72899C13.1315 1.84078 12.1074 1.39086 11.3907 1.92361L8.65498 3.95721C7.7926 4.59826 6.74664 4.94443 5.6721 4.94443H3.1193C2.75111 4.94443 2.45264 5.2429 2.45264 5.61109V8.38887C2.45264 8.75706 2.75111 9.05554 3.1193 9.05554L5.6721 9.05554C6.74664 9.05554 7.7926 9.40171 8.65498 10.0428L11.3907 12.0764C12.1074 12.6091 13.1315 12.1592 13.2239 11.271Z" fill="black"/>
<path d="M6.06159 10.5346C6.09988 10.385 6.06687 10.2261 5.97215 10.1041C5.87744 9.98206 5.73166 9.91067 5.5772 9.91067L4.24387 9.91066C4.05448 9.91066 3.88135 10.0177 3.79665 10.1871L3.12998 11.5204C3.01613 11.7481 3.09154 12.025 3.30513 12.1635L4.72778 13.0862C4.86285 13.1738 5.03184 13.191 5.18179 13.1324C5.33175 13.0738 5.44432 12.9466 5.48423 12.7906L6.06159 10.5346Z" fill="black"/>
</svg>
