<svg width="16" height="16" viewBox="0 0 16 16" fill="none" xmlns="http://www.w3.org/2000/svg">
<path fill-rule="evenodd" clip-rule="evenodd" d="M7.99935 15.3337C12.0494 15.3337 15.3327 12.0504 15.3327 8.00033C15.3327 3.95024 12.0494 0.666992 7.99935 0.666992C3.94926 0.666992 0.666016 3.95024 0.666016 8.00033C0.666016 12.0504 3.94926 15.3337 7.99935 15.3337ZM12.5453 5.28698C12.3126 5.0543 11.9354 5.0543 11.7027 5.28698L7.08232 9.90733L4.75364 7.57865C4.52095 7.34596 4.14369 7.34596 3.91101 7.57865C3.67832 7.81134 3.67832 8.1886 3.91101 8.42128L6.66101 11.1713C6.89369 11.404 7.27095 11.404 7.50364 11.1713L12.5453 6.12962C12.778 5.89693 12.778 5.51967 12.5453 5.28698Z" fill="#FF6138"/>
</svg>
