<svg width="25" height="24" viewBox="0 0 25 24" fill="none" xmlns="http://www.w3.org/2000/svg">
<path fill-rule="evenodd" clip-rule="evenodd" d="M12.5 23C18.5751 23 23.5 18.0751 23.5 12C23.5 5.92487 18.5751 1 12.5 1C6.42487 1 1.5 5.92487 1.5 12C1.5 18.0751 6.42487 23 12.5 23ZM19.3189 7.92999C18.9699 7.58096 18.404 7.58096 18.055 7.92999L11.1245 14.8605L7.63144 11.3675C7.28241 11.0185 6.71652 11.0185 6.36749 11.3675C6.01846 11.7165 6.01846 12.2824 6.36749 12.6314L10.4925 16.7564C10.8415 17.1055 11.4074 17.1055 11.7564 16.7564L19.3189 9.19394C19.668 8.84491 19.668 8.27902 19.3189 7.92999Z" fill="white"/>
</svg>
