<svg width="24" height="24" viewBox="0 0 24 24" fill="none" xmlns="http://www.w3.org/2000/svg">
<path d="M9.06741 3.22806C7.70392 3.07567 6.29488 3.07567 4.93138 3.22806C4.0542 3.3261 3.3449 4.01685 3.24146 4.90129C3.07837 6.29571 3.07837 7.70438 3.24146 9.0988C3.3449 9.98323 4.0542 10.674 4.93139 10.772C6.29488 10.9244 7.70392 10.9244 9.06741 10.772C9.94459 10.674 10.6539 9.98323 10.7573 9.0988C10.9204 7.70438 10.9204 6.29571 10.7573 4.90129C10.6539 4.01685 9.94459 3.3261 9.06741 3.22806Z" fill="white"/>
<path d="M9.06741 13.2281C7.70392 13.0757 6.29488 13.0757 4.93138 13.2281C4.0542 13.3261 3.3449 14.0169 3.24146 14.9013C3.07837 16.2957 3.07837 17.7044 3.24146 19.0988C3.3449 19.9832 4.0542 20.674 4.93139 20.772C6.29488 20.9244 7.70392 20.9244 9.06741 20.772C9.94459 20.674 10.6539 19.9832 10.7573 19.0988C10.9204 17.7044 10.9204 16.2957 10.7573 14.9013C10.6539 14.0169 9.94459 13.3261 9.06741 13.2281Z" fill="white"/>
<path d="M19.0674 3.22806C17.7039 3.07567 16.2949 3.07567 14.9314 3.22806C14.0542 3.3261 13.3449 4.01685 13.2415 4.90129C13.0784 6.29571 13.0784 7.70438 13.2415 9.0988C13.3449 9.98323 14.0542 10.674 14.9314 10.772C16.2949 10.9244 17.7039 10.9244 19.0674 10.772C19.9446 10.674 20.6539 9.98323 20.7574 9.0988C20.9204 7.70438 20.9204 6.29571 20.7574 4.90129C20.6539 4.01685 19.9446 3.3261 19.0674 3.22806Z" fill="white"/>
<path d="M19.0674 13.2281C17.7039 13.0757 16.2949 13.0757 14.9314 13.2281C14.0542 13.3261 13.3449 14.0169 13.2415 14.9013C13.0784 16.2957 13.0784 17.7044 13.2415 19.0988C13.3449 19.9832 14.0542 20.674 14.9314 20.772C16.2949 20.9244 17.7039 20.9244 19.0674 20.772C19.9446 20.674 20.6539 19.9832 20.7574 19.0988C20.9204 17.7044 20.9204 16.2957 20.7574 14.9013C20.6539 14.0169 19.9446 13.3261 19.0674 13.2281Z" fill="white"/>
</svg>
