<svg width="16" height="16" viewBox="0 0 16 16" xmlns="http://www.w3.org/2000/svg">
<path fill="#fff" d="M0.256593 14.5044C-0.0855309 14.8465 -0.0855309 15.4012 0.256593 15.7433C0.598716 16.0855 1.15341 16.0855 1.49553 15.7433L8.00001 9.23885L14.5045 15.7433C14.8466 16.0855 15.4013 16.0855 15.7434 15.7433C16.0856 15.4012 16.0856 14.8465 15.7434 14.5044L9.23895 7.99991L15.7433 1.49553C16.0855 1.15341 16.0855 0.598716 15.7433 0.256593C15.4012 -0.085531 14.8465 -0.0855308 14.5044 0.256593L8.00001 6.76097L1.49564 0.256593C1.15351 -0.0855308 0.598821 -0.085531 0.256697 0.256593C-0.0854263 0.598716 -0.0854263 1.15341 0.256697 1.49553L6.76107 7.99991L0.256593 14.5044Z"/>
</svg>
