<svg width="24" height="24" viewBox="0 0 24 24" fill="none" xmlns="http://www.w3.org/2000/svg">
<path d="M9.06936 3.22757C7.70587 3.07518 6.29683 3.07518 4.93334 3.22757C4.05616 3.32561 3.34685 4.01637 3.24341 4.9008C3.08032 6.29522 3.08032 7.70389 3.24341 9.09831C3.34685 9.98275 4.05616 10.6735 4.93334 10.7715C6.29683 10.9239 7.70587 10.9239 9.06936 10.7715C9.94655 10.6735 10.6558 9.98275 10.7593 9.09831C10.9224 7.70389 10.9224 6.29522 10.7593 4.9008C10.6558 4.01637 9.94655 3.32561 9.06936 3.22757Z" fill="black"/>
<path d="M9.06936 13.2276C7.70587 13.0752 6.29683 13.0752 4.93334 13.2276C4.05616 13.3256 3.34685 14.0164 3.24341 14.9008C3.08032 16.2952 3.08032 17.7039 3.24341 19.0983C3.34685 19.9827 4.05616 20.6735 4.93334 20.7715C6.29683 20.9239 7.70587 20.9239 9.06936 20.7715C9.94655 20.6735 10.6558 19.9827 10.7593 19.0983C10.9224 17.7039 10.9224 16.2952 10.7593 14.9008C10.6558 14.0164 9.94655 13.3256 9.06936 13.2276Z" fill="black"/>
<path d="M19.0694 3.22757C17.7059 3.07518 16.2968 3.07518 14.9334 3.22757C14.0562 3.32561 13.3469 4.01637 13.2434 4.9008C13.0803 6.29522 13.0803 7.70389 13.2434 9.09831C13.3469 9.98275 14.0562 10.6735 14.9334 10.7715C16.2968 10.9239 17.7059 10.9239 19.0694 10.7715C19.9466 10.6735 20.6559 9.98275 20.7593 9.09831C20.9224 7.70389 20.9224 6.29522 20.7593 4.9008C20.6559 4.01637 19.9466 3.32561 19.0694 3.22757Z" fill="black"/>
<path d="M19.0694 13.2276C17.7059 13.0752 16.2968 13.0752 14.9334 13.2276C14.0562 13.3256 13.3469 14.0164 13.2434 14.9008C13.0803 16.2952 13.0803 17.7039 13.2434 19.0983C13.3469 19.9827 14.0562 20.6735 14.9334 20.7715C16.2968 20.9239 17.7059 20.9239 19.0694 20.7715C19.9466 20.6735 20.6559 19.9827 20.7593 19.0983C20.9224 17.7039 20.9224 16.2952 20.7593 14.9008C20.6559 14.0164 19.9466 13.3256 19.0694 13.2276Z" fill="black"/>
</svg>
