<svg width="20" height="20" viewBox="0 0 20 20" fill="none" xmlns="http://www.w3.org/2000/svg">
<path d="M2.70825 7.49967C2.70825 4.85331 4.85355 2.70801 7.49992 2.70801H13.344C13.6891 2.70801 13.969 2.98783 13.969 3.33301C13.969 3.67819 13.6891 3.95801 13.344 3.95801H7.49992C5.54391 3.95801 3.95825 5.54367 3.95825 7.49967V13.4221C3.95825 13.7672 3.67843 14.0471 3.33325 14.0471C2.98807 14.0471 2.70825 13.7672 2.70825 13.4221V7.49967Z" fill="black"/>
<path d="M15.3354 5.66072C12.6346 5.35887 9.86528 5.35887 7.16448 5.66072C6.39509 5.74672 5.77681 6.35221 5.68612 7.12757C5.3658 9.86631 5.3658 12.633 5.68612 15.3718C5.77681 16.1471 6.39509 16.7526 7.16448 16.8386C9.86528 17.1405 12.6346 17.1405 15.3354 16.8386C16.1048 16.7526 16.7231 16.1471 16.8137 15.3718C17.1341 12.633 17.1341 9.86631 16.8137 7.12757C16.7231 6.35221 16.1048 5.74672 15.3354 5.66072Z" fill="black"/>
</svg>
