<svg width="24" height="24" viewBox="0 0 24 24" fill="none" xmlns="http://www.w3.org/2000/svg">
<path d="M7.81893 6.34323C7.41142 5.93572 6.75073 5.93572 6.34323 6.34323C5.93572 6.75073 5.93572 7.41142 6.34323 7.81893L10.5244 12.0001L6.34323 16.1812C5.93572 16.5887 5.93572 17.2494 6.34323 17.6569C6.75073 18.0644 7.41142 18.0644 7.81893 17.6569L12.0001 13.4758L16.1812 17.6569C16.5887 18.0644 17.2494 18.0644 17.6569 17.6569C18.0644 17.2494 18.0644 16.5887 17.6569 16.1812L13.4758 12.0001L17.6569 7.81893C18.0644 7.41142 18.0644 6.75073 17.6569 6.34323C17.2494 5.93572 16.5887 5.93572 16.1812 6.34323L12.0001 10.5244L7.81893 6.34323Z" fill="#FF6138"/>
</svg>
