<svg width="16" height="16" viewBox="0 0 16 16" fill="none" xmlns="http://www.w3.org/2000/svg">
<path d="M5.21246 4.22865C4.94079 3.95699 4.50032 3.95699 4.22865 4.22865C3.95699 4.50032 3.95699 4.94079 4.22865 5.21245L7.01609 7.99989L4.22865 10.7873C3.95699 11.059 3.95698 11.4995 4.22865 11.7711C4.50032 12.0428 4.94079 12.0428 5.21245 11.7711L7.99989 8.98369L10.7873 11.7711C11.059 12.0428 11.4995 12.0428 11.7711 11.7711C12.0428 11.4995 12.0428 11.059 11.7711 10.7873L8.98369 7.99989L11.7711 5.21245C12.0428 4.94079 12.0428 4.50032 11.7711 4.22865C11.4995 3.95699 11.059 3.95699 10.7873 4.22865L7.99989 7.01609L5.21246 4.22865Z" fill="black"/>
</svg>
