<svg width="16" height="16" viewBox="0 0 16 16" fill="none" xmlns="http://www.w3.org/2000/svg">
<path fill-rule="evenodd" clip-rule="evenodd" d="M5.33495 3.03482C7.1325 2.89934 8.93802 2.90822 10.7341 3.0614L11.8166 3.15371C12.6343 3.22344 13.2979 3.84399 13.4222 4.65515L13.4905 5.1007C13.7223 6.61264 13.7006 8.15262 13.4264 9.65744C13.2912 10.3999 12.6444 10.9395 11.8896 10.9395H5.90536C5.76769 10.9395 5.63215 10.9736 5.51088 11.0388L2.90368 12.44C2.74873 12.5232 2.56141 12.519 2.41042 12.4287C2.25944 12.3384 2.16699 12.1755 2.16699 11.9995V6.32134C2.16699 4.60228 3.49193 3.17372 5.20613 3.04452L5.33495 3.03482ZM5.33366 6.33288C4.87342 6.33288 4.50033 6.70597 4.50033 7.16621C4.50033 7.62645 4.87342 7.99954 5.33366 7.99954C5.7939 7.99954 6.16699 7.62645 6.16699 7.16621C6.16699 6.70597 5.7939 6.33288 5.33366 6.33288ZM8.00033 6.33288C7.54009 6.33288 7.16699 6.70597 7.16699 7.16621C7.16699 7.62645 7.54009 7.99954 8.00033 7.99954C8.46056 7.99954 8.83366 7.62645 8.83366 7.16621C8.83366 6.70597 8.46056 6.33288 8.00033 6.33288ZM9.83366 7.16621C9.83366 6.70597 10.2068 6.33288 10.667 6.33288C11.1272 6.33288 11.5003 6.70597 11.5003 7.16621C11.5003 7.62645 11.1272 7.99954 10.667 7.99954C10.2068 7.99954 9.83366 7.62645 9.83366 7.16621Z" fill="#FF6138"/>
</svg>
