<svg width="20" height="20" viewBox="0 0 20 20" fill="none" xmlns="http://www.w3.org/2000/svg">
<path fill-rule="evenodd" clip-rule="evenodd" d="M6.66796 3.79401C8.91489 3.62466 11.1718 3.63577 13.4169 3.82724L14.7701 3.94263C15.7921 4.02979 16.6216 4.80547 16.7771 5.81943L16.8624 6.37637C17.1521 8.26629 17.1251 10.1913 16.7823 12.0723C16.6132 13.0004 15.8047 13.6749 14.8613 13.6749H7.38097C7.20888 13.6749 7.03946 13.7176 6.88786 13.799L3.62887 15.5504C3.43518 15.6545 3.20103 15.6492 3.0123 15.5364C2.82356 15.4235 2.70801 15.2198 2.70801 14.9999V7.90217C2.70801 5.75333 4.36418 3.96764 6.50693 3.80614L6.66796 3.79401ZM6.66634 7.91658C6.09104 7.91658 5.62467 8.38295 5.62467 8.95825C5.62467 9.53355 6.09104 9.99992 6.66634 9.99992C7.24164 9.99992 7.70801 9.53355 7.70801 8.95825C7.70801 8.38295 7.24164 7.91658 6.66634 7.91658ZM9.99967 7.91658C9.42438 7.91658 8.95801 8.38295 8.95801 8.95825C8.95801 9.53355 9.42438 9.99992 9.99967 9.99992C10.575 9.99992 11.0413 9.53355 11.0413 8.95825C11.0413 8.38295 10.575 7.91658 9.99967 7.91658ZM12.2913 8.95825C12.2913 8.38295 12.7577 7.91658 13.333 7.91658C13.9083 7.91658 14.3747 8.38295 14.3747 8.95825C14.3747 9.53355 13.9083 9.99992 13.333 9.99992C12.7577 9.99992 12.2913 9.53355 12.2913 8.95825Z" fill="black"/>
</svg>
