<svg width="25" height="24" viewBox="0 0 25 24" fill="none" xmlns="http://www.w3.org/2000/svg">
<path d="M9.87539 20.4C10.0237 20.5325 10.2486 20.3882 10.1929 20.1972L7.67345 11.559C7.62654 11.3982 7.48433 11.2837 7.31722 11.2715C6.90948 11.2415 6.50193 11.208 6.09462 11.171L2.7242 10.8646C2.56684 10.8503 2.45609 11.0153 2.53058 11.1546C4.35365 14.5645 6.97885 17.8135 9.87539 20.4Z" fill="white"/>
<path d="M12.3472 22.2261C12.3675 22.2958 12.4274 22.3482 12.5 22.3482C12.5726 22.3482 12.6326 22.2958 12.6529 22.2261L15.7368 11.6527C15.7752 11.521 15.6725 11.3905 15.5354 11.3964C13.5128 11.4833 11.4873 11.4833 9.46468 11.3964C9.32754 11.3905 9.22485 11.521 9.26328 11.6527L12.3472 22.2261Z" fill="white"/>
<path d="M14.8071 20.1972C14.7515 20.3881 14.9763 20.5325 15.1247 20.4C18.0212 17.8135 20.6464 14.5645 22.4695 11.1546C22.544 11.0153 22.4332 10.8503 22.2759 10.8646L18.9054 11.171C18.4981 11.208 18.0906 11.2415 17.6828 11.2714C17.5157 11.2837 17.3735 11.3982 17.3266 11.559L14.8071 20.1972Z" fill="white"/>
<path d="M22.301 9.35611C22.4534 9.34226 22.5344 9.16936 22.4475 9.04339L19.2098 4.3486C18.9298 3.94261 18.4681 3.7002 17.9749 3.7002H15.4853C15.3432 3.7002 15.2464 3.84428 15.3001 3.97584L17.5569 9.49921C17.6225 9.65976 17.7841 9.75987 17.957 9.7462C18.228 9.72478 18.4988 9.70176 18.7696 9.67714L22.301 9.35611Z" fill="white"/>
<path d="M13.6651 3.94635C13.603 3.79729 13.4573 3.7002 13.2959 3.7002H11.7042C11.5427 3.7002 11.3971 3.79729 11.335 3.94635L8.97742 9.60447C8.92425 9.73208 9.0135 9.87385 9.15158 9.88054C11.3826 9.98854 13.6175 9.98854 15.8485 9.88054C15.9866 9.87385 16.0758 9.73208 16.0226 9.60447L13.6651 3.94635Z" fill="white"/>
<path d="M9.69992 3.97584C9.75367 3.84428 9.6569 3.7002 9.51477 3.7002H7.02513C6.53196 3.7002 6.07029 3.94261 5.79031 4.3486L2.55252 9.04339C2.46564 9.16936 2.54666 9.34226 2.69906 9.35611L6.23042 9.67714C6.50121 9.70176 6.7721 9.72478 7.04309 9.7462C7.21598 9.75987 7.37758 9.65976 7.44317 9.49922L9.69992 3.97584Z" fill="white"/>
</svg>
