<svg width="174" height="174" viewBox="0 0 174 174" fill="none" xmlns="http://www.w3.org/2000/svg">
<path fill-rule="evenodd" clip-rule="evenodd" d="M51.1922 110.872C79.4648 110.872 102.384 87.9525 102.384 59.6799C102.384 52.2384 100.796 45.1678 97.9412 38.7883H115.18C122.863 38.7883 129.921 43.023 133.537 49.8023L142.815 67.1995C145.236 71.7384 149.253 75.2195 154.089 76.9709L160.278 79.2113C168.514 82.1932 174 90.0142 174 98.7731V121.06C174 130.587 167.595 138.619 158.857 141.085C158.857 154.142 148.285 165.506 135.228 165.506C122.171 165.506 111.587 154.921 111.587 141.864H86.0541C86.0541 154.921 75.4695 165.506 62.4128 165.506C49.356 165.506 38.7722 154.732 38.7722 141.675C28.4827 140.3 19.8584 131.594 19.8584 121.06V100.165C28.5177 106.877 39.3884 110.872 51.1922 110.872Z" fill="url(#paint0_linear_388_22783)"/>
<ellipse opacity="0.5" cx="51.1921" cy="59.6799" rx="51.1921" ry="51.1921" fill="white"/>
<g opacity="0.8">
<path d="M36.8904 84.3475C34.2315 84.3475 31.7418 83.9353 29.4212 83.1109C27.149 82.2866 25.1669 80.8802 23.4749 78.892C21.7828 76.8553 20.4534 74.1639 19.4865 70.8179C18.5196 67.4233 18.0361 63.1802 18.0361 58.0884V56.6336C18.0361 51.9297 18.5196 48.0018 19.4865 44.8497C20.4534 41.6491 21.7828 39.1032 23.4749 37.212C25.1669 35.2723 27.149 33.8902 29.4212 33.0658C31.7418 32.2414 34.2315 31.8292 36.8904 31.8292C39.5494 31.8292 42.0149 32.2414 44.2871 33.0658C46.6077 33.8902 48.614 35.2723 50.306 37.212C51.9981 39.1032 53.3275 41.6491 54.2944 44.8497C55.2613 48.0018 55.7447 51.9297 55.7447 56.6336V58.0884C55.7447 63.1802 55.2613 67.4233 54.2944 70.8179C53.3275 74.1639 51.9981 76.8553 50.306 78.892C48.614 80.8802 46.6077 82.2866 44.2871 83.1109C42.0149 83.9353 39.5494 84.3475 36.8904 84.3475ZM36.8904 76.7826C38.2441 76.7826 39.5252 76.5158 40.7338 75.9824C41.9424 75.449 43.006 74.5034 43.9245 73.1456C44.8914 71.7393 45.6408 69.8238 46.1726 67.3991C46.7527 64.9744 47.0428 61.8709 47.0428 58.0884V56.6336C47.0428 53.239 46.7527 50.4264 46.1726 48.1957C45.6408 45.965 44.8914 44.195 43.9245 42.8857C43.006 41.5764 41.9424 40.6793 40.7338 40.1943C39.5252 39.6609 38.2441 39.3942 36.8904 39.3942C35.5368 39.3942 34.2557 39.6609 33.0471 40.1943C31.8385 40.6793 30.7507 41.5764 29.7838 42.8857C28.8653 44.195 28.1159 45.965 27.5358 48.1957C27.004 50.4264 26.7381 53.239 26.7381 56.6336V58.0884C26.7381 61.8709 27.004 64.9744 27.5358 67.3991C28.1159 69.8238 28.8653 71.7393 29.7838 73.1456C30.7507 74.5034 31.8385 75.449 33.0471 75.9824C34.2557 76.5158 35.5368 76.7826 36.8904 76.7826Z" fill="white"/>
<path d="M64.4125 80.2985H60.577V75.2542H64.4125V73.2023H60.577V67.303H64.4125V53.6235H75.706C79.4279 53.6235 82.2406 54.5213 84.1442 56.3167C86.0478 58.1121 86.9996 60.5488 86.9996 63.6267C86.9996 65.0516 86.7581 66.3626 86.2751 67.5595C85.7921 68.728 85.0818 69.7397 84.1442 70.5946C83.2066 71.4211 82.0276 72.0623 80.607 72.5183C79.2148 72.9743 77.5812 73.2023 75.706 73.2023H72.0836V75.2542H81.0332V80.2985H72.0836V83.5474H64.4125V80.2985ZM74.8537 67.303C76.3879 67.303 77.5102 66.9895 78.2204 66.3626C78.9591 65.7356 79.3285 64.8236 79.3285 63.6267C79.3285 62.4297 78.9591 61.5177 78.2204 60.8908C77.5102 60.2638 76.3879 59.9503 74.8537 59.9503H72.0836V67.303H74.8537Z" fill="white"/>
</g>
<defs>
<linearGradient id="paint0_linear_388_22783" x1="174" y1="165.512" x2="32.6247" y2="50.1309" gradientUnits="userSpaceOnUse">
<stop stop-color="white"/>
<stop offset="1" stop-color="white" stop-opacity="0"/>
</linearGradient>
</defs>
</svg>
