<svg width="189" height="238" viewBox="0 0 189 238" fill="none" xmlns="http://www.w3.org/2000/svg">
<path fill-rule="evenodd" clip-rule="evenodd" d="M121.935 3.05128C121.935 1.3661 120.571 0 118.887 0H33.5323C15.0129 0 0 15.0272 0 33.5641V204.436C0 222.973 15.0129 238 33.5323 238H155.468C173.987 238 189 222.973 189 204.436V84.1795C189 82.4943 187.635 81.1282 185.952 81.1282H131.081C126.03 81.1282 121.935 77.0299 121.935 71.9744V3.05128ZM119.271 133.211C123.215 130.053 128.97 130.693 132.125 134.641C135.281 138.588 134.641 144.349 130.697 147.507L100.287 171.858C98.7179 173.143 96.7142 173.916 94.5303 173.923L94.5007 173.923L94.4236 173.923C92.2769 173.905 90.3066 173.147 88.7549 171.891L58.3035 147.507C54.3596 144.349 53.7201 138.588 56.8753 134.641C60.0305 130.693 65.7854 130.053 69.7294 133.211L85.3555 145.724V103.744C85.3555 98.6881 89.4499 94.5897 94.5007 94.5897C99.5514 94.5897 103.646 98.6881 103.646 103.744V145.723L119.271 133.211Z" fill="url(#paint0_linear)"/>
<path d="M140.226 7.0074C140.226 4.7556 142.575 3.32584 144.325 4.7403C145.8 5.93169 147.125 7.32744 148.256 8.90424L184.997 60.1401C185.833 61.3066 184.927 62.8205 183.493 62.8205H143.274C141.591 62.8205 140.226 61.4544 140.226 59.7692V7.0074Z" fill="url(#paint1_linear)"/>
<defs>
<linearGradient id="paint0_linear" x1="0" y1="0" x2="188.993" y2="237.825" gradientUnits="userSpaceOnUse">
<stop stop-opacity="0.1"/>
<stop offset="1" stop-opacity="0"/>
</linearGradient>
<linearGradient id="paint1_linear" x1="0" y1="0" x2="188.993" y2="237.825" gradientUnits="userSpaceOnUse">
<stop stop-opacity="0.1"/>
<stop offset="1" stop-opacity="0"/>
</linearGradient>
</defs>
</svg>
