<svg width="193" height="194" viewBox="0 0 193 194" fill="none" xmlns="http://www.w3.org/2000/svg">
<path d="M22.0264 66.443C22.0264 53.6322 32.3579 43.2473 45.1025 43.2473H127.757C136.279 43.2473 144.108 47.9687 148.118 55.5273L158.41 74.9241C161.095 79.9848 165.55 83.866 170.915 85.8187L177.779 88.3166C186.914 91.6413 192.999 100.361 192.999 110.127V134.976C192.999 145.598 185.895 154.553 176.203 157.302C176.203 171.86 164.476 184.53 149.994 184.53C135.511 184.53 123.771 172.729 123.771 158.171H95.4503C95.4503 172.729 83.7099 184.53 69.2275 184.53C54.745 184.53 43.0055 172.518 43.0055 157.96C31.5925 156.427 22.0264 146.721 22.0264 134.976V66.443Z" fill="url(#paint0_linear_403_23007)"/>
<defs>
<linearGradient id="paint0_linear_403_23007" x1="192.999" y1="184.537" x2="35.5394" y2="56.6908" gradientUnits="userSpaceOnUse">
<stop stop-color="white"/>
<stop offset="1" stop-color="white" stop-opacity="0"/>
</linearGradient>
</defs>
</svg>
