<svg width="16" height="16" viewBox="0 0 16 16" fill="none" xmlns="http://www.w3.org/2000/svg">
<path d="M9.73708 2.33325C9.82549 2.33325 9.91027 2.36837 9.97278 2.43088L11.8584 4.3165C11.9886 4.44668 11.9886 4.65773 11.8584 4.78791L5.73014 10.9162C5.68826 10.958 5.63598 10.988 5.57868 11.003L3.0264 11.6696C2.9119 11.6995 2.79013 11.6665 2.70645 11.5828C2.62278 11.4992 2.58974 11.3774 2.61964 11.2629L3.28631 8.7106C3.30128 8.6533 3.33124 8.60102 3.37312 8.55914L9.50138 2.43088C9.56389 2.36837 9.64868 2.33325 9.73708 2.33325Z" fill="black"/>
<path d="M2.66602 12.8333C2.38987 12.8333 2.16602 13.0571 2.16602 13.3333C2.16602 13.6094 2.38987 13.8333 2.66602 13.8333H12.666C12.9422 13.8333 13.166 13.6094 13.166 13.3333C13.166 13.0571 12.9422 12.8333 12.666 12.8333H2.66602Z" fill="black"/>
</svg>
