<svg width="48" height="48" viewBox="0 0 48 48" fill="none" xmlns="http://www.w3.org/2000/svg">
<path d="M25.0435 17.0435C25.0435 16.4672 24.5763 16 24 16C23.4237 16 22.9565 16.4672 22.9565 17.0435V22.9565H17.0435C16.4672 22.9565 16 23.4237 16 24C16 24.5763 16.4672 25.0435 17.0435 25.0435H22.9565V30.9565C22.9565 31.5328 23.4237 32 24 32C24.5763 32 25.0435 31.5328 25.0435 30.9565V25.0435H30.9565C31.5328 25.0435 32 24.5763 32 24C32 23.4237 31.5328 22.9565 30.9565 22.9565H25.0435V17.0435Z" fill="black"/>
</svg>
