<svg width="48" height="48" viewBox="0 0 48 48" fill="none" xmlns="http://www.w3.org/2000/svg">
<path d="M19.8189 18.3432C19.4114 17.9357 18.7507 17.9357 18.3432 18.3432C17.9357 18.7507 17.9357 19.4114 18.3432 19.8189L22.5244 24.0001L18.3432 28.1812C17.9357 28.5887 17.9357 29.2494 18.3432 29.6569C18.7507 30.0644 19.4114 30.0644 19.8189 29.6569L24.0001 25.4758L28.1812 29.6569C28.5887 30.0644 29.2494 30.0644 29.6569 29.6569C30.0644 29.2494 30.0644 28.5887 29.6569 28.1812L25.4758 24.0001L29.6569 19.8189C30.0644 19.4114 30.0644 18.7507 29.6569 18.3432C29.2494 17.9357 28.5887 17.9357 28.1812 18.3432L24.0001 22.5244L19.8189 18.3432Z" fill="black"/>
</svg>
