<svg width="20" height="20" viewBox="0 0 20 20" fill="none" xmlns="http://www.w3.org/2000/svg">
<path d="M11.8334 2.39551C10.8112 2.39551 9.8309 2.80157 9.10811 3.52437C8.38531 4.24716 7.97925 5.22749 7.97925 6.24967V8.39551H5.91675C5.81319 8.39551 5.72925 8.47945 5.72925 8.58301V11.4163C5.72925 11.5199 5.81319 11.6038 5.91675 11.6038H7.97925V17.4163C7.97925 17.5199 8.06319 17.6038 8.16675 17.6038H11.0001C11.1036 17.6038 11.1876 17.5199 11.1876 17.4163V11.6038H13.2683C13.3544 11.6038 13.4294 11.5453 13.4503 11.4618L14.1586 8.62848C14.1882 8.51014 14.0987 8.39551 13.9767 8.39551H11.1876V6.24967C11.1876 6.07839 11.2556 5.91412 11.3767 5.793C11.4979 5.67188 11.6621 5.60384 11.8334 5.60384H14.0001C14.1036 5.60384 14.1876 5.51989 14.1876 5.41634V2.58301C14.1876 2.47945 14.1036 2.39551 14.0001 2.39551H11.8334Z" fill="black"/>
</svg>
