<svg width="25" height="24" viewBox="0 0 25 24" fill="none" xmlns="http://www.w3.org/2000/svg">
<path d="M21.3553 10.3614C21.3386 10.2674 21.2562 10.2 21.1607 10.2H12.7C12.5895 10.2 12.5 10.2895 12.5 10.4V13.6C12.5 13.7105 12.5895 13.8 12.7 13.8H17.5864C16.8443 15.8956 14.8503 17.4 12.5 17.4C9.51785 17.4 7.1 14.9822 7.1 12C7.1 9.01785 9.51785 6.6 12.5 6.6C13.8087 6.6 15.0052 7.0694 15.9394 7.84461C16.0209 7.91225 16.1409 7.90905 16.2158 7.83415L18.4816 5.56839C18.5617 5.48833 18.5595 5.35768 18.475 5.28238C16.8853 3.8667 14.7961 3 12.5 3C7.52975 3 3.5 7.02975 3.5 12C3.5 16.9703 7.52975 21 12.5 21C17.4703 21 21.5 16.9703 21.5 12C21.5 11.453 21.449 10.8872 21.3553 10.3614Z" fill="black"/>
</svg>
