<svg width="16" height="16" viewBox="0 0 16 16" fill="none" xmlns="http://www.w3.org/2000/svg">
<path d="M5.60008 3.5C3.74618 3.5 2.16675 4.8862 2.16675 6.68653C2.16675 7.9285 2.74831 8.97412 3.51908 9.84028C4.28719 10.7035 5.27818 11.428 6.17406 12.0344L7.71981 13.0807C7.88909 13.1953 8.11107 13.1953 8.28035 13.0807L9.8261 12.0344C10.722 11.428 11.713 10.7035 12.4811 9.84028C13.2518 8.97412 13.8334 7.9285 13.8334 6.68653C13.8334 4.8862 12.254 3.5 10.4001 3.5C9.44443 3.5 8.60352 3.94809 8.00008 4.52789C7.39664 3.94809 6.55573 3.5 5.60008 3.5Z" fill="#FF6138"/>
</svg>
