<svg width="32" height="32" viewBox="0 0 32 32" fill="none" xmlns="http://www.w3.org/2000/svg">
<path d="M11.2 7C7.49223 7 4.33337 9.7724 4.33337 13.3731C4.33337 15.857 5.4965 17.9482 7.03803 19.6806C8.57426 21.4069 10.5562 22.856 12.348 24.0689L15.4395 26.1615C15.7781 26.3906 16.222 26.3906 16.5606 26.1615L19.6521 24.0689C21.4438 22.856 23.4258 21.4069 24.9621 19.6806C26.5036 17.9482 27.6667 15.857 27.6667 13.3731C27.6667 9.7724 24.5078 7 20.8 7C18.8887 7 17.2069 7.89618 16 9.05578C14.7932 7.89619 13.1113 7 11.2 7Z" fill="black"/>
</svg>
