<svg width="60" height="60" viewBox="0 0 60 60" fill="none" xmlns="http://www.w3.org/2000/svg">
<path d="M12.4452 13C8.80552 13 6 15.4108 6 19.6099V31.5851C6.3029 33.0623 7.81986 34.1506 9.48828 34.1506C11.3834 34.1506 12.749 32.7512 12.749 31.0406V24.9743H17.9048V30.9628C17.9048 34.3062 13.7338 36.0168 10.7015 36.0168C8.95697 36.0168 7.28938 35.4723 6.07531 34.5396V47.7586H14.2651C17.1468 47.7586 20.4828 44.9589 20.4828 41.3821V13H12.4452Z" fill="#1174CE"/>
<path d="M6 19.6099V31.5851C6.3029 33.0623 7.81986 34.1506 9.48828 34.1506C11.3834 34.1506 12.749 32.7512 12.749 31.0406V24.9743H17.9048V30.9628C17.9048 34.3062 13.7338 36.0168 10.7015 36.0168C8.95697 36.0168 7.28938 35.4723 6.07531 34.5396V47.7586H14.2651C17.1468 47.7586 20.4828 44.9589 20.4828 41.3821V13" fill="#0F549D"/>
<path d="M17.8908 25V30.981C17.8908 34.3211 13.699 36.0292 10.6494 36.0292C8.89655 36.0292 7.21986 35.4863 6 34.5537V47.7586H14.232C17.1286 47.7586 20.4828 44.9622 20.4828 41.3895" fill="#02375E"/>
<path d="M42 34.1034H45.6116C46.5343 34.1034 47.3793 33.3123 47.3793 32.4483C47.3793 31.5843 46.5343 30.7931 45.6116 30.7931H42V34.1034Z" fill="#146643"/>
<path d="M45.8459 13C42.0042 13 39.1821 15.4108 39.1821 19.5321V24.9752H49.061C50.4721 24.9752 51.6481 26.1421 51.6481 27.5407C51.6481 28.941 50.4721 30.107 49.061 30.107C50.6285 30.107 51.8831 31.1961 51.8831 32.5956C51.8831 33.995 50.7079 35.0841 49.061 35.0841H39.1035V47.7586H47.5714C50.5507 47.7586 54.0001 44.9589 54.0001 41.3821V13H45.8459Z" fill="#1BCC38"/>
<path d="M39.1035 19.6099V24.9752H48.9824C50.3934 24.9752 51.5694 26.1421 51.5694 27.5407C51.5694 28.941 50.3943 30.107 48.9824 30.107C50.5507 30.107 51.8045 31.1961 51.8045 32.5956C51.8045 33.995 50.6293 35.0841 48.9824 35.0841H39.1035V47.7586H47.5714C50.5507 47.7586 54.0001 44.9589 54.0001 41.3821V13" fill="#329947"/>
<path d="M51.5913 27.5954C51.5913 28.9923 50.4277 30.1567 49.0307 30.1567C50.5833 30.1567 51.8246 31.2434 51.8246 32.6395C51.8246 34.0373 50.6602 35.1239 49.0307 35.1239H39.252V47.7744H47.6337C50.5833 47.7744 53.9979 44.9805 53.9979 41.4103L51.5913 27.5954ZM47.1703 27.9049C47.1703 26.9747 46.3171 26.1206 45.3852 26.1206H41.815V29.613H45.463C45.9146 29.6091 46.3466 29.428 46.6659 29.1087C46.9853 28.7893 47.1664 28.3573 47.1703 27.9057V27.9049Z" fill="#146643"/>
<path d="M29.2163 13C25.3738 13 22.5518 15.4108 22.5518 19.5321V26.219C23.4927 25.4411 24.6687 24.8974 25.9233 24.8974H34.8613V26.7636C32.7443 26.2968 30.706 26.0634 29.6864 26.0634C27.4908 26.0634 25.6883 27.8519 25.6883 30.0292C25.6883 32.2066 27.4908 33.995 29.6864 33.995C30.706 33.995 32.7443 33.8394 34.8613 33.3727V35.0841H25.9233C24.6687 35.0841 23.4141 34.6174 22.5518 33.7617V47.7586H31.0196C33.9989 47.7586 37.4483 44.9589 37.4483 41.3821V13H29.2163Z" fill="#E20E37"/>
<path d="M22.5518 19.6099V26.2968C23.4927 25.5189 24.6687 24.9752 25.9233 24.9752H34.8613V26.8414C32.7443 26.3746 30.706 26.1412 29.6864 26.1412C27.4908 26.1412 25.6883 27.9297 25.6883 30.107C25.6883 32.2844 27.4908 34.0728 29.6864 34.0728C30.706 34.0728 32.7443 33.9172 34.8613 33.4505V35.0841H25.9233C24.6687 35.0841 23.4141 34.6174 22.5518 33.7617V47.7586H31.0196C33.9989 47.7586 37.4483 44.9589 37.4483 41.3821V13" fill="#B41F36"/>
<path d="M34.8613 25V26.8646C32.7443 26.3978 30.706 26.1652 29.6864 26.1652C27.4908 26.1652 25.6883 27.952 25.6883 30.1269C25.6883 32.3018 27.4908 34.0877 29.6864 34.0877C30.706 34.0877 32.7443 33.9321 34.8613 33.467V35.0974H25.9233C24.6687 35.0974 23.4141 34.6314 22.5518 33.7774V47.7586H31.0196C33.9989 47.7586 37.4483 44.9622 37.4483 41.3895" fill="#720A1E"/>
</svg>
