<svg width="40" height="40" viewBox="0 0 40 40" fill="none" xmlns="http://www.w3.org/2000/svg">
<path d="M2.93248 22.0832C2.90207 22.069 2.87169 22.0547 2.84131 22.0403V11.3541C2.84131 11.0527 2.87275 10.7585 2.93248 10.4744C2.94531 10.4134 2.95955 10.353 2.97495 10.293C2.98813 10.2416 3.00234 10.1906 3.01739 10.1399C3.03081 10.0948 3.04498 10.05 3.05982 10.0055C3.07342 9.96476 3.08749 9.92419 3.10229 9.88397C3.116 9.84676 3.13003 9.80975 3.14472 9.77303C3.15843 9.73869 3.1726 9.70446 3.18719 9.67053C3.20097 9.63855 3.2151 9.60677 3.22962 9.57521C3.24344 9.5452 3.25761 9.51543 3.27206 9.4858C3.28587 9.45748 3.30011 9.42938 3.31453 9.40141C3.32838 9.37455 3.34255 9.34789 3.35696 9.32138C3.37085 9.2958 3.38501 9.27039 3.39939 9.24512C3.41331 9.22065 3.42745 9.19632 3.44186 9.17216C3.45582 9.14869 3.46988 9.12529 3.4843 9.1021C3.49825 9.07967 3.51242 9.05741 3.52676 9.03526C3.54065 9.01379 3.55492 8.99247 3.5692 8.97125C3.58319 8.95048 3.59729 8.92979 3.61163 8.90926L3.61848 8.89947C3.63027 8.8826 3.64202 8.86578 3.6541 8.8491C3.66659 8.83186 3.67937 8.81482 3.69215 8.79777L3.69653 8.79192C3.71056 8.77322 3.72469 8.75467 3.739 8.73622L3.74727 8.72554C3.75858 8.71093 3.7699 8.69629 3.78144 8.68188C3.79274 8.66777 3.80426 8.65385 3.81578 8.63992L3.82387 8.63013C3.8379 8.61313 3.85203 8.59621 3.86634 8.57942C3.8804 8.56291 3.89446 8.54643 3.90877 8.53013C3.9212 8.51595 3.93382 8.502 3.94647 8.48802L3.95124 8.48274C3.9653 8.46713 3.97937 8.45155 3.99367 8.43618C4.00665 8.42222 4.01984 8.40843 4.03302 8.39466L4.03611 8.39143C4.05017 8.37672 4.0643 8.36214 4.07858 8.34764C4.09264 8.33334 4.10674 8.31905 4.12101 8.30493C4.13396 8.29211 4.14709 8.27947 4.16021 8.26685L4.16348 8.2637L4.17533 8.25226C4.18547 8.24244 4.19561 8.23264 4.20591 8.22299C4.21581 8.21371 4.22585 8.20458 4.2359 8.19545L4.24835 8.18412L4.25715 8.17607C4.26832 8.16584 4.27948 8.15562 4.29081 8.14556C4.30154 8.13603 4.3124 8.12664 4.32325 8.11725L4.34159 8.10138C4.35292 8.09156 4.36425 8.08175 4.37572 8.07207C4.38951 8.06043 4.4034 8.04899 4.41733 8.03751L4.41815 8.03684C4.43221 8.02524 4.44635 8.01364 4.46058 8.00222C4.47465 7.99094 4.48885 7.97976 4.50305 7.96861C4.51715 7.95757 4.53125 7.94663 4.54549 7.93576C4.55955 7.925 4.57375 7.91437 4.58795 7.90378C4.60205 7.89329 4.61618 7.88284 4.63039 7.87252L4.67282 7.84213C4.68692 7.83213 4.70105 7.82219 4.71529 7.81236C4.72935 7.80263 4.74352 7.79301 4.75772 7.78346C4.77182 7.77394 4.78595 7.76449 4.80016 7.75514C4.81425 7.7459 4.82842 7.7368 4.84263 7.72769L4.85062 7.72257C4.86205 7.71523 4.87351 7.70787 4.88506 7.70066C4.89643 7.69355 4.90789 7.68658 4.91937 7.67959L4.92753 7.67463L4.93924 7.66747C4.94945 7.66121 4.95966 7.65495 4.96996 7.64884C4.98 7.64287 4.99014 7.63703 5.00029 7.63118L5.0124 7.6242L5.02699 7.6157C5.03625 7.61029 5.0455 7.60488 5.05486 7.59959C5.06367 7.59461 5.07258 7.58977 5.08148 7.58493L5.0973 7.57629L5.11102 7.56871L5.13977 7.55296C5.15019 7.54737 5.16069 7.54193 5.1712 7.53648L5.1822 7.53077L5.1902 7.52659L5.22463 7.50876C5.23873 7.50159 5.2529 7.49457 5.2671 7.48754L5.30954 7.46684C5.32367 7.46002 5.3378 7.4532 5.352 7.44656L5.38493 7.4314L5.39444 7.42707L5.40852 7.42059C5.41795 7.41624 5.42736 7.41189 5.43687 7.40768C5.44611 7.40357 5.45543 7.39961 5.46475 7.39566L5.47934 7.38944L5.49174 7.38408L5.52177 7.3712L5.55362 7.35819L5.56424 7.35389L5.60668 7.33686L5.64911 7.32032L5.69158 7.30446L5.70711 7.29863L5.73401 7.28864C5.74273 7.28551 5.75153 7.28251 5.76033 7.27951L5.77648 7.27397L5.78708 7.27027L5.81891 7.25929L5.86135 7.24534L5.90382 7.23181L5.91629 7.22788L5.94625 7.21855L5.97686 7.20955L5.98868 7.20612L6.0003 7.2027L6.03115 7.19373L6.06004 7.18585L6.07359 7.18221L6.11605 7.17089L6.12665 7.16813L6.15849 7.15995L6.18562 7.15343L6.20092 7.14981L6.2145 7.14652L6.24339 7.13963L6.27443 7.13279L6.28582 7.13032L6.32829 7.12125L6.33482 7.11987C6.34677 7.11735 6.35871 7.11483 6.37073 7.11246L6.39875 7.10715L6.41316 7.10446L6.42627 7.10197L6.45563 7.0965L6.48584 7.09134L6.49806 7.0893L6.54053 7.08238L6.55656 7.07981L6.58296 7.07566L6.60943 7.07198L6.6254 7.06981L6.64042 7.06772L6.66787 7.06396L6.7103 7.05874L6.75277 7.05399L6.76934 7.05209L6.7952 7.04922L6.82111 7.0469L6.8801 7.04181C6.89424 7.04063 6.90837 7.03949 6.92254 7.03849L6.95446 7.03646L6.96501 7.03582L6.98058 7.03483L7.00744 7.03319L7.03724 7.03182L7.04987 7.03129L7.09234 7.02969L7.10877 7.02906L7.13478 7.02814L7.1607 7.02779L7.17721 7.02762L7.18419 7.02751L7.21968 7.0271L7.23853 7.02686H13.7077V28.6616C13.7077 28.8498 13.6954 29.0351 13.6717 29.217C13.6603 29.3046 13.6459 29.3912 13.6292 29.4771C13.6165 29.5423 13.6024 29.6071 13.5868 29.6714C13.5736 29.7255 13.5595 29.7792 13.5443 29.8325C13.531 29.8793 13.5168 29.9257 13.5019 29.9717C13.4884 30.0135 13.4742 30.0549 13.4594 30.0961C13.4458 30.1342 13.4317 30.1721 13.417 30.2097C13.4033 30.2449 13.3891 30.2798 13.3745 30.3145C13.3608 30.3471 13.3466 30.3796 13.3321 30.4118C13.3183 30.4424 13.3041 30.4728 13.2896 30.5031C13.2758 30.5319 13.2617 30.5605 13.2472 30.589C13.2333 30.6164 13.2192 30.6435 13.2047 30.6705C13.1909 30.6965 13.1767 30.7224 13.1623 30.7481C13.1483 30.7729 13.1343 30.7977 13.1199 30.8222C13.106 30.8459 13.0918 30.8694 13.0774 30.8928C13.0635 30.9155 13.0493 30.9379 13.035 30.9602C13.021 30.9821 13.0068 31.0038 12.9925 31.0253C12.9785 31.0464 12.9644 31.0675 12.9501 31.0883C12.9361 31.1084 12.9219 31.1285 12.9076 31.1484C12.8937 31.1679 12.8795 31.1872 12.8652 31.2065C12.8511 31.2254 12.837 31.2443 12.8227 31.263C12.8087 31.2813 12.7946 31.2994 12.7803 31.3174C12.7663 31.3351 12.7521 31.3525 12.7378 31.3699C12.7238 31.3871 12.7097 31.4043 12.6954 31.4213C12.6815 31.4378 12.6673 31.4541 12.6531 31.4704C12.6391 31.4865 12.6248 31.5027 12.6105 31.5187L12.6021 31.528C12.5954 31.5355 12.5888 31.5429 12.5821 31.5503C12.5775 31.5554 12.5728 31.5606 12.5681 31.5657C12.5574 31.5772 12.5467 31.5885 12.5359 31.5999L12.5184 31.6183C12.5067 31.6306 12.495 31.6429 12.4832 31.6551C12.4691 31.6694 12.4549 31.6836 12.4407 31.6978C12.4266 31.7118 12.4125 31.7257 12.3983 31.7396C12.3842 31.7532 12.3701 31.7668 12.3558 31.7803C12.3418 31.7936 12.3276 31.8067 12.3134 31.8197L12.3071 31.8255C12.2951 31.8366 12.2831 31.8476 12.2709 31.8585C12.2652 31.8637 12.2594 31.8688 12.2535 31.8739C12.2479 31.8789 12.2423 31.8838 12.2366 31.8887L12.2285 31.8958C12.2143 31.9082 12.2003 31.9206 12.186 31.9328C12.177 31.9404 12.1679 31.9479 12.1588 31.9555C12.1537 31.9597 12.1487 31.9638 12.1436 31.9681L12.1324 31.9774C12.122 31.9861 12.1116 31.9947 12.1011 32.0032C12.0896 32.0125 12.0779 32.0217 12.0662 32.0309L12.0587 32.0368L12.0475 32.0456C12.0371 32.0539 12.0267 32.0621 12.0162 32.0702C12.0063 32.0778 11.9962 32.0854 11.9861 32.0929L11.9738 32.1021L11.9629 32.1103C11.9525 32.1181 11.9419 32.1261 11.9313 32.1338C11.9219 32.1407 11.9124 32.1475 11.9028 32.1543L11.8889 32.1642L11.8761 32.1734C11.8662 32.1804 11.8564 32.1875 11.8464 32.1944C11.8351 32.2023 11.8236 32.2101 11.8121 32.2178L11.804 32.2233L11.7908 32.2323C11.7811 32.239 11.7714 32.2456 11.7615 32.2521C11.7558 32.2559 11.7501 32.2596 11.7443 32.2633C11.7399 32.2662 11.7355 32.269 11.7312 32.2718L11.7191 32.2796C11.7049 32.2887 11.6909 32.298 11.6766 32.307C11.6679 32.3125 11.659 32.3179 11.6501 32.3233L11.6342 32.333L11.6218 32.3407C11.6118 32.3468 11.6018 32.353 11.5917 32.359C11.5815 32.3651 11.5712 32.3711 11.5609 32.3771L11.5493 32.3839L11.5382 32.3904L11.5069 32.4085C11.4941 32.4158 11.4812 32.4229 11.4683 32.43L11.4439 32.4435L11.422 32.4555C11.4079 32.4631 11.3937 32.4706 11.3795 32.4781L11.3371 32.5001L11.333 32.5022L11.2946 32.5217C11.2805 32.5287 11.2664 32.5355 11.2522 32.5424C11.238 32.5492 11.224 32.5563 11.2097 32.563L11.1826 32.5755L11.1673 32.5825C11.1531 32.589 11.1391 32.5956 11.1248 32.602L11.097 32.6142L11.0824 32.6205L11.0399 32.6387L10.9975 32.6564C10.9834 32.6622 10.9692 32.6678 10.955 32.6734C10.9409 32.6791 10.9268 32.6848 10.9126 32.6903C10.9076 32.6923 10.9025 32.6942 10.8974 32.6961C10.8934 32.6976 10.8893 32.6991 10.8853 32.7006L10.8702 32.7061L10.8548 32.7119L10.8277 32.722L10.8057 32.7298L10.7853 32.737L10.7428 32.7517L10.7004 32.766C10.6889 32.7697 10.6774 32.7733 10.666 32.777L10.6579 32.7795L10.6426 32.7844L10.6155 32.793L10.5942 32.7993L10.5306 32.8179L10.4881 32.8298C10.474 32.8337 10.4598 32.8373 10.4457 32.8411C10.4315 32.8448 10.4174 32.8488 10.4032 32.8523C10.3892 32.8559 10.3749 32.8591 10.3608 32.8625C10.3466 32.8659 10.3325 32.8694 10.3183 32.8727L10.2759 32.8823L10.2334 32.8914L10.2175 32.8948L10.191 32.9005C10.1825 32.9022 10.174 32.9037 10.1655 32.9053L10.1485 32.9084L10.1417 32.9097L10.1061 32.9164L10.0636 32.9239L10.0336 32.9288L10.0212 32.9308L10.005 32.9335L9.97877 32.9378C9.96467 32.9399 9.95047 32.9417 9.9363 32.9437L9.89387 32.9496L9.88691 32.9505L9.8514 32.9551C9.8373 32.9568 9.8231 32.9582 9.80897 32.9598L9.79475 32.9615L9.7665 32.9646L9.73416 32.9677L9.72406 32.9686L9.68163 32.9723L9.66465 32.9738C9.65617 32.9746 9.64768 32.9754 9.63916 32.976L9.61267 32.9777L9.59673 32.9786L9.5543 32.9813L9.51183 32.9835L9.48231 32.9846L9.46939 32.9851L9.45406 32.9857L9.42693 32.9867L9.39986 32.9872L9.38449 32.9875L9.34206 32.988L9.32548 32.9882L9.30269 32.9885H2.84131V23.8697C2.84131 23.8697 2.87268 23.8781 2.93248 23.893L2.97495 23.9034L3.01739 23.9136L3.05982 23.9236L3.10229 23.9334L3.14472 23.9431L3.18719 23.9527L3.22962 23.9621L3.27206 23.9714L3.31453 23.9805L3.35696 23.9895L3.39939 23.9984L3.44186 24.0072L3.4843 24.0159L3.52676 24.0244L3.5692 24.0329L3.61163 24.0412L3.6541 24.0494L3.739 24.0656L3.78144 24.0735L3.82387 24.0813L3.86634 24.0891L3.90877 24.0967L3.95124 24.1042L3.99367 24.1116L4.03611 24.1189L4.07858 24.1262L4.12101 24.1333L4.16348 24.1403L4.20591 24.1472L4.24835 24.1541L4.29081 24.1608L4.33325 24.1675L4.37572 24.174L4.41815 24.1805L4.46058 24.1869L4.50305 24.1932L4.54549 24.1994L4.58795 24.2055L4.63039 24.2115L4.67282 24.2174L4.71529 24.2233L4.80016 24.2346L4.84263 24.2402L4.88506 24.2456L4.92753 24.251L5.0124 24.2615L5.0973 24.2717L5.1822 24.2814L5.2671 24.2909L5.30954 24.2954L5.39444 24.3043L5.47934 24.3128L5.56424 24.321L5.60668 24.3249L5.69158 24.3326L5.77648 24.3398L5.81891 24.3433L5.90382 24.35L5.98868 24.3564L6.03115 24.3594L6.11605 24.3652L6.20092 24.3706L6.24339 24.3732L6.32829 24.3781L6.41316 24.3826L6.45563 24.3848L6.54053 24.3887L6.58296 24.3905L6.66787 24.394L6.75277 24.3969L6.7952 24.3983L6.8801 24.4008L6.92254 24.4018L7.00744 24.4037L7.09234 24.4051L7.13478 24.4057L7.21968 24.4066L7.26211 24.4069L7.34701 24.4071L7.3634 24.4072L7.38945 24.4071L7.55925 24.406L7.72906 24.403L7.77149 24.402L7.89883 24.3981L7.94129 24.3967L8.11106 24.3893L8.15353 24.387L8.28087 24.3798L8.3233 24.377L8.45064 24.368L8.49311 24.3647L8.62044 24.3539L8.66288 24.3499L8.79021 24.3372L8.83268 24.3326L8.96001 24.3179L9.00245 24.3125L9.08735 24.3013L9.12982 24.2956L9.15319 24.2922L9.25716 24.2768L9.29959 24.2702L9.32485 24.266L9.34206 24.2632L9.40125 24.2534L9.42693 24.2491C9.44123 24.2466 9.45515 24.244 9.46939 24.2414L9.5543 24.2258L9.59673 24.2177L9.62239 24.2125L9.63916 24.2091L9.68163 24.2005L9.72406 24.1918C9.73297 24.1899 9.7417 24.188 9.75045 24.186C9.75578 24.1848 9.76112 24.1836 9.7665 24.1824L9.80897 24.173L9.8282 24.1688L9.8514 24.1636C9.86575 24.1603 9.87967 24.1568 9.89387 24.1534L9.9363 24.1432C9.9504 24.1397 9.96478 24.1364 9.97877 24.1329C9.98798 24.1306 9.99709 24.1282 10.0062 24.1259C10.0112 24.1246 10.0162 24.1233 10.0212 24.122L10.0796 24.1066L10.1061 24.0996L10.1361 24.0913L10.1485 24.0878L10.2069 24.0713L10.2334 24.0636L10.2759 24.0509L10.3183 24.0378L10.3337 24.0331L10.3608 24.0247L10.4032 24.0108L10.4457 23.9967L10.4631 23.9909L10.4881 23.9826L10.5136 23.9735L10.573 23.9523L10.5886 23.9466L10.6155 23.9368C10.6249 23.9333 10.6342 23.9297 10.6434 23.9261C10.6483 23.9242 10.6531 23.9224 10.6579 23.9205L10.6778 23.9129L10.7004 23.9042L10.7428 23.8872L10.7853 23.8697L10.8018 23.8629C10.8105 23.8594 10.8192 23.8559 10.8277 23.8522C10.8365 23.8485 10.8451 23.8446 10.8538 23.8407L10.8702 23.8335L10.9126 23.8147L10.955 23.7953L10.9917 23.7781L10.9975 23.7753L11.0113 23.7688C11.0172 23.766 11.0232 23.7631 11.0291 23.7603C11.0327 23.7586 11.0363 23.7568 11.0399 23.7551C11.0488 23.7507 11.0574 23.7463 11.0661 23.7419L11.0824 23.7336L11.0946 23.7275C11.1048 23.7224 11.1149 23.7174 11.1248 23.7122C11.1358 23.7065 11.1466 23.7007 11.1575 23.6949C11.1607 23.6932 11.164 23.6914 11.1673 23.6897C11.1815 23.6821 11.1957 23.6745 11.2097 23.6668C11.224 23.659 11.2381 23.6511 11.2522 23.6431C11.2665 23.6351 11.2806 23.6269 11.2946 23.6187L11.298 23.6167C11.3111 23.6091 11.3242 23.6015 11.3371 23.5938C11.3497 23.5862 11.362 23.5785 11.3744 23.5709L11.3795 23.5677L11.3844 23.5647C11.397 23.5569 11.4096 23.5492 11.422 23.5413C11.4324 23.5346 11.4427 23.5279 11.4529 23.5211L11.4644 23.5135L11.4765 23.5055C11.4867 23.4988 11.4969 23.4921 11.5069 23.4853C11.518 23.4778 11.5289 23.4701 11.5399 23.4624L11.5493 23.4557L11.5536 23.4528C11.5663 23.4438 11.5793 23.4347 11.5917 23.4257C11.6052 23.4159 11.6184 23.406 11.6316 23.3961L11.6342 23.3941C11.6407 23.3893 11.6472 23.3844 11.6536 23.3795C11.6613 23.3736 11.669 23.3677 11.6766 23.3618C11.6909 23.3507 11.7051 23.3395 11.7191 23.3282C11.7334 23.3167 11.7476 23.305 11.7615 23.2933L11.7645 23.2909C11.7776 23.2799 11.7912 23.2686 11.804 23.2575C11.8155 23.2475 11.8268 23.2374 11.838 23.2273L11.8524 23.2143C11.8647 23.2033 11.8769 23.1923 11.8889 23.1811C11.9033 23.1677 11.9174 23.1541 11.9313 23.1404C11.9457 23.1265 11.9598 23.1123 11.9738 23.0982C11.9881 23.0837 12.0024 23.0693 12.0162 23.0546C12.0305 23.0394 12.0444 23.0241 12.0583 23.0087C12.0727 22.9927 12.0872 22.9762 12.1011 22.96C12.1155 22.9434 12.1297 22.9267 12.1436 22.9098C12.158 22.8923 12.1722 22.8747 12.186 22.8569C12.2005 22.8384 12.2145 22.8196 12.2285 22.8008C12.2429 22.7812 12.257 22.7614 12.2709 22.7416C12.2854 22.7209 12.2995 22.7 12.3134 22.679C12.3278 22.657 12.342 22.6348 12.3558 22.6124C12.3703 22.5888 12.3845 22.5651 12.3983 22.5412C12.4128 22.5158 12.427 22.4902 12.4407 22.4645C12.4554 22.4369 12.4695 22.4092 12.4832 22.3813C12.4979 22.3512 12.512 22.3209 12.5256 22.2904C12.5404 22.2573 12.5546 22.2239 12.5681 22.1902C12.5829 22.1531 12.5971 22.1156 12.6105 22.0778C12.6256 22.035 12.6397 21.9917 12.6529 21.948C12.6684 21.897 12.6825 21.8455 12.6954 21.7935C12.7114 21.7289 12.7256 21.6636 12.7378 21.5976C12.756 21.4993 12.77 21.3995 12.7803 21.2984C12.7945 21.1573 12.8015 21.0137 12.8015 20.8679V15.8475H9.01274V20.8679C9.01274 20.9465 9.00925 21.0238 9.00245 21.0996C8.99378 21.1962 8.97958 21.2904 8.96001 21.382C8.94793 21.4386 8.93376 21.4941 8.91758 21.5486C8.90468 21.592 8.89059 21.6347 8.87511 21.6767C8.86193 21.7125 8.84773 21.7476 8.83268 21.7823C8.81925 21.8133 8.80512 21.8437 8.79021 21.8738C8.77664 21.9011 8.76258 21.9281 8.74778 21.9547C8.73417 21.9791 8.71993 22.0031 8.70534 22.0268C8.69163 22.0492 8.6775 22.0712 8.66288 22.0929C8.64913 22.1133 8.63496 22.1333 8.62044 22.1531C8.60663 22.172 8.59256 22.1907 8.57801 22.2091C8.56419 22.2265 8.54999 22.2436 8.53554 22.2606C8.52169 22.2768 8.50756 22.2928 8.49311 22.3087C8.47922 22.3239 8.46509 22.3389 8.45064 22.3537C8.43672 22.368 8.42262 22.3821 8.4082 22.396C8.39428 22.4094 8.38015 22.4227 8.36577 22.4357C8.35185 22.4483 8.33765 22.4606 8.3233 22.4729C8.30938 22.4848 8.29521 22.4965 8.28087 22.508C8.26691 22.5192 8.25271 22.5303 8.2384 22.5412C8.22444 22.5518 8.21027 22.5622 8.19597 22.5726C8.18197 22.5826 8.16784 22.5925 8.15353 22.6022C8.13954 22.6117 8.12541 22.6211 8.11106 22.6303C8.09707 22.6393 8.08294 22.6482 8.06863 22.6569C8.05464 22.6654 8.04047 22.6738 8.02616 22.682C8.01217 22.6901 7.998 22.698 7.98373 22.7058C7.96974 22.7135 7.95557 22.7209 7.94129 22.7283C7.92727 22.7356 7.91313 22.7427 7.89883 22.7497C7.8848 22.7565 7.87067 22.7633 7.85639 22.7699C7.84233 22.7764 7.82823 22.7829 7.81392 22.7892L7.79276 22.7984L7.77149 22.8073C7.7575 22.8132 7.74329 22.8188 7.72906 22.8243C7.71503 22.8298 7.70083 22.8352 7.68659 22.8405C7.67252 22.8457 7.65843 22.8508 7.64415 22.8557C7.63009 22.8607 7.61596 22.8655 7.60168 22.8702C7.58766 22.8748 7.57349 22.8793 7.55925 22.8837C7.54522 22.888 7.53102 22.8922 7.51682 22.8963C7.50276 22.9004 7.48859 22.9044 7.47435 22.9082L7.46982 22.9095C7.45732 22.9129 7.44454 22.9163 7.43192 22.9195C7.41785 22.9231 7.40369 22.9265 7.38945 22.9298C7.37542 22.9332 7.36125 22.9364 7.34701 22.9395C7.33295 22.9425 7.31882 22.9456 7.30458 22.9485C7.29048 22.9514 7.27638 22.9542 7.26211 22.9568C7.24805 22.9595 7.23388 22.9619 7.21968 22.9644C7.20558 22.9668 7.19145 22.9692 7.17721 22.9715L7.13478 22.9779C7.12071 22.9799 7.10654 22.9817 7.09234 22.9835C7.07824 22.9854 7.06415 22.9872 7.04987 22.9888L7.00744 22.9934L6.97123 22.9968L6.96501 22.9974L6.95897 22.9979C6.94685 22.999 6.93475 23.0001 6.92254 23.001C6.90847 23.0021 6.89431 23.003 6.8801 23.0039C6.86601 23.0048 6.85184 23.0055 6.83763 23.0063C6.82378 23.007 6.80916 23.0077 6.7952 23.0083L6.76551 23.0092L6.75277 23.0096L6.7103 23.0105L6.67486 23.0109L6.66787 23.0109L6.6519 23.0111L6.6254 23.011L6.58296 23.0107L6.54053 23.0101L6.49806 23.0093L6.45563 23.0081L6.41316 23.0068L6.37073 23.0051L6.32829 23.0032L6.28582 23.001L6.24339 22.9986L6.20092 22.9959L6.15849 22.9929L6.11605 22.9897L6.07359 22.9862L6.03115 22.9824L5.98868 22.9784L5.94625 22.9742L5.90382 22.9697L5.86135 22.9649L5.81891 22.9599L5.77648 22.9546L5.73401 22.9491L5.69158 22.9433L5.64911 22.9372L5.60668 22.931L5.56424 22.9245L5.52177 22.9177L5.47934 22.9107L5.43687 22.9035L5.39444 22.8959L5.352 22.8882L5.30954 22.8802L5.2671 22.872L5.22463 22.8636L5.1822 22.8549L5.13977 22.846L5.0973 22.8368L5.05486 22.8274L5.0124 22.8178L4.96996 22.8079L4.92753 22.7978L4.88506 22.7875L4.84263 22.777L4.80016 22.7662L4.75772 22.7551L4.71529 22.744L4.67282 22.7325L4.63039 22.7208L4.58795 22.7089L4.54549 22.6969L4.50305 22.6845L4.46058 22.6719L4.41815 22.6592L4.37572 22.6461L4.33325 22.6329L4.29081 22.6195L4.24835 22.6059L4.20591 22.592L4.16348 22.578L4.12101 22.5637L4.07858 22.5493L4.03611 22.5345L3.99367 22.5196L3.95124 22.5046L3.90877 22.4892L3.86634 22.4737L3.82387 22.458L3.78144 22.4421L3.739 22.426L3.69653 22.4097L3.6541 22.3932L3.61163 22.3765L3.5692 22.3596L3.52676 22.3425L3.4843 22.3252L3.44186 22.3077L3.39939 22.29L3.35696 22.2721L3.31453 22.2541L3.27206 22.2358L3.22962 22.2174L3.18719 22.1988L3.14472 22.18L3.10229 22.161L3.05982 22.1418L3.01739 22.1225L2.97495 22.1029L2.93248 22.0832Z" fill="black"/>
<path d="M29.3709 20.5336H31.9367L31.9438 20.5338L31.9615 20.5344L31.9863 20.5355C32 20.5362 32.0143 20.5372 32.0288 20.5382C32.0428 20.5392 32.0571 20.5404 32.0714 20.5417C32.0857 20.543 32.0999 20.5444 32.1139 20.5459C32.1285 20.5475 32.1428 20.5492 32.1564 20.551C32.1716 20.553 32.186 20.5551 32.1989 20.5573C32.2044 20.5582 32.2096 20.5591 32.2145 20.56C32.218 20.5607 32.2214 20.5614 32.2246 20.562L32.2414 20.5658C32.2557 20.569 32.2698 20.5726 32.2839 20.5764C32.2982 20.5803 32.3124 20.5844 32.3265 20.5888C32.3408 20.5933 32.3549 20.598 32.369 20.603C32.3833 20.6081 32.3974 20.6135 32.4115 20.6191C32.4258 20.6249 32.44 20.6309 32.454 20.6372C32.4683 20.6437 32.4825 20.6503 32.4965 20.6574C32.5108 20.6645 32.525 20.672 32.539 20.6797C32.546 20.6836 32.553 20.6875 32.5599 20.6916C32.5672 20.6958 32.5744 20.7001 32.5816 20.7045C32.5959 20.7133 32.6101 20.7223 32.6241 20.7318C32.6385 20.7415 32.6527 20.7514 32.6666 20.7617C32.681 20.7724 32.6952 20.7835 32.7091 20.7949C32.7236 20.8067 32.7377 20.8189 32.7516 20.8314C32.7661 20.8446 32.7804 20.858 32.7942 20.8718C32.8088 20.8864 32.8229 20.9014 32.8367 20.9168C32.8513 20.9332 32.8655 20.95 32.8792 20.9673C32.8939 20.9859 32.9081 21.005 32.9217 21.0246C32.9366 21.046 32.9508 21.068 32.9642 21.0906C32.9794 21.1161 32.9935 21.1424 33.0067 21.1693C33.0224 21.2012 33.0366 21.2341 33.0493 21.2679C33.0663 21.3134 33.0805 21.3605 33.0918 21.4091C33.1112 21.4934 33.1217 21.5822 33.1217 21.6749C33.1217 21.768 33.1113 21.8572 33.0918 21.9417C33.0805 21.9905 33.0663 22.0378 33.0493 22.0833C33.0366 22.1172 33.0224 22.1501 33.0067 22.1821C32.9935 22.2091 32.9794 22.2353 32.9642 22.2609C32.9508 22.2835 32.9366 22.3055 32.9217 22.327C32.9081 22.3466 32.8939 22.3657 32.8792 22.3843C32.8655 22.4015 32.8513 22.4183 32.8367 22.4347C32.8229 22.4501 32.8087 22.4651 32.7942 22.4797C32.7804 22.4935 32.7661 22.5069 32.7516 22.52C32.7377 22.5325 32.7236 22.5446 32.7091 22.5564C32.6952 22.5678 32.681 22.5788 32.6666 22.5895L32.6487 22.6024C32.6406 22.6081 32.6324 22.6138 32.6241 22.6194C32.6101 22.6287 32.5959 22.6378 32.5816 22.6465C32.5676 22.655 32.5534 22.6632 32.539 22.6711C32.525 22.6789 32.5109 22.6863 32.4965 22.6934C32.4825 22.7003 32.4683 22.707 32.454 22.7134C32.44 22.7197 32.4258 22.7256 32.4115 22.7313C32.3974 22.7369 32.3833 22.7423 32.369 22.7473C32.3549 22.7522 32.3408 22.7569 32.3265 22.7613C32.3124 22.7657 32.2982 22.7697 32.2839 22.7735C32.2698 22.7773 32.2557 22.7808 32.2414 22.784L32.2246 22.7877C32.2169 22.7894 32.2083 22.7911 32.1989 22.7927C32.186 22.795 32.1716 22.7971 32.1564 22.7992C32.1428 22.801 32.1285 22.8027 32.1139 22.8043C32.0999 22.8058 32.0857 22.8072 32.0714 22.8085C32.0571 22.8097 32.0428 22.8109 32.0288 22.8118C32.0143 22.8129 32 22.8138 31.9863 22.8145L31.9644 22.8155L31.9438 22.8161L31.921 22.8164H29.3709V20.5336Z" fill="black"/>
<path d="M32.7943 17.95C32.8114 18.0267 32.8206 18.1078 32.8206 18.1933C32.8206 18.2786 32.8114 18.3597 32.7943 18.4363C32.7833 18.4855 32.769 18.5327 32.7518 18.5781C32.7392 18.6112 32.7249 18.6432 32.7093 18.6741C32.6961 18.7 32.6819 18.7252 32.6668 18.7495C32.6533 18.7711 32.6391 18.792 32.6242 18.8122C32.6106 18.8307 32.5964 18.8487 32.5817 18.8661C32.568 18.8823 32.5539 18.898 32.5392 18.9133C32.5254 18.9276 32.5113 18.9415 32.4967 18.9549C32.4829 18.9677 32.4687 18.9802 32.4542 18.9922C32.4403 19.0037 32.4261 19.0148 32.4117 19.0255C32.3977 19.0359 32.3836 19.0459 32.3692 19.0556C32.3552 19.065 32.341 19.074 32.3266 19.0827C32.3126 19.0911 32.2985 19.0992 32.2841 19.107C32.2701 19.1146 32.256 19.122 32.2416 19.129L32.221 19.1388L32.1991 19.1486C32.185 19.1548 32.1709 19.1606 32.1566 19.1661C32.1425 19.1715 32.1283 19.1767 32.1141 19.1816C32.1 19.1864 32.0858 19.1909 32.0716 19.1952C32.0575 19.1993 32.0433 19.2033 32.029 19.2069C32.015 19.2105 32.0008 19.2138 31.9865 19.2169C31.9725 19.2199 31.9583 19.2226 31.944 19.2251L31.9337 19.227L31.9202 19.2291L31.9015 19.2316C31.8889 19.2331 31.8745 19.2348 31.859 19.2363C31.8455 19.2376 31.8312 19.2389 31.8165 19.2402L31.7954 19.2418L31.7739 19.2432C31.7597 19.2441 31.7453 19.2449 31.7314 19.2454C31.7167 19.246 31.7024 19.2464 31.6889 19.2465L31.6822 19.2465H29.3709V17.14H31.7068L31.7314 17.1408C31.7378 17.141 31.7443 17.1413 31.7508 17.1417C31.7585 17.1421 31.7662 17.1425 31.7739 17.143C31.7882 17.1439 31.8025 17.145 31.8165 17.1461C31.8312 17.1473 31.8455 17.1486 31.859 17.1499C31.8745 17.1513 31.8889 17.1528 31.9015 17.1543C31.9144 17.1557 31.9254 17.1571 31.9337 17.1582L31.944 17.1601C31.9583 17.1626 31.9725 17.1654 31.9865 17.1685C32.0008 17.1716 32.015 17.1749 32.029 17.1785C32.0433 17.1823 32.0575 17.1862 32.0716 17.1904C32.0858 17.1947 32.1 17.1992 32.1141 17.2041C32.1283 17.209 32.1425 17.2142 32.1566 17.2196C32.1709 17.2252 32.185 17.2311 32.1991 17.2372C32.2134 17.2435 32.2276 17.2501 32.2416 17.2569C32.256 17.2639 32.2701 17.2712 32.2841 17.2789C32.2985 17.2867 32.3126 17.2949 32.3266 17.3033C32.341 17.312 32.3552 17.321 32.3692 17.3304C32.3836 17.34 32.3977 17.3501 32.4117 17.3605C32.4261 17.3713 32.4403 17.3824 32.4542 17.3939C32.4687 17.4059 32.4829 17.4184 32.4967 17.4312C32.5113 17.4446 32.5254 17.4585 32.5392 17.4728C32.5539 17.4881 32.568 17.5038 32.5817 17.52C32.5964 17.5374 32.6106 17.5554 32.6242 17.5739C32.6391 17.5942 32.6533 17.615 32.6668 17.6366C32.6819 17.6609 32.6961 17.6861 32.7093 17.712C32.7249 17.7429 32.7392 17.775 32.7518 17.8081C32.769 17.8535 32.7833 17.9008 32.7943 17.95Z" fill="black"/>
<path d="M38.0843 7.02686L38.0843 28.6616C38.0843 28.7908 38.0782 28.9187 38.0669 29.045C38.0569 29.1563 38.0427 29.2663 38.0243 29.3749C38.012 29.4479 37.9978 29.5203 37.9818 29.592C37.9688 29.6503 37.9547 29.7083 37.9393 29.7657C37.926 29.8152 37.9118 29.8644 37.8968 29.9133C37.8832 29.9574 37.8692 30.0014 37.8543 30.045C37.8407 30.0845 37.8264 30.1237 37.8118 30.1627C37.7981 30.199 37.7838 30.2351 37.7692 30.2709C37.7555 30.3046 37.7413 30.338 37.7267 30.3713C37.7129 30.4028 37.6987 30.4341 37.6842 30.4652C37.6703 30.4949 37.6562 30.5244 37.6417 30.5536C37.6277 30.5816 37.6136 30.6096 37.5991 30.6373C37.5852 30.6638 37.571 30.6903 37.5566 30.7165C37.5427 30.7417 37.5285 30.7667 37.5141 30.7916C37.5056 30.8062 37.4971 30.8208 37.4884 30.8354C37.4828 30.8448 37.4772 30.8541 37.4716 30.8635C37.4576 30.8867 37.4434 30.9097 37.429 30.9326C37.415 30.9549 37.4009 30.9772 37.3865 30.9992C37.3725 31.0206 37.3583 31.0417 37.344 31.0628C37.33 31.0833 37.3158 31.1036 37.3015 31.1238C37.2874 31.1438 37.2733 31.1636 37.2589 31.1832C37.2449 31.2024 37.2308 31.2215 37.2164 31.2405C37.2024 31.259 37.1881 31.2772 37.1739 31.2955L37.1538 31.321L37.1314 31.3491C37.1173 31.3665 37.1032 31.3838 37.0888 31.4009C37.0778 31.4141 37.0667 31.4272 37.0555 31.4402L37.0463 31.451C37.0322 31.4674 37.0182 31.4838 37.0038 31.5C36.9898 31.5159 36.9755 31.5315 36.9613 31.5471L36.9427 31.5674L36.9187 31.5931C36.9046 31.6081 36.8906 31.6231 36.8762 31.6379C36.8622 31.6524 36.8479 31.6667 36.8337 31.6811L36.8253 31.6896C36.8194 31.6956 36.8135 31.7015 36.8076 31.7075C36.8021 31.7129 36.7967 31.7184 36.7912 31.7238C36.7771 31.7375 36.7629 31.751 36.7487 31.7645L36.7423 31.7706C36.7303 31.782 36.7183 31.7935 36.7061 31.8048L36.6828 31.8262L36.6636 31.8436C36.6544 31.8519 36.6452 31.8602 36.636 31.8684C36.631 31.8729 36.6261 31.8773 36.6211 31.8817C36.607 31.8941 36.5928 31.9064 36.5786 31.9187C36.5711 31.9251 36.5636 31.9315 36.5561 31.9379C36.5494 31.9435 36.5427 31.9491 36.536 31.9547C36.5219 31.9666 36.5078 31.9784 36.4935 31.99C36.4882 31.9944 36.4828 31.9988 36.4774 32.0031C36.4687 32.0101 36.46 32.017 36.4512 32.024C36.4371 32.0352 36.4228 32.0467 36.4085 32.0578L36.3813 32.0786L36.3588 32.0956C36.347 32.1045 36.3353 32.1134 36.3234 32.1222C36.3094 32.1325 36.2951 32.1427 36.2809 32.153L36.2618 32.1668L36.2384 32.1835C36.2277 32.191 36.2169 32.1983 36.2062 32.2057L36.1959 32.2127L36.1855 32.2198C36.1749 32.2271 36.164 32.2345 36.1533 32.2417C36.1427 32.2488 36.1319 32.2558 36.1212 32.2628L36.1108 32.2696C36.0967 32.2788 36.0826 32.288 36.0683 32.2971C36.0542 32.306 36.04 32.3148 36.0258 32.3236C36.0116 32.3324 35.9975 32.3411 35.9832 32.3497C35.9691 32.3582 35.955 32.3666 35.9407 32.375L35.8982 32.3997C35.8919 32.4033 35.8853 32.4071 35.879 32.4107C35.8713 32.4151 35.8635 32.4195 35.8557 32.4239L35.8212 32.4429L35.8131 32.4473C35.799 32.455 35.7849 32.4628 35.7706 32.4703L35.7525 32.4798L35.7281 32.4924C35.7139 32.4997 35.6998 32.5072 35.6856 32.5144C35.6767 32.5189 35.6677 32.5233 35.6587 32.5276L35.6431 32.5352C35.6289 32.5422 35.6148 32.5492 35.6005 32.556C35.5884 32.5617 35.5762 32.5674 35.5641 32.573L35.558 32.5758L35.5155 32.5953L35.473 32.6143L35.4626 32.6188L35.4304 32.6326C35.4163 32.6386 35.4022 32.6448 35.3879 32.6507C35.3788 32.6544 35.3697 32.6581 35.3605 32.6617L35.3454 32.6677L35.3304 32.6738L35.3029 32.6848L35.2871 32.6908L35.2603 32.7009C35.2462 32.7062 35.2321 32.7115 35.2178 32.7167L35.1753 32.7321L35.1636 32.7363L35.1328 32.7469C35.1278 32.7486 35.1228 32.7503 35.1179 32.752C35.1087 32.7552 35.0995 32.7585 35.0903 32.7615L35.063 32.7703L35.0477 32.7751L35.0052 32.7886L34.9692 32.7996L34.9627 32.8015L34.9202 32.8139L34.9075 32.8176L34.8776 32.8262L34.8492 32.8338L34.8351 32.8375C34.821 32.8412 34.8068 32.8451 34.7926 32.8488L34.7501 32.8593L34.7076 32.8695L34.665 32.8794L34.6373 32.8854L34.6225 32.8885L34.6098 32.8913L34.58 32.8976L34.5375 32.906L34.4759 32.9175L34.4524 32.9218L34.4252 32.9263L34.4099 32.9288L34.3674 32.9357L34.3248 32.9419L34.2823 32.9478C34.2681 32.9497 34.254 32.9518 34.2398 32.9536C34.2257 32.9554 34.2114 32.9568 34.1973 32.9584L34.1901 32.9592L34.1548 32.9632L34.1394 32.9648L34.1122 32.9676L34.0806 32.9703L34.0697 32.9713C34.0642 32.9717 34.0588 32.9722 34.0533 32.9727C34.0446 32.9735 34.0359 32.9743 34.0272 32.975C34.013 32.976 33.9988 32.9769 33.9847 32.9779L33.927 32.9814L33.8996 32.983L33.873 32.9841L33.8571 32.9846L33.8146 32.9862L33.772 32.9873L33.7459 32.9876L33.6782 32.9885H27.2168V24.1672H34.0497L34.1122 24.1667L34.1548 24.1659C34.169 24.1655 34.1832 24.1653 34.1973 24.1648L34.2325 24.1634L34.2398 24.1631L34.2823 24.1611L34.3248 24.1586L34.3674 24.1557L34.4099 24.1525L34.4524 24.1486L34.4604 24.1479L34.4949 24.1446C34.5019 24.1439 34.5088 24.1431 34.5157 24.1423C34.5208 24.1417 34.526 24.1412 34.5311 24.1406L34.5375 24.1398L34.58 24.1347L34.5928 24.1331L34.6225 24.1293L34.6544 24.1247L34.6719 24.1221L34.7076 24.1167L34.7501 24.1096L34.7926 24.1021L34.8056 24.0998L34.8351 24.0943L34.8584 24.0896L34.8776 24.0856L34.9202 24.0766C34.9344 24.0735 34.9486 24.0704 34.9627 24.0671C34.9751 24.0642 34.9874 24.0612 34.9997 24.0582L35.0052 24.0569C35.0194 24.0534 35.0336 24.0499 35.0477 24.0462C35.0619 24.0426 35.0762 24.0389 35.0903 24.035C35.1045 24.0312 35.1186 24.0272 35.1328 24.0231C35.147 24.0191 35.1612 24.0149 35.1753 24.0107L35.2178 23.9976C35.2231 23.996 35.2283 23.9943 35.2335 23.9927C35.2425 23.9898 35.2514 23.9868 35.2603 23.9839C35.2746 23.9791 35.2888 23.9744 35.3029 23.9696C35.3171 23.9646 35.3313 23.9597 35.3454 23.9546C35.3567 23.9506 35.3679 23.9463 35.3791 23.9421L35.3879 23.9388C35.4022 23.9334 35.4163 23.9279 35.4304 23.9223L35.4351 23.9205C35.4478 23.9154 35.4605 23.9104 35.473 23.9052L35.4939 23.8965L35.5155 23.8872C35.5298 23.8811 35.5439 23.8748 35.558 23.8684C35.5723 23.862 35.5865 23.8555 35.6005 23.8489C35.6148 23.8422 35.629 23.8355 35.6431 23.8286C35.6513 23.8245 35.6595 23.8204 35.6676 23.8163C35.6736 23.8133 35.6796 23.8103 35.6856 23.8072C35.6998 23.7999 35.714 23.7924 35.7281 23.7848C35.7424 23.7772 35.7566 23.7695 35.7706 23.7616C35.7801 23.7563 35.7895 23.751 35.7988 23.7457C35.8036 23.7429 35.8084 23.7401 35.8131 23.7374C35.8274 23.7291 35.8417 23.7207 35.8557 23.7121C35.87 23.7034 35.8841 23.6945 35.8982 23.6855C35.9068 23.68 35.9154 23.6745 35.9239 23.6689C35.9295 23.6652 35.9351 23.6615 35.9407 23.6578C35.955 23.6482 35.9692 23.6385 35.9832 23.6287L35.9998 23.6171L36.0258 23.5984C36.0401 23.5879 36.0543 23.5773 36.0683 23.5666C36.0826 23.5556 36.0968 23.5445 36.1108 23.5333C36.1252 23.5218 36.1393 23.5101 36.1533 23.4983C36.1677 23.4862 36.1819 23.4738 36.1959 23.4614C36.2102 23.4486 36.2244 23.4357 36.2384 23.4226C36.2448 23.4165 36.2513 23.4104 36.2576 23.4043C36.2655 23.3968 36.2732 23.3892 36.2809 23.3816C36.2897 23.3729 36.2983 23.3641 36.3069 23.3553C36.3125 23.3496 36.318 23.3439 36.3234 23.3381C36.3379 23.3229 36.352 23.3075 36.3659 23.292C36.3804 23.2758 36.3946 23.2594 36.4085 23.2429C36.423 23.2256 36.4371 23.2081 36.451 23.1904L36.4726 23.1623C36.4797 23.153 36.4867 23.1437 36.4935 23.1342C36.5082 23.114 36.5222 23.0935 36.536 23.0728C36.5507 23.0509 36.5649 23.0286 36.5786 23.0061C36.5933 22.9819 36.6075 22.9574 36.6211 22.9325C36.6359 22.9055 36.6502 22.8782 36.6636 22.8504C36.6787 22.8193 36.6928 22.7878 36.7061 22.7558C36.7214 22.7191 36.7357 22.6819 36.7487 22.644C36.7647 22.5974 36.7788 22.5498 36.7912 22.5014C36.8093 22.4306 36.8236 22.3579 36.8337 22.2835C36.846 22.1932 36.8525 22.1004 36.8525 22.005C36.8525 21.9121 36.8461 21.8219 36.8337 21.7343C36.8235 21.6624 36.8093 21.5922 36.7912 21.5239C36.7788 21.4774 36.7646 21.4317 36.7487 21.3869C36.7356 21.3502 36.7215 21.314 36.7061 21.2785C36.6928 21.2477 36.6786 21.2174 36.6636 21.1875C36.6501 21.1607 36.6359 21.1342 36.6211 21.1081C36.6074 21.0841 36.5933 21.0603 36.5786 21.037C36.5649 21.0153 36.5507 20.9939 36.536 20.9727C36.5223 20.9528 36.5081 20.933 36.4935 20.9136C36.4798 20.8952 36.4655 20.8772 36.451 20.8593C36.4371 20.8422 36.423 20.8254 36.4085 20.8087C36.3946 20.7927 36.3804 20.7769 36.3659 20.7613C36.352 20.7462 36.3379 20.7314 36.3234 20.7167C36.3095 20.7026 36.2953 20.6887 36.2809 20.6749C36.2669 20.6616 36.2527 20.6484 36.2384 20.6354C36.2244 20.6227 36.2102 20.6103 36.1959 20.5979L36.1791 20.5837L36.1533 20.5624C36.1393 20.5509 36.1252 20.5396 36.1108 20.5285L36.0923 20.5143L36.0683 20.4963C36.0542 20.4859 36.0401 20.4757 36.0258 20.4655L36.0089 20.4537L35.9832 20.4362C35.9692 20.4267 35.955 20.4174 35.9407 20.4081C35.9267 20.399 35.9125 20.3901 35.8982 20.3813C35.8841 20.3726 35.87 20.364 35.8557 20.3556C35.8417 20.3473 35.8275 20.3391 35.8131 20.3311L35.7914 20.319L35.7706 20.3076C35.7566 20.3 35.7424 20.2925 35.7281 20.2851C35.714 20.2778 35.6998 20.2706 35.6856 20.2635C35.6715 20.2565 35.6573 20.2495 35.6431 20.2427C35.629 20.236 35.6148 20.2293 35.6005 20.2228C35.5865 20.2163 35.5723 20.2101 35.558 20.2039C35.5507 20.2007 35.5434 20.1975 35.536 20.1943C35.5292 20.1914 35.5223 20.1885 35.5155 20.1856C35.5074 20.1823 35.4994 20.1789 35.4913 20.1756C35.4852 20.1731 35.4791 20.1706 35.473 20.1682C35.4588 20.1625 35.4447 20.1568 35.4304 20.1513C35.4163 20.1459 35.4022 20.1405 35.3879 20.1352C35.3738 20.1301 35.3596 20.125 35.3454 20.12C35.3313 20.115 35.3171 20.1102 35.3029 20.1053C35.295 20.1026 35.2871 20.1 35.2792 20.0974C35.273 20.0953 35.2667 20.0932 35.2603 20.0911L35.2436 20.0858L35.2178 20.0777C35.2038 20.0734 35.1895 20.0691 35.1753 20.0649L35.1328 20.0527C35.1186 20.0487 35.1045 20.0447 35.0903 20.0409C35.0831 20.039 35.0759 20.0371 35.0686 20.0353C35.0617 20.0335 35.0547 20.0317 35.0477 20.0299C35.0336 20.0263 35.0195 20.0229 35.0052 20.0194C34.9911 20.016 34.9769 20.0126 34.9627 20.0093C34.9555 20.0077 34.9484 20.0061 34.9412 20.0044C34.9342 20.0029 34.9272 20.0014 34.9202 19.9998C34.9061 19.9968 34.8919 19.9938 34.8776 19.9909C34.8636 19.988 34.8493 19.9851 34.8351 19.9824L34.7926 19.9744L34.7501 19.9669C34.736 19.9645 34.7218 19.9621 34.7076 19.9598L34.665 19.9532L34.6521 19.9514L34.6225 19.9472L34.58 19.9415L34.5375 19.9362L34.4949 19.9315L34.4524 19.9271L34.4099 19.9233L34.3674 19.9198L34.3281 19.9168L34.3281 19.8667L34.3674 19.8608L34.4099 19.8539C34.4241 19.8515 34.4383 19.8491 34.4524 19.8466L34.4949 19.8385C34.5092 19.8358 34.5234 19.8329 34.5375 19.8299L34.58 19.8208C34.5942 19.8177 34.6084 19.8145 34.6225 19.8112C34.629 19.8097 34.6354 19.8081 34.6418 19.8065C34.6495 19.8046 34.6572 19.8027 34.6649 19.8008C34.6792 19.7972 34.6935 19.7934 34.7076 19.7897C34.7218 19.7859 34.736 19.782 34.7501 19.778C34.7643 19.774 34.7785 19.77 34.7926 19.7658C34.8068 19.7615 34.8211 19.7572 34.8351 19.7528C34.8494 19.7483 34.8635 19.7436 34.8776 19.7389C34.8919 19.7342 34.9061 19.7293 34.9202 19.7244L34.9433 19.7162L34.9627 19.7092C34.977 19.7039 34.9912 19.6986 35.0052 19.6932C35.0195 19.6876 35.0337 19.682 35.0477 19.6763L35.0644 19.6695L35.0903 19.6586C35.1046 19.6524 35.1187 19.6462 35.1328 19.6399C35.1471 19.6335 35.1612 19.6269 35.1753 19.6203C35.1896 19.6135 35.2038 19.6066 35.2178 19.5997L35.2356 19.5908L35.2603 19.5781C35.2747 19.5706 35.2889 19.563 35.3029 19.5554C35.3172 19.5476 35.3314 19.5396 35.3454 19.5316L35.3607 19.5228L35.3879 19.5066C35.4023 19.498 35.4164 19.4893 35.4304 19.4804C35.4448 19.4714 35.459 19.4621 35.473 19.4528C35.4873 19.4433 35.5015 19.4336 35.5155 19.4239C35.5299 19.4138 35.544 19.4037 35.558 19.3934C35.5724 19.3828 35.5866 19.3722 35.6005 19.3613C35.6149 19.3502 35.6291 19.339 35.6431 19.3276C35.6526 19.3198 35.662 19.3119 35.6713 19.304C35.6761 19.3 35.6808 19.2959 35.6856 19.2918C35.7 19.2793 35.7141 19.2667 35.7281 19.2539C35.7425 19.2407 35.7567 19.2273 35.7706 19.2138C35.7851 19.1999 35.7993 19.1857 35.8131 19.1714C35.8276 19.1565 35.8418 19.1414 35.8557 19.1261C35.8702 19.1102 35.8843 19.094 35.8982 19.0777C35.9127 19.0606 35.9269 19.0433 35.9407 19.0259C35.9553 19.0074 35.9695 18.9887 35.9832 18.9698C35.9979 18.9498 36.012 18.9295 36.0258 18.909C36.0404 18.8871 36.0546 18.865 36.0683 18.8426C36.083 18.8184 36.0972 18.7938 36.1108 18.769C36.1257 18.7417 36.1399 18.7141 36.1533 18.6861C36.1684 18.6547 36.1826 18.6228 36.1959 18.5906C36.2113 18.5531 36.2255 18.5151 36.2384 18.4766C36.2546 18.4281 36.2688 18.3789 36.2809 18.3291C36.3005 18.2482 36.3147 18.1657 36.3234 18.0817C36.3304 18.0154 36.3339 17.9483 36.3339 17.8805C36.3339 17.8088 36.3303 17.739 36.3234 17.6709C36.3147 17.5839 36.3004 17.4999 36.2809 17.4187C36.2687 17.3681 36.2545 17.3185 36.2384 17.2702C36.2254 17.2315 36.2113 17.1936 36.1959 17.1565C36.1826 17.1244 36.1684 17.093 36.1533 17.0621C36.1399 17.0346 36.1257 17.0075 36.1108 16.9808C36.0972 16.9564 36.083 16.9324 36.0683 16.9087C36.0546 16.8867 36.0404 16.865 36.0258 16.8437C36.012 16.8238 35.9978 16.8041 35.9832 16.7847C35.9695 16.7664 35.9553 16.7483 35.9407 16.7304L35.9245 16.7108C35.9159 16.7004 35.9071 16.6901 35.8982 16.68C35.8843 16.6642 35.8701 16.6487 35.8557 16.6334C35.8418 16.6187 35.8276 16.6041 35.8131 16.5898C35.7992 16.5759 35.7851 16.5623 35.7706 16.5488C35.7626 16.5413 35.7545 16.5338 35.7464 16.5265C35.7403 16.521 35.7342 16.5156 35.7281 16.5102C35.7141 16.4979 35.6999 16.4857 35.6856 16.4738C35.6716 16.4621 35.6574 16.4506 35.6431 16.4393C35.6291 16.4283 35.6149 16.4174 35.6005 16.4067C35.5865 16.3963 35.5724 16.386 35.558 16.3758C35.544 16.3659 35.5298 16.3561 35.5155 16.3465C35.5015 16.3371 35.4873 16.3278 35.473 16.3186C35.459 16.3096 35.4447 16.3008 35.4304 16.292C35.4164 16.2835 35.4022 16.2751 35.3879 16.2668C35.3739 16.2586 35.3597 16.2506 35.3454 16.2426C35.3314 16.2349 35.3172 16.2272 35.3029 16.2196C35.2888 16.2122 35.2747 16.2049 35.2603 16.1977C35.2463 16.1906 35.2321 16.1836 35.2178 16.1767C35.2038 16.1699 35.1896 16.1632 35.1753 16.1566C35.1612 16.1502 35.147 16.1438 35.1328 16.1375C35.1187 16.1314 35.1045 16.1254 35.0903 16.1194C35.0762 16.1135 35.062 16.1078 35.0477 16.102L35.0277 16.0941L35.0052 16.0855C34.9911 16.0801 34.977 16.0748 34.9627 16.0696C34.9486 16.0644 34.9344 16.0594 34.9202 16.0545C34.9061 16.0496 34.8919 16.0449 34.8776 16.0401L34.8625 16.0352L34.8351 16.0265C34.821 16.0221 34.8069 16.0177 34.7926 16.0135C34.7785 16.0092 34.7644 16.005 34.7501 16.001C34.736 15.997 34.7218 15.9931 34.7076 15.9893C34.6935 15.9855 34.6793 15.9819 34.665 15.9782L34.6225 15.9676C34.617 15.9663 34.6114 15.9649 34.6058 15.9636C34.5972 15.9615 34.5886 15.9595 34.58 15.9576C34.5659 15.9543 34.5517 15.9512 34.5375 15.9482L34.4949 15.9393L34.4886 15.938C34.4766 15.9356 34.4645 15.9331 34.4524 15.9308C34.4418 15.9288 34.4311 15.9268 34.4204 15.9249L34.4099 15.923L34.3674 15.9157C34.3532 15.9134 34.3391 15.911 34.3248 15.9088L34.2823 15.9024L34.2398 15.8965L34.1973 15.891L34.1548 15.886L34.1122 15.8815L34.0697 15.8774L34.0272 15.8737L33.9847 15.8705L33.9421 15.8675L33.8827 15.8642L33.8571 15.8626L33.8146 15.8602L33.772 15.8578L33.7295 15.8557L33.687 15.8536L33.6445 15.8518L33.602 15.8503L33.5594 15.849L33.5169 15.8481L33.4744 15.8476L33.4509 15.8475H27.2168V11.3541C27.2168 11.0519 27.2485 10.7569 27.3085 10.4721C27.3214 10.4111 27.3356 10.3506 27.3511 10.2906C27.3643 10.2393 27.3785 10.1883 27.3936 10.1378C27.407 10.0926 27.4212 10.0477 27.4361 10.0032C27.4497 9.96247 27.4638 9.92197 27.4786 9.88182C27.4923 9.84458 27.5064 9.80754 27.5212 9.77078C27.5349 9.73644 27.5491 9.70228 27.5637 9.66839C27.5775 9.6364 27.5917 9.60456 27.6062 9.57296C27.62 9.54295 27.6343 9.51314 27.6487 9.48351C27.6626 9.45523 27.6768 9.42716 27.6913 9.39923C27.7051 9.37237 27.7194 9.34571 27.7338 9.31916C27.7477 9.29358 27.7619 9.26818 27.7763 9.24291C27.7903 9.2184 27.8044 9.1941 27.8188 9.16991C27.8328 9.14644 27.8469 9.12307 27.8613 9.09992C27.8753 9.07745 27.8895 9.05516 27.9039 9.03297C27.9178 9.01148 27.9321 8.99019 27.9464 8.96897C27.9604 8.9482 27.9745 8.9275 27.9889 8.90697L27.9915 8.9033C28.0047 8.88442 28.0179 8.86554 28.0314 8.84688C28.0454 8.82764 28.0597 8.80863 28.074 8.78963C28.088 8.77094 28.1022 8.75239 28.1165 8.73394L28.1238 8.72451C28.1355 8.70947 28.1471 8.69442 28.159 8.67959C28.1704 8.66544 28.1819 8.65147 28.1935 8.63749L28.2015 8.62774C28.2156 8.61074 28.2297 8.59389 28.2441 8.57713C28.2582 8.56059 28.2722 8.54404 28.2866 8.5277C28.2983 8.51434 28.3103 8.50116 28.3222 8.48798L28.3362 8.47254C28.348 8.45958 28.3597 8.44664 28.3716 8.43386C28.3857 8.41881 28.3999 8.40389 28.4141 8.389C28.4282 8.37433 28.4424 8.35975 28.4567 8.34525C28.4708 8.33096 28.4849 8.31666 28.4992 8.30254C28.5132 8.28866 28.5275 8.27498 28.5417 8.26131L28.5531 8.25033C28.5634 8.24038 28.5738 8.23035 28.5842 8.22057C28.5941 8.21131 28.6042 8.2022 28.6142 8.1931L28.6268 8.1817L28.633 8.176C28.6451 8.16502 28.6571 8.15404 28.6693 8.14321C28.6813 8.13255 28.6934 8.12206 28.7055 8.11158L28.7118 8.10617C28.7259 8.09395 28.7401 8.08173 28.7543 8.06969C28.7684 8.05781 28.7826 8.04611 28.7969 8.03441C28.811 8.02282 28.8251 8.01126 28.8394 7.99983C28.8535 7.98851 28.8677 7.97733 28.8819 7.96622L28.9244 7.93337L28.9669 7.90139C28.9811 7.8909 28.9952 7.88048 29.0095 7.87017C29.0236 7.85996 29.0377 7.84978 29.052 7.83971L29.0945 7.81004C29.1086 7.80032 29.1228 7.79066 29.137 7.7811L29.1796 7.75282L29.2221 7.72531C29.2362 7.71627 29.2504 7.70727 29.2646 7.69841L29.3071 7.67231L29.3129 7.66879C29.3252 7.66134 29.3374 7.65392 29.3497 7.64663C29.3607 7.64004 29.3719 7.63361 29.3831 7.62718L29.3922 7.62191L29.4034 7.61541C29.4138 7.60936 29.4242 7.60332 29.4347 7.59741C29.4439 7.5922 29.4533 7.58712 29.4626 7.58204L29.4772 7.57404L29.4907 7.56662C29.5003 7.56127 29.51 7.55591 29.5197 7.55071L29.5485 7.53567L29.5623 7.52856L29.5717 7.52362L29.6048 7.50654C29.6166 7.50052 29.6286 7.49464 29.6405 7.48876L29.6509 7.48365L29.6898 7.46466L29.7324 7.44448L29.7687 7.42776L29.7879 7.419L29.8174 7.40568L29.8453 7.39364L29.8599 7.3874L29.873 7.38177L29.9024 7.36916L29.9304 7.35778L29.945 7.35192L29.9542 7.3482L29.9875 7.33485L30.03 7.31841L30.0725 7.30253L30.0839 7.29829L30.1151 7.28684L30.1425 7.27731L30.1576 7.27213L30.1715 7.2673L30.2001 7.25742L30.2284 7.24819L30.2426 7.24361L30.2852 7.23008L30.2929 7.22765L30.3277 7.21689L30.3572 7.20826L30.3702 7.2045L30.3831 7.2007C30.3929 7.19778 30.4028 7.19484 30.4127 7.19207L30.4411 7.18442L30.4552 7.18065L30.4628 7.17862L30.4978 7.16933L30.5403 7.15853L30.5763 7.14988L30.5828 7.14835L30.5992 7.14441C30.6079 7.14228 30.6166 7.14016 30.6253 7.13818L30.6515 7.13249L30.7104 7.1199L30.7529 7.11128L30.7872 7.10481L30.7954 7.10328L30.8109 7.10033L30.838 7.09525C30.8471 7.09362 30.8562 7.09215 30.8654 7.09068L30.923 7.0813L30.9334 7.07967L30.9655 7.07473L30.9953 7.07061L31.008 7.06888L31.0234 7.06673L31.0506 7.06303L31.0823 7.05923L31.0931 7.05797L31.1356 7.0532L31.1508 7.05152L31.1781 7.04859L31.2054 7.04619L31.2207 7.04489L31.2632 7.04119L31.3057 7.03804L31.3375 7.03602L31.3482 7.03537L31.3656 7.03427L31.3908 7.03274L31.4181 7.0316L31.4333 7.03101L31.4758 7.02945L31.4901 7.02897L31.5183 7.0281L31.5445 7.02774L31.5608 7.02755L31.5679 7.02744L31.6034 7.02703L31.6141 7.02689L38.0843 7.02686Z" fill="black"/>
<path d="M15.0308 17.0194C15.0605 16.9943 15.091 16.9696 15.1219 16.945C15.1359 16.9338 15.1501 16.9228 15.1643 16.9118C15.1784 16.9009 15.1925 16.8901 15.2068 16.8793C15.2209 16.8687 15.235 16.8581 15.2493 16.8476C15.261 16.839 15.2729 16.8304 15.2848 16.8219L15.2917 16.817C15.3057 16.8069 15.3199 16.7969 15.3342 16.787C15.3482 16.7772 15.3623 16.7674 15.3766 16.7576L15.419 16.729C15.4311 16.721 15.4434 16.7131 15.4556 16.7051L15.4615 16.7013L15.5039 16.674C15.518 16.6652 15.5321 16.6562 15.5464 16.6474C15.5593 16.6394 15.5723 16.6316 15.5854 16.6237L15.5888 16.6216C15.6029 16.6131 15.617 16.6046 15.6313 16.5962C15.6454 16.5879 15.6595 16.5795 15.6738 16.5713C15.686 16.5643 15.6984 16.5573 15.7108 16.5503L15.7162 16.5473C15.7303 16.5393 15.7444 16.5314 15.7587 16.5235L15.8011 16.5005L15.8436 16.4779L15.8509 16.474C15.8626 16.4678 15.8742 16.4617 15.886 16.4556C15.9 16.4484 15.9143 16.4413 15.9285 16.4341L15.9709 16.4129L16.0134 16.3922L16.0558 16.372C16.0699 16.3654 16.084 16.3587 16.0983 16.3521L16.1407 16.3329L16.1832 16.3138L16.2256 16.2953L16.268 16.2771L16.3105 16.2593L16.3529 16.2419L16.3954 16.2248L16.4378 16.2082L16.4803 16.1917C16.4895 16.1882 16.4988 16.1847 16.5081 16.1813C16.513 16.1795 16.5179 16.1777 16.5227 16.1758L16.5652 16.16C16.5792 16.1549 16.5934 16.1499 16.6076 16.1448C16.6124 16.1431 16.6172 16.1414 16.622 16.1397C16.6313 16.1363 16.6406 16.1329 16.6501 16.1296L16.735 16.1006C16.7446 16.0973 16.7543 16.0941 16.7641 16.091C16.7685 16.0895 16.773 16.0881 16.7774 16.0866L16.8198 16.0727C16.8289 16.0697 16.8381 16.0669 16.8473 16.064C16.8523 16.0624 16.8573 16.0609 16.8623 16.0593L16.9047 16.0459L16.9472 16.0331L16.9896 16.0203L17.0321 16.008L17.0745 15.9958L17.117 15.984L17.1595 15.9723L17.2019 15.961L17.2444 15.9498L17.2868 15.9389L17.3293 15.9282L17.3717 15.9178L17.4566 15.8975L17.5415 15.8783L17.584 15.8691L17.6264 15.86L17.6689 15.851L17.7537 15.8338L17.8386 15.8175L17.8811 15.8096L17.9235 15.8019L17.966 15.7943L18.0509 15.7798L18.0933 15.7729L18.1358 15.766L18.1782 15.7593L18.2631 15.7466L18.3056 15.7405L18.3905 15.7287L18.4754 15.7177L18.5179 15.7124L18.6028 15.7021L18.6452 15.6974L18.7301 15.688L18.815 15.6794L18.8574 15.6752L18.9423 15.6674L18.9848 15.6637L19.0697 15.6567L19.1121 15.6534L19.197 15.6471L19.3244 15.6387L19.4517 15.6315L19.5791 15.6253L19.7064 15.6202L19.8338 15.6161L19.9611 15.613L20.0885 15.6108L20.2158 15.6096L20.2583 15.6095L20.3432 15.6093L20.3856 15.6094L20.4705 15.6099L20.513 15.6102L20.6403 15.6119L20.7677 15.6145L20.8101 15.6155L20.895 15.6179L20.9375 15.6191L21.0648 15.6234L21.2129 15.6295L21.2346 15.6305L21.2771 15.6325L21.3195 15.6347L21.362 15.637L21.4469 15.642L21.5318 15.6476L21.6167 15.6538L21.6591 15.657L21.7016 15.6604L21.744 15.664L21.7865 15.6676L21.8289 15.6714L21.8714 15.6753L21.9138 15.6793L21.9987 15.6876L22.0836 15.6965L22.1261 15.7011L22.1685 15.7057L22.211 15.7106L22.2534 15.7154L22.2959 15.7204L22.3383 15.7255L22.3808 15.7308L22.4656 15.7415L22.5081 15.747L22.5506 15.7526L22.593 15.7583L22.6355 15.7641L22.6779 15.77L22.7204 15.776L22.7628 15.782L22.8053 15.7882L22.8477 15.7945L22.8902 15.8008L22.9751 15.8138L23.06 15.8271L23.1024 15.8339L23.1449 15.8408L23.1873 15.8478L23.2722 15.8619L23.3147 15.8692L23.3571 15.8765L23.3996 15.8838L23.442 15.8913L23.4845 15.8989L23.5269 15.9065L23.5693 15.9142L23.6118 15.922L23.6542 15.9298L23.6967 15.9378L23.7391 15.9458L23.824 15.9622L23.8665 15.9704L23.909 15.9788L23.9514 15.9873L23.9939 15.9958L24.0363 16.0044L24.0788 16.0131L24.1212 16.0219L24.2061 16.0397L24.2486 16.0488L24.3334 16.0672L24.3759 16.0765L24.4183 16.0859L24.4608 16.0955L24.5033 16.1051L24.5457 16.1149L24.5882 16.1248L24.6306 16.1349L24.6728 16.1451V17.9768L24.6306 17.9559L24.5882 17.9351L24.5457 17.9145L24.5033 17.8941L24.4608 17.8739L24.4183 17.8539L24.3759 17.8341L24.3334 17.8145L24.291 17.7951L24.2486 17.7759L24.2061 17.7569L24.1637 17.7382L24.1212 17.7197L24.0788 17.7014L24.0363 17.6833L23.9939 17.6654L23.9514 17.6478L23.909 17.6304L23.8665 17.6132L23.824 17.5963L23.7816 17.5796L23.7391 17.5632L23.6967 17.547L23.6542 17.531L23.6118 17.5152L23.5693 17.4997L23.5269 17.4845L23.4845 17.4695L23.442 17.4547L23.3996 17.4402L23.3571 17.4259L23.3147 17.4119L23.2722 17.398L23.2298 17.3845L23.1873 17.3711L23.1449 17.3581L23.1024 17.3453L23.06 17.3327L23.0175 17.3203L22.9751 17.3082L22.9326 17.2964L22.8902 17.2847L22.8477 17.2734L22.8053 17.2623L22.7628 17.2513L22.7204 17.2407L22.6779 17.2303L22.6355 17.2201L22.593 17.2102L22.5506 17.2005L22.5081 17.191L22.4656 17.1818L22.4232 17.1728L22.3808 17.1641L22.3383 17.1555L22.2959 17.1473L22.2534 17.1392L22.211 17.1314L22.1685 17.1238L22.1261 17.1165L22.0836 17.1093L22.0412 17.1024L21.9987 17.0958L21.9563 17.0893L21.9138 17.0831L21.8714 17.0771L21.8289 17.0713L21.7865 17.0658L21.744 17.0605L21.7016 17.0554L21.6591 17.0505L21.6167 17.0458L21.5742 17.0414L21.5318 17.0371L21.4893 17.0331L21.4469 17.0293L21.4044 17.0257L21.3362 17.0204L21.2346 17.0137L21.1922 17.0115L21.1497 17.0094L21.1073 17.0074L21.0224 17.0047L20.9799 17.0038L20.9375 17.0032L20.895 17.0027C20.886 17.0026 20.877 17.0027 20.868 17.0027C20.8629 17.0028 20.8577 17.0028 20.8526 17.0028L20.8101 17.003L20.7677 17.0036L20.7252 17.0045L20.6828 17.0056C20.6685 17.006 20.6545 17.0067 20.6403 17.0072C20.6361 17.0074 20.6318 17.0076 20.6275 17.0077C20.6176 17.0081 20.6077 17.0085 20.5979 17.0089L20.5554 17.0113L20.513 17.0138L20.4705 17.0166L20.4281 17.0199C20.423 17.0204 20.418 17.0207 20.4129 17.0211C20.4038 17.0218 20.3947 17.0225 20.3856 17.0233C20.3766 17.0242 20.3677 17.0251 20.3587 17.026C20.3535 17.0265 20.3484 17.027 20.3432 17.0275L20.3007 17.0317L20.2583 17.0366L20.2158 17.0416L20.1734 17.0471L20.1309 17.0531L20.0885 17.0593C20.0777 17.0609 20.067 17.0627 20.0563 17.0645C20.0529 17.065 20.0495 17.0656 20.046 17.0662C20.041 17.067 20.0359 17.0678 20.0308 17.0686C20.0217 17.0701 20.0126 17.0715 20.0036 17.0731C19.9893 17.0756 19.9753 17.0783 19.9611 17.0809C19.9564 17.0818 19.9516 17.0826 19.9468 17.0835C19.9374 17.0852 19.928 17.0869 19.9187 17.0887C19.9044 17.0915 19.8904 17.0945 19.8763 17.0974C19.8726 17.0982 19.869 17.0989 19.8653 17.0997C19.8548 17.1018 19.8442 17.1039 19.8338 17.1062C19.8195 17.1093 19.8054 17.1126 19.7914 17.1158L19.7489 17.1256C19.7378 17.1282 19.7269 17.131 19.7159 17.1337L19.7004 17.1376C19.6882 17.1407 19.676 17.1437 19.664 17.1469C19.659 17.1482 19.654 17.1496 19.649 17.1509C19.6398 17.1534 19.6307 17.156 19.6215 17.1585L19.5791 17.1704C19.5648 17.1745 19.5507 17.1787 19.5366 17.183C19.5224 17.1873 19.5083 17.1916 19.4942 17.196C19.48 17.2005 19.4658 17.2051 19.4517 17.2098L19.4476 17.2111C19.4348 17.2154 19.422 17.2196 19.4093 17.2239C19.395 17.2288 19.381 17.2339 19.3668 17.239C19.3633 17.2403 19.3597 17.2415 19.3562 17.2428C19.3455 17.2466 19.3349 17.2504 19.3244 17.2543C19.3126 17.2587 19.301 17.2632 19.2894 17.2678L19.2819 17.2707C19.2787 17.272 19.2754 17.2732 19.2722 17.2745C19.2612 17.2787 19.2503 17.2829 19.2395 17.2873C19.2252 17.2931 19.2112 17.2991 19.197 17.3051C19.1828 17.3111 19.1686 17.317 19.1546 17.3232C19.1466 17.3267 19.1386 17.3303 19.1307 17.3339C19.1245 17.3367 19.1183 17.3396 19.1121 17.3424C19.0979 17.3489 19.0837 17.3554 19.0697 17.3621C19.0555 17.3689 19.0413 17.3758 19.0272 17.3827C19.013 17.3898 18.9989 17.3969 18.9848 17.4042L18.9782 17.4076C18.9662 17.4137 18.9541 17.4199 18.9423 17.4263C18.928 17.4339 18.914 17.4418 18.8999 17.4497L18.8942 17.4528C18.8819 17.4597 18.8696 17.4666 18.8574 17.4736C18.8481 17.479 18.8388 17.4845 18.8296 17.49C18.8247 17.4929 18.8198 17.4958 18.815 17.4988C18.8007 17.5074 18.7866 17.5161 18.7726 17.5249C18.7584 17.5338 18.744 17.5427 18.7301 17.5518C18.7187 17.5593 18.7075 17.5669 18.6963 17.5746C18.6934 17.5765 18.6905 17.5785 18.6877 17.5804C18.6734 17.5902 18.6592 17.5999 18.6452 17.6099C18.6309 17.62 18.6167 17.63 18.6028 17.6403C18.5884 17.6509 18.5743 17.6618 18.5603 17.6726C18.546 17.6836 18.5319 17.6948 18.5179 17.706L18.5134 17.7096C18.5006 17.7198 18.4879 17.7301 18.4754 17.7406C18.4611 17.7526 18.4471 17.7648 18.4332 17.7771C18.4188 17.7896 18.4045 17.8026 18.3905 17.8155C18.3762 17.8286 18.362 17.8418 18.348 17.8552C18.3338 17.8689 18.3195 17.8826 18.3056 17.8967C18.2912 17.9111 18.2771 17.9259 18.2631 17.9407C18.2488 17.9559 18.2347 17.9714 18.2207 17.9869C18.2063 18.0029 18.1922 18.0191 18.1782 18.0355C18.1639 18.0523 18.1497 18.0693 18.1358 18.0865C18.1214 18.1043 18.1072 18.1223 18.0933 18.1405C18.079 18.1594 18.0648 18.1784 18.0509 18.1976C18.0365 18.2177 18.0223 18.238 18.0084 18.2585C17.994 18.2799 17.9799 18.3016 17.966 18.3235C17.9515 18.3465 17.9374 18.3698 17.9235 18.3933C17.909 18.4181 17.8949 18.4433 17.8811 18.4686C17.8665 18.4955 17.8524 18.5228 17.8386 18.5504C17.824 18.5798 17.8098 18.6095 17.7962 18.6396C17.7815 18.672 17.7673 18.7047 17.7537 18.738C17.7388 18.7747 17.7248 18.8122 17.7113 18.85C17.6963 18.8919 17.6821 18.9344 17.6689 18.9776C17.6535 19.0278 17.6393 19.0787 17.6264 19.1305C17.6103 19.1949 17.5963 19.2608 17.584 19.3278C17.5657 19.4272 17.5514 19.5294 17.5415 19.6343C17.5301 19.7555 17.5242 19.8804 17.5242 20.0088C17.5242 20.1372 17.5301 20.262 17.5415 20.3831C17.5514 20.488 17.5657 20.5901 17.584 20.6895C17.5963 20.7565 17.6103 20.8223 17.6264 20.8867C17.6393 20.9385 17.6535 20.9894 17.6689 21.0395C17.6821 21.0827 17.6963 21.1251 17.7113 21.167C17.7248 21.2048 17.7388 21.2423 17.7537 21.279C17.7673 21.3122 17.7815 21.3449 17.7962 21.3773C17.8098 21.4074 17.824 21.4371 17.8386 21.4665C17.8524 21.494 17.8665 21.5213 17.8811 21.5482C17.8949 21.5736 17.909 21.5987 17.9235 21.6235C17.9374 21.647 17.9515 21.6703 17.966 21.6932C17.9799 21.7152 17.994 21.7368 18.0084 21.7583C18.0223 21.7788 18.0365 21.799 18.0509 21.8191C18.0648 21.8384 18.079 21.8574 18.0933 21.8762C18.1072 21.8944 18.1214 21.9124 18.1358 21.9302C18.1497 21.9474 18.1639 21.9644 18.1782 21.9812C18.1922 21.9975 18.2063 22.0137 18.2207 22.0297C18.2347 22.0452 18.2488 22.0606 18.2631 22.0758C18.2771 22.0907 18.2912 22.1054 18.3056 22.1199C18.3195 22.1339 18.3338 22.1476 18.348 22.1613C18.362 22.1747 18.3762 22.188 18.3905 22.2011C18.4045 22.214 18.4186 22.2267 18.433 22.2393C18.447 22.2516 18.461 22.2639 18.4754 22.2759C18.4874 22.286 18.4996 22.2958 18.5119 22.3057L18.5179 22.3105C18.5319 22.3217 18.546 22.3328 18.5603 22.3438C18.5743 22.3547 18.5884 22.3655 18.6028 22.3761C18.6167 22.3864 18.6309 22.3964 18.6451 22.4065C18.6591 22.4164 18.6734 22.4263 18.6877 22.436C18.6905 22.438 18.6934 22.4399 18.6963 22.4419C18.7075 22.4495 18.7187 22.4572 18.7301 22.4646C18.7415 22.4721 18.7532 22.4794 18.7649 22.4866L18.7726 22.4915C18.7866 22.5002 18.8007 22.509 18.815 22.5176C18.8291 22.5261 18.8432 22.5345 18.8574 22.5428C18.8696 22.5498 18.8819 22.5567 18.8942 22.5636L18.9066 22.5705C18.9184 22.5771 18.9303 22.5837 18.9423 22.5901C18.9514 22.595 18.9605 22.5997 18.9697 22.6044C18.9747 22.607 18.9798 22.6096 18.9848 22.6122C18.9958 22.6178 19.0068 22.6234 19.0179 22.629C19.021 22.6305 19.0241 22.6321 19.0272 22.6337C19.0413 22.6406 19.0555 22.6475 19.0697 22.6543C19.0837 22.6609 19.0979 22.6674 19.1121 22.6739C19.1175 22.6764 19.1229 22.6789 19.1283 22.6813C19.137 22.6853 19.1457 22.6893 19.1546 22.6932C19.1686 22.6993 19.1828 22.7052 19.197 22.7112C19.2014 22.7131 19.2058 22.7149 19.2102 22.7168C19.2199 22.7209 19.2296 22.725 19.2395 22.729C19.2535 22.7347 19.2678 22.7401 19.2819 22.7456C19.2961 22.7511 19.3101 22.7566 19.3244 22.762C19.3349 22.7659 19.3455 22.7697 19.3561 22.7734C19.3597 22.7747 19.3633 22.776 19.3668 22.7773L19.3744 22.78C19.386 22.7842 19.3976 22.7883 19.4093 22.7923C19.422 22.7967 19.4348 22.8009 19.4476 22.8051L19.4517 22.8065C19.4658 22.8111 19.48 22.8158 19.4942 22.8203C19.5019 22.8227 19.5097 22.8251 19.5175 22.8275C19.5239 22.8294 19.5303 22.8313 19.5366 22.8333C19.5505 22.8375 19.5651 22.8419 19.5791 22.8459C19.5931 22.85 19.6073 22.8539 19.6214 22.8578L19.6271 22.8594C19.6394 22.8627 19.6516 22.8661 19.664 22.8693C19.6762 22.8726 19.6884 22.8756 19.7007 22.8787L19.7157 22.8825C19.7267 22.8852 19.7378 22.888 19.7489 22.8907L19.7914 22.9005C19.7945 22.9012 19.7976 22.9019 19.8007 22.9026C19.8117 22.9051 19.8227 22.9077 19.8338 22.91C19.8478 22.9131 19.8621 22.9159 19.8763 22.9188C19.8811 22.9198 19.886 22.9208 19.8908 22.9218C19.9001 22.9238 19.9093 22.9257 19.9187 22.9275C19.928 22.9293 19.9374 22.931 19.9469 22.9327C19.9516 22.9336 19.9564 22.9344 19.9611 22.9353C19.9663 22.9363 19.9714 22.9372 19.9765 22.9382C19.9855 22.9399 19.9945 22.9416 20.0036 22.9431C20.0126 22.9447 20.0217 22.9462 20.0308 22.9476C20.0359 22.9484 20.0409 22.9492 20.046 22.9501C20.0602 22.9524 20.0743 22.9548 20.0885 22.957C20.1026 22.9591 20.1168 22.9611 20.1309 22.9631L20.1734 22.9691L20.2158 22.9746L20.2583 22.9796L20.3007 22.9845L20.3432 22.9887C20.3501 22.9893 20.357 22.99 20.3638 22.9907C20.3711 22.9915 20.3783 22.9922 20.3856 22.9928C20.3921 22.9934 20.3985 22.994 20.405 22.9945C20.4127 22.9951 20.4204 22.9956 20.4281 22.9962L20.4705 22.9996L20.513 23.0024L20.5554 23.0049L20.5979 23.0072C20.6044 23.0076 20.611 23.0078 20.6175 23.0081C20.6251 23.0084 20.6327 23.0086 20.6403 23.0089C20.6454 23.0091 20.6505 23.0094 20.6556 23.0096C20.6646 23.01 20.6737 23.0104 20.6828 23.0106L20.7252 23.0117L20.7677 23.0126L20.8101 23.0132L20.8526 23.0134C20.8577 23.0134 20.8629 23.0134 20.868 23.0134C20.877 23.0135 20.886 23.0136 20.895 23.0135L20.9375 23.013L20.9799 23.0124L21.0224 23.0115L21.1073 23.0088L21.1497 23.0068L21.1922 23.0047L21.2346 23.0025L21.3362 22.9958L21.362 22.9938L21.4044 22.9904L21.4469 22.9867L21.4893 22.9828L21.5318 22.9788L21.5742 22.9745L21.6167 22.97L21.6591 22.9653L21.7016 22.9603L21.744 22.9551L21.7865 22.9498L21.8289 22.9441L21.8714 22.9383L21.9138 22.9322L21.9563 22.9259L21.9987 22.9194L22.0412 22.9126L22.0836 22.9057L22.1261 22.8985L22.1685 22.891L22.211 22.8834L22.2534 22.8755L22.2959 22.8673L22.3383 22.859L22.3808 22.8504L22.4232 22.8416L22.4656 22.8325L22.5081 22.8232L22.5506 22.8137L22.593 22.804L22.6355 22.7939L22.6779 22.7837L22.7204 22.7733L22.7628 22.7626L22.8053 22.7516L22.8477 22.7404L22.8902 22.729L22.9326 22.7174L22.9751 22.7055L23.0175 22.6934L23.06 22.681L23.1024 22.6684L23.1449 22.6556L23.1873 22.6425L23.2298 22.6292L23.2722 22.6157L23.3147 22.6018L23.3571 22.5878L23.3996 22.5736L23.442 22.5591L23.4845 22.5443L23.5269 22.5294L23.5693 22.5142L23.6118 22.4987L23.6542 22.4831L23.6967 22.4672L23.7391 22.4511L23.7816 22.4347L23.824 22.418L23.8665 22.4012L23.909 22.3842L23.9514 22.3669L23.9939 22.3494L24.0363 22.3316L24.0788 22.3137L24.1212 22.2955L24.1637 22.2772L24.2061 22.2586L24.2486 22.2398L24.291 22.2207L24.3334 22.2015L24.3759 22.1821L24.4183 22.1625L24.4608 22.1426L24.5033 22.1226L24.5457 22.1024L24.5882 22.082L24.6306 22.0614L24.6728 22.0407V23.8711L24.6306 23.8813L24.5882 23.8914L24.5457 23.9013L24.5033 23.9111L24.4608 23.9207L24.4183 23.9303L24.3759 23.9397L24.3334 23.949L24.291 23.9583L24.2486 23.9674L24.2061 23.9765L24.1212 23.9943L24.0788 24.0031L23.9939 24.0204L23.9514 24.029L23.909 24.0374L23.8665 24.0458L23.824 24.0541L23.7816 24.0623L23.7391 24.0704L23.6967 24.0785L23.6542 24.0864L23.6118 24.0943L23.5693 24.1021L23.5269 24.1099L23.4845 24.1175L23.442 24.125L23.3996 24.1325L23.3571 24.1399L23.3147 24.1472L23.2722 24.1544L23.2298 24.1616L23.1873 24.1686L23.1024 24.1825L23.06 24.1893L22.9751 24.2026L22.9326 24.2092L22.8902 24.2156L22.8477 24.222L22.7628 24.2345L22.6779 24.2465L22.6355 24.2524L22.593 24.2582L22.5506 24.264L22.4656 24.2751L22.3808 24.2858L22.3383 24.2911L22.2959 24.2962L22.2534 24.3012L22.211 24.3061L22.1685 24.3109L22.1261 24.3156L22.0836 24.3202L21.9987 24.3291L21.9138 24.3375L21.8289 24.3454L21.7865 24.3492L21.744 24.3529L21.7016 24.3565L21.6591 24.3598L21.6167 24.3632L21.5318 24.3694L21.4469 24.375L21.362 24.3801L21.3195 24.3824L21.2771 24.3846L21.2129 24.3876L21.1922 24.3885L21.0648 24.3937L20.9375 24.398L20.895 24.3993L20.8101 24.4016L20.7677 24.4027L20.6403 24.4052L20.513 24.4069L20.4705 24.4072L20.3856 24.4077L20.3432 24.4078L20.2583 24.4077L20.2158 24.4075L20.0885 24.4063L19.9611 24.4042L19.8338 24.4011L19.7064 24.3969L19.664 24.3953L19.5791 24.3919L19.4517 24.3857L19.3244 24.3785L19.197 24.3701L19.1121 24.3638L19.0697 24.3605L18.9848 24.3535L18.9423 24.3498L18.8574 24.342L18.815 24.3378L18.7301 24.3292L18.6452 24.3199L18.6028 24.3151L18.5179 24.3049L18.4754 24.2996L18.3905 24.2886L18.3056 24.2768L18.2631 24.2707L18.2207 24.2643L18.1782 24.258L18.1358 24.2513L18.0933 24.2445L18.0509 24.2375L17.966 24.2231L17.9235 24.2155L17.8811 24.2078L17.8386 24.1999L17.7537 24.1836L17.6689 24.1664L17.6264 24.1574L17.584 24.1483L17.5415 24.139L17.4991 24.1295L17.4566 24.1199L17.3717 24.0996L17.3293 24.0892L17.2868 24.0786L17.2444 24.0676L17.2019 24.0565L17.1595 24.0452L17.117 24.0335L17.0745 24.0217L17.0321 24.0095L16.9896 23.9972L16.9047 23.9716L16.8623 23.9582C16.8573 23.9567 16.8523 23.9551 16.8473 23.9535C16.8381 23.9507 16.8289 23.9478 16.8198 23.9449C16.8056 23.9403 16.7915 23.9356 16.7774 23.9309L16.735 23.917L16.6925 23.9024C16.6824 23.899 16.6723 23.8956 16.6622 23.8922C16.6582 23.8908 16.6541 23.8894 16.6501 23.8879C16.6406 23.8847 16.6313 23.8813 16.622 23.8779C16.6172 23.8762 16.6124 23.8745 16.6076 23.8727L16.5652 23.8576C16.5553 23.854 16.5456 23.8503 16.5358 23.8467C16.5314 23.845 16.5271 23.8434 16.5227 23.8418L16.4803 23.8259L16.4378 23.8094L16.3954 23.7928L16.3529 23.7757L16.3105 23.7583L16.268 23.7406L16.2256 23.7223L16.1832 23.7039L16.1407 23.6848L16.0983 23.6656C16.084 23.659 16.0699 23.6523 16.0558 23.6456L16.0134 23.6255L15.9709 23.6048L15.9285 23.5836L15.9206 23.5797C15.909 23.5738 15.8974 23.568 15.886 23.5621C15.8755 23.5567 15.8651 23.5512 15.8547 23.5458C15.851 23.5438 15.8473 23.5418 15.8436 23.5399L15.8011 23.5173L15.7587 23.4942L15.7162 23.4705L15.7108 23.4675C15.6984 23.4605 15.686 23.4535 15.6738 23.4465C15.6595 23.4383 15.6454 23.43 15.6313 23.4217L15.5888 23.3963C15.5746 23.3877 15.5604 23.3791 15.5464 23.3705C15.5366 23.3644 15.5269 23.3583 15.5172 23.3522C15.5128 23.3494 15.5083 23.3466 15.5039 23.3438L15.4615 23.3166C15.4473 23.3074 15.4331 23.2981 15.419 23.2888L15.3766 23.2603C15.3623 23.2506 15.3482 23.2408 15.3342 23.231C15.3199 23.221 15.3057 23.211 15.2917 23.201C15.2775 23.1908 15.2633 23.1807 15.2493 23.1704C15.2365 23.161 15.2239 23.1515 15.2113 23.142L15.2068 23.1387C15.1925 23.1279 15.1784 23.1171 15.1643 23.1062C15.1501 23.0952 15.1359 23.0841 15.1219 23.073C15.091 23.0484 15.0605 23.0237 15.0308 22.9986V32.989H21.4921C21.5054 32.989 21.5185 32.9886 21.5318 32.9885L21.5742 32.9879C21.5814 32.9878 21.5886 32.9877 21.5958 32.9875C21.6028 32.9874 21.6097 32.9873 21.6167 32.9871C21.6308 32.9867 21.645 32.986 21.6591 32.9855C21.6639 32.9853 21.6686 32.9852 21.6734 32.985C21.6828 32.9847 21.6922 32.9844 21.7016 32.984L21.744 32.9818L21.7865 32.9791C21.7918 32.9788 21.797 32.9784 21.8023 32.9781C21.8112 32.9776 21.8201 32.9771 21.8289 32.9765C21.8431 32.9754 21.8572 32.974 21.8714 32.9728L21.9138 32.9691C21.9172 32.9688 21.9206 32.9685 21.9239 32.9682C21.9347 32.9672 21.9455 32.9662 21.9563 32.9651C21.9657 32.9641 21.9751 32.963 21.9845 32.9619C21.9893 32.9614 21.994 32.9608 21.9987 32.9603C22.0035 32.9598 22.0083 32.9592 22.0131 32.9587C22.0224 32.9577 22.0318 32.9567 22.0412 32.9555C22.053 32.9541 22.0647 32.9525 22.0765 32.951L22.0836 32.95L22.1261 32.9442C22.1312 32.9434 22.1363 32.9427 22.1414 32.942C22.1505 32.9408 22.1595 32.9395 22.1685 32.9382C22.1827 32.936 22.1968 32.9336 22.211 32.9313C22.2144 32.9307 22.2179 32.9302 22.2213 32.9296C22.232 32.9279 22.2427 32.9262 22.2534 32.9244L22.2959 32.9168L22.3383 32.9089C22.3437 32.9079 22.349 32.9069 22.3544 32.9059C22.3632 32.9043 22.372 32.9026 22.3808 32.9009C22.395 32.898 22.409 32.8948 22.4232 32.8918L22.4656 32.8827L22.5081 32.8731C22.516 32.8713 22.5239 32.8694 22.5318 32.8675C22.5381 32.8659 22.5443 32.8644 22.5506 32.8629C22.5559 32.8616 22.5613 32.8604 22.5667 32.8591C22.5755 32.857 22.5843 32.855 22.593 32.8527C22.6019 32.8505 22.6106 32.8481 22.6194 32.8458C22.6248 32.8443 22.6301 32.8429 22.6355 32.8415C22.6496 32.8378 22.6638 32.834 22.6779 32.8302L22.7204 32.8183L22.7628 32.8059C22.7682 32.8043 22.7735 32.8028 22.7788 32.8012C22.7877 32.7987 22.7965 32.7961 22.8053 32.7934C22.8195 32.7891 22.8335 32.7844 22.8477 32.7799C22.8519 32.7785 22.8562 32.7772 22.8604 32.7759C22.8703 32.7727 22.8803 32.7696 22.8902 32.7663L22.9326 32.7521L22.9751 32.7374C22.979 32.736 22.983 32.7346 22.987 32.7332C22.9972 32.7296 23.0074 32.7261 23.0175 32.7224C23.0317 32.7172 23.0458 32.7118 23.06 32.7065C23.0653 32.7045 23.0706 32.7026 23.0759 32.7006C23.0848 32.6974 23.0936 32.6941 23.1024 32.6907C23.1166 32.6852 23.1307 32.6795 23.1449 32.6738L23.1873 32.6568L23.2298 32.6391L23.2722 32.6209C23.2769 32.6188 23.2815 32.6168 23.2862 32.6148C23.2957 32.6107 23.3052 32.6066 23.3147 32.6023C23.3222 32.599 23.3296 32.5956 23.3371 32.5921C23.3438 32.589 23.3504 32.5859 23.3571 32.5829C23.3623 32.5805 23.3675 32.5781 23.3727 32.5757C23.3817 32.5717 23.3907 32.5676 23.3996 32.5634C23.4095 32.5587 23.4194 32.5538 23.4293 32.549C23.4335 32.5469 23.4378 32.5448 23.442 32.5427C23.4562 32.5358 23.4704 32.529 23.4845 32.522C23.4959 32.5163 23.5072 32.5105 23.5185 32.5047L23.5269 32.5004L23.5693 32.4784L23.6118 32.4558L23.6542 32.4325C23.6684 32.4247 23.6826 32.4168 23.6967 32.4088C23.7074 32.4027 23.718 32.3965 23.7286 32.3903C23.7321 32.3883 23.7356 32.3862 23.7391 32.3842C23.7533 32.3759 23.7676 32.3678 23.7816 32.3593C23.792 32.3532 23.8022 32.3468 23.8124 32.3405C23.8163 32.3381 23.8202 32.3357 23.824 32.3334C23.8382 32.3247 23.8525 32.3161 23.8665 32.3073C23.8808 32.2983 23.8948 32.289 23.909 32.2799C23.913 32.2773 23.917 32.2747 23.921 32.2721C23.9312 32.2656 23.9413 32.2591 23.9514 32.2524C23.9619 32.2455 23.9722 32.2384 23.9826 32.2313C23.9863 32.2288 23.9901 32.2262 23.9939 32.2236C23.9978 32.2209 24.0018 32.2182 24.0058 32.2155C24.016 32.2086 24.0262 32.2017 24.0363 32.1947C24.0465 32.1877 24.0565 32.1805 24.0666 32.1732C24.0706 32.1703 24.0747 32.1674 24.0788 32.1645C24.082 32.1622 24.0853 32.1599 24.0886 32.1576C24.0995 32.1498 24.1104 32.142 24.1212 32.1341C24.1319 32.1263 24.1424 32.1184 24.153 32.1104C24.1565 32.1078 24.1601 32.1051 24.1637 32.1024C24.1778 32.0918 24.1921 32.0813 24.2061 32.0705C24.2204 32.0595 24.2344 32.0482 24.2486 32.0371C24.2627 32.0259 24.277 32.0149 24.291 32.0035C24.3014 31.9951 24.3117 31.9865 24.322 31.9779C24.3258 31.9748 24.3296 31.9716 24.3334 31.9684C24.3476 31.9567 24.3619 31.945 24.3759 31.9331C24.3862 31.9243 24.3964 31.9154 24.4066 31.9065C24.4105 31.903 24.4144 31.8996 24.4183 31.8961C24.4325 31.8837 24.4468 31.8714 24.4608 31.8589C24.4751 31.8461 24.4891 31.833 24.5033 31.82C24.5175 31.8069 24.5317 31.7938 24.5457 31.7806C24.5509 31.7756 24.5561 31.7707 24.5612 31.7658C24.5703 31.7572 24.5792 31.7485 24.5882 31.7398C24.6024 31.726 24.6165 31.7121 24.6306 31.698C24.6384 31.6903 24.6461 31.6826 24.6538 31.6748C24.6603 31.6684 24.6667 31.6619 24.673 31.6554C24.6848 31.6433 24.6965 31.631 24.7081 31.6187L24.7155 31.6109C24.7194 31.6068 24.7233 31.6027 24.7272 31.5986C24.7375 31.5878 24.7478 31.5769 24.7579 31.5659C24.7669 31.5561 24.7758 31.5463 24.7847 31.5364C24.7899 31.5306 24.7952 31.5247 24.8004 31.5189C24.8147 31.503 24.8288 31.487 24.8428 31.4709C24.8486 31.4643 24.8543 31.4577 24.86 31.4511C24.8685 31.4413 24.8769 31.4315 24.8853 31.4215C24.8945 31.4107 24.9035 31.3998 24.9125 31.3888C24.9176 31.3826 24.9227 31.3764 24.9277 31.3702C24.942 31.3528 24.9562 31.3353 24.9702 31.3176C24.9845 31.2996 24.9987 31.2815 25.0126 31.2633C25.027 31.2446 25.0411 31.2257 25.0551 31.2068C25.0694 31.1875 25.0836 31.1682 25.0975 31.1487C25.1118 31.1287 25.126 31.1087 25.14 31.0885C25.1544 31.0677 25.1684 31.0466 25.1825 31.0255C25.1968 31.004 25.2109 30.9823 25.2249 30.9605C25.2326 30.9484 25.2403 30.9364 25.2479 30.9242C25.2545 30.9139 25.2609 30.9035 25.2674 30.893C25.2817 30.8697 25.2959 30.8462 25.3098 30.8225C25.3242 30.798 25.3383 30.7732 25.3522 30.7484C25.3667 30.7227 25.3808 30.6968 25.3947 30.6708C25.4091 30.6438 25.4233 30.6166 25.4371 30.5893C25.4516 30.5608 25.4657 30.5321 25.4796 30.5033C25.4941 30.473 25.5082 30.4427 25.522 30.4121C25.5366 30.3798 25.5507 30.3473 25.5645 30.3146C25.5791 30.28 25.5932 30.2451 25.6069 30.21C25.6216 30.1724 25.6358 30.1345 25.6494 30.0964C25.6641 30.0552 25.6783 30.0138 25.6918 29.972C25.7067 29.9259 25.7209 29.8795 25.7343 29.8327C25.7495 29.7794 25.7635 29.7257 25.7767 29.6716C25.7924 29.6073 25.8065 29.5425 25.8192 29.4772C25.8359 29.3914 25.8502 29.3048 25.8616 29.2172C25.8854 29.0354 25.8976 28.8502 25.8976 28.662V7.02734H19.428L19.4093 7.02759C19.3975 7.02764 19.3858 7.02782 19.374 7.028L19.3668 7.02811C19.3613 7.02819 19.3558 7.02823 19.3503 7.02827C19.3417 7.02834 19.333 7.02841 19.3244 7.02862C19.3157 7.02884 19.3071 7.02919 19.2984 7.02954C19.2929 7.02977 19.2874 7.02999 19.2819 7.03018L19.2395 7.03177C19.2353 7.03196 19.231 7.03214 19.2268 7.03231C19.2169 7.03273 19.2069 7.03314 19.197 7.03368C19.188 7.03416 19.179 7.03474 19.17 7.03533C19.1649 7.03566 19.1597 7.03599 19.1546 7.03631C19.151 7.03653 19.1474 7.03674 19.1438 7.03696C19.1332 7.03759 19.1227 7.03823 19.1121 7.03897C19.098 7.03998 19.0838 7.04112 19.0697 7.0423L19.0272 7.04597C19.0217 7.04646 19.0162 7.04693 19.0107 7.04739C19.0021 7.04811 18.9934 7.04884 18.9848 7.0497C18.9761 7.05057 18.9675 7.05158 18.9588 7.05259C18.9533 7.05323 18.9478 7.05388 18.9423 7.05448L18.8999 7.05926L18.8574 7.06448C18.8479 7.06572 18.8384 7.06704 18.8289 7.06837C18.8243 7.06902 18.8196 7.06966 18.815 7.0703C18.8097 7.07104 18.8044 7.07175 18.799 7.07247C18.7902 7.07365 18.7814 7.07483 18.7726 7.07615C18.7632 7.07755 18.7538 7.07907 18.7444 7.08059C18.7396 7.08137 18.7349 7.08214 18.7301 7.0829L18.6877 7.08979L18.6452 7.09699C18.6356 7.09869 18.6262 7.10051 18.6167 7.10233C18.612 7.10322 18.6074 7.10411 18.6028 7.10498C18.5981 7.10586 18.5934 7.10672 18.5888 7.10758C18.5793 7.10934 18.5697 7.1111 18.5603 7.11298C18.5506 7.1149 18.5409 7.11692 18.5313 7.11896C18.5268 7.1199 18.5223 7.12084 18.5179 7.12177L18.4754 7.13084C18.4716 7.13167 18.4678 7.13249 18.464 7.13331C18.4537 7.13555 18.4433 7.1378 18.433 7.14015C18.4233 7.14236 18.4137 7.1447 18.4041 7.14704C18.3995 7.14814 18.395 7.14924 18.3905 7.15033C18.3857 7.15149 18.3808 7.15263 18.376 7.15378C18.3667 7.15599 18.3573 7.1582 18.348 7.16051C18.3377 7.16308 18.3274 7.16576 18.3171 7.16845C18.3133 7.16945 18.3094 7.17045 18.3056 7.17144L18.2631 7.18276C18.2586 7.18399 18.2541 7.1852 18.2496 7.18641C18.2399 7.189 18.2303 7.19158 18.2207 7.19429C18.2105 7.19717 18.2004 7.20017 18.1902 7.20318C18.1862 7.20436 18.1822 7.20554 18.1782 7.20672C18.1738 7.20801 18.1693 7.2093 18.1649 7.21058C18.1552 7.21338 18.1455 7.21619 18.1358 7.21911C18.126 7.22209 18.1163 7.22517 18.1065 7.22825C18.1021 7.22963 18.0977 7.23102 18.0933 7.2324L18.0509 7.24593L18.0441 7.24814C18.0322 7.252 18.0203 7.25587 18.0084 7.25988C17.9978 7.26346 17.9872 7.26716 17.9766 7.27085C17.9731 7.27209 17.9696 7.27333 17.966 7.27456C17.9606 7.27643 17.9553 7.27826 17.9499 7.2801C17.9411 7.2831 17.9323 7.2861 17.9235 7.28924C17.9145 7.29248 17.9056 7.29585 17.8966 7.29923C17.8915 7.30118 17.8863 7.30313 17.8811 7.30506C17.8776 7.30637 17.874 7.30768 17.8705 7.30899C17.8598 7.31292 17.8492 7.31686 17.8386 7.32091C17.8255 7.32594 17.8124 7.3311 17.7993 7.33626L17.7962 7.33749L17.7537 7.35452L17.7475 7.35705C17.7354 7.36195 17.7233 7.36684 17.7113 7.37186C17.7012 7.37608 17.6912 7.38041 17.6813 7.38474C17.6771 7.38653 17.673 7.38832 17.6689 7.3901C17.664 7.39219 17.6591 7.39426 17.6543 7.39632C17.645 7.40028 17.6356 7.40423 17.6264 7.40835C17.6176 7.41225 17.6088 7.41628 17.6001 7.42032C17.5947 7.4228 17.5894 7.42528 17.584 7.42773C17.5804 7.42935 17.5769 7.43096 17.5733 7.43257C17.5627 7.43742 17.5521 7.44226 17.5415 7.44722C17.5298 7.45269 17.5182 7.4583 17.5065 7.4639L17.4991 7.4675L17.4566 7.48824L17.4142 7.50945C17.4024 7.51541 17.3908 7.52148 17.3792 7.52755L17.3717 7.53147C17.3673 7.53376 17.3629 7.53604 17.3585 7.53832C17.3487 7.5434 17.339 7.54848 17.3293 7.55369C17.3191 7.5591 17.3091 7.56463 17.2991 7.57017C17.295 7.57243 17.2909 7.57469 17.2868 7.57695C17.2816 7.57981 17.2764 7.58264 17.2712 7.58547C17.2622 7.59036 17.2532 7.59526 17.2444 7.60028C17.2351 7.60548 17.226 7.61083 17.2169 7.61618C17.2119 7.61909 17.2069 7.622 17.2019 7.62489C17.198 7.62715 17.1941 7.6294 17.1902 7.63165C17.1799 7.63758 17.1696 7.6435 17.1595 7.64957C17.1491 7.65568 17.1389 7.66194 17.1287 7.6682C17.1248 7.67059 17.1209 7.67298 17.117 7.67536L17.1101 7.67958C17.0982 7.68681 17.0864 7.69403 17.0745 7.70139C17.0603 7.71029 17.0462 7.71936 17.0321 7.72842C17.0179 7.73753 17.0037 7.74663 16.9896 7.75587C16.9754 7.76522 16.9613 7.7747 16.9472 7.78422C16.933 7.79381 16.9188 7.8034 16.9047 7.81313C16.8905 7.82296 16.8764 7.83293 16.8623 7.8429C16.8481 7.85297 16.8339 7.86308 16.8198 7.87332C16.8056 7.88364 16.7915 7.89409 16.7774 7.90458C16.7632 7.91517 16.749 7.9258 16.735 7.93653C16.7207 7.9474 16.7066 7.95837 16.6925 7.96941C16.6783 7.98052 16.6641 7.9917 16.6501 8.00299C16.6358 8.01444 16.6217 8.02604 16.6076 8.03764L16.6066 8.03845C16.5927 8.04988 16.5789 8.06128 16.5652 8.07287C16.5509 8.08492 16.5368 8.09714 16.5227 8.10939L16.5143 8.11664C16.5029 8.12651 16.4915 8.13639 16.4803 8.14639C16.4678 8.15751 16.4554 8.1688 16.4431 8.1801L16.4378 8.18496C16.4336 8.18875 16.4295 8.19253 16.4253 8.19632C16.4153 8.20544 16.4053 8.21455 16.3954 8.22383C16.385 8.2336 16.3747 8.24351 16.3644 8.25343C16.3606 8.25715 16.3568 8.26086 16.3529 8.26457C16.3387 8.27824 16.3245 8.29191 16.3105 8.30576C16.2962 8.31988 16.2821 8.33418 16.268 8.34847C16.2538 8.36298 16.2396 8.37755 16.2256 8.39223C16.2114 8.40708 16.1972 8.42196 16.1832 8.43702C16.1697 8.45156 16.1563 8.46632 16.1431 8.48104L16.1375 8.48718C16.1244 8.50172 16.1112 8.51627 16.0983 8.531C16.084 8.5473 16.0699 8.56378 16.0558 8.58032C16.0415 8.59707 16.0274 8.614 16.0134 8.631C16.0103 8.63467 16.0073 8.63833 16.0043 8.642C15.9931 8.65554 15.9818 8.66908 15.9709 8.68278C15.9581 8.69881 15.9455 8.71507 15.9329 8.73132L15.9285 8.73709C15.9141 8.75554 15.9 8.77413 15.886 8.79282L15.8819 8.7982C15.8691 8.81538 15.8562 8.83254 15.8436 8.84997C15.83 8.86869 15.8168 8.88766 15.8035 8.90664L15.8011 8.91013C15.7867 8.93065 15.7726 8.95132 15.7587 8.97212C15.7443 8.99338 15.7301 9.01466 15.7162 9.03619C15.7018 9.05831 15.6877 9.08057 15.6738 9.10297C15.6593 9.12616 15.6453 9.14952 15.6313 9.17299C15.6169 9.19715 15.6028 9.22152 15.5888 9.24599C15.5745 9.27126 15.5603 9.29667 15.5464 9.32225C15.532 9.3488 15.5178 9.37545 15.5039 9.40231C15.4895 9.43028 15.4753 9.45832 15.4615 9.48663C15.4471 9.51626 15.4328 9.54606 15.419 9.57608C15.4045 9.60768 15.3904 9.63945 15.3766 9.67144C15.362 9.70536 15.3479 9.73953 15.3342 9.77386C15.3195 9.81059 15.3054 9.84763 15.2917 9.88484C15.2769 9.92499 15.2628 9.96549 15.2493 10.0062C15.2344 10.0507 15.2202 10.0956 15.2068 10.1408C15.1918 10.1915 15.1776 10.2425 15.1643 10.294C15.1489 10.354 15.1347 10.4144 15.1219 10.4754C15.0622 10.7593 15.0308 11.0534 15.0308 11.3546V17.0194Z" fill="black"/>
</svg>
