<svg width="50" height="50" viewBox="0 0 50 50" fill="none" xmlns="http://www.w3.org/2000/svg">
<path d="M7.14453 25.0002C7.14453 24.014 7.94402 23.2145 8.93024 23.2145L41.0731 23.2145C42.0593 23.2145 42.8588 24.014 42.8588 25.0002V25.0002C42.8588 25.9864 42.0593 26.7859 41.0731 26.7859H8.93025C7.94403 26.7859 7.14453 25.9864 7.14453 25.0002V25.0002Z" fill="#fff"/>
<path fill-rule="evenodd" clip-rule="evenodd" d="M25.523 9.45149C26.2204 8.75413 27.351 8.75413 28.0484 9.45149L42.3341 23.7372C43.0315 24.4346 43.0315 25.5652 42.3341 26.2626L28.0484 40.5483C27.351 41.2457 26.2204 41.2457 25.523 40.5483C24.8257 39.8509 24.8257 38.7203 25.523 38.0229L38.546 24.9999L25.523 11.9769C24.8257 11.2795 24.8257 10.1489 25.523 9.45149Z" fill="#fff"/>
</svg>
