<svg width="41" height="40" viewBox="0 0 41 40" fill="none" xmlns="http://www.w3.org/2000/svg">
<path d="M20.5405 21.0043L23.0443 15.2514C23.2072 14.8777 23.4677 14.5613 23.795 14.3395C24.1222 14.1178 24.5025 14 24.8909 14H27.9047V25.8541H24.3464V18.8498H24.0928L21.5876 24.6011C21.4247 24.975 21.1643 25.2916 20.837 25.5136C20.5098 25.7357 20.1295 25.8538 19.741 25.8541H16.7212V14H20.2855V21.0043H20.5405Z" fill="black"/>
<path d="M8.2129 21.0043L9.69503 15.5583C9.81707 15.1091 10.0736 14.7142 10.4259 14.4331C10.7782 14.152 11.2072 14 11.6482 14H15.202V25.8541H11.6437V18.8577H11.3887L9.356 25.8541H6.81927L4.78059 18.8577H4.52707V25.8541H0.96875V14H4.52557C4.96602 14.0007 5.39434 14.1531 5.74605 14.4341C6.09777 14.7151 6.35385 15.1097 6.47574 15.5583L7.95787 21.0043H8.2129Z" fill="black"/>
<path d="M29.436 19.3872V25.8541H32.9868V22.0824H36.8062C37.5942 22.0817 38.3627 21.8222 39.0058 21.3396C39.6489 20.8569 40.1351 20.1748 40.3975 19.3872H29.436Z" fill="black"/>
<path d="M28.9277 14H36.8064C37.3716 14.0007 37.9295 14.1345 38.4398 14.3916C38.9502 14.6488 39.4003 15.0229 39.7576 15.487C40.1149 15.9511 40.3705 16.4935 40.5058 17.0751C40.6412 17.6566 40.6529 18.2628 40.5403 18.8498H34.4227C33.1166 18.849 31.8519 18.3636 30.8482 17.4777C29.8444 16.5918 29.165 15.3614 28.9277 14Z" fill="black"/>
</svg>
