<svg width="60" height="60" viewBox="0 0 60 60" fill="none" xmlns="http://www.w3.org/2000/svg">
<path d="M14.8554 48.0219V45.5699C14.8698 45.3637 14.84 45.1567 14.7681 44.9629C14.6962 44.7691 14.5838 44.5928 14.4384 44.4459C14.293 44.2989 14.1179 44.1847 13.9249 44.1107C13.7318 44.0368 13.5252 44.0048 13.3189 44.017C13.0488 43.9994 12.7789 44.0546 12.5374 44.1768C12.2959 44.299 12.0916 44.4837 11.9458 44.7117C11.8129 44.4905 11.6228 44.3092 11.3956 44.187C11.1683 44.0647 10.9123 44.006 10.6544 44.017C10.4297 44.0057 10.2059 44.0533 10.0052 44.1551C9.80451 44.2569 9.63387 44.4093 9.5102 44.5973V44.1151H8.66016V48.0219H9.51833V45.8559C9.49977 45.7223 9.51105 45.5862 9.55135 45.4574C9.59164 45.3286 9.65995 45.2104 9.75137 45.1112C9.8428 45.0119 9.95506 44.9342 10.0801 44.8835C10.2052 44.8328 10.3399 44.8104 10.4746 44.818C11.0385 44.818 11.3246 45.1858 11.3246 45.8478V48.0219H12.1828V45.8559C12.1657 45.7225 12.1779 45.587 12.2187 45.4588C12.2595 45.3307 12.3279 45.213 12.419 45.1141C12.5102 45.0152 12.6219 44.9374 12.7462 44.8862C12.8706 44.8351 13.0047 44.8118 13.1391 44.818C13.7193 44.818 13.9972 45.1858 13.9972 45.8478V48.0219H14.8554ZM27.5565 44.1151H26.167V42.93H25.3089V44.1151H24.516V44.8915H25.3089V46.6733C25.3089 47.5805 25.6603 48.12 26.6656 48.12C27.0412 48.1211 27.4094 48.0163 27.7281 47.8175L27.4829 47.0901C27.255 47.2261 26.9963 47.302 26.731 47.3108C26.306 47.3108 26.167 47.0492 26.167 46.657V44.8915H27.5565V44.1151ZM34.806 44.017C34.5988 44.0109 34.3937 44.0608 34.2125 44.1615C34.0313 44.2622 33.8805 44.4099 33.7763 44.5891V44.1151H32.9344V48.0219H33.7844V45.8314C33.7844 45.1858 34.0623 44.8261 34.6181 44.8261C34.7999 44.8237 34.9804 44.857 35.1493 44.9242L35.4109 44.1232C35.2167 44.0538 35.0122 44.0179 34.806 44.017ZM23.8459 44.4257C23.3647 44.1396 22.8115 43.9977 22.2521 44.017C21.2631 44.017 20.6257 44.491 20.6257 45.2675C20.6257 45.905 21.0997 46.2974 21.9742 46.4199L22.3747 46.4771C22.8405 46.5424 23.0612 46.6651 23.0612 46.8857C23.0612 47.1881 22.7506 47.3598 22.1704 47.3598C21.7036 47.3733 21.2459 47.2293 20.8708 46.9511L20.4704 47.6132C20.9655 47.9589 21.5585 48.1366 22.1622 48.12C23.2901 48.12 23.9439 47.5886 23.9439 46.8449C23.9439 46.1583 23.429 45.7987 22.579 45.6761L22.1786 45.6189C21.8107 45.5699 21.5165 45.4964 21.5165 45.2349C21.5165 44.9488 21.7943 44.7771 22.2603 44.7771C22.6881 44.7836 23.1072 44.8989 23.4781 45.1122L23.8459 44.4257ZM46.6162 44.017C46.409 44.0109 46.2039 44.0608 46.0227 44.1615C45.8414 44.2622 45.6907 44.4099 45.5864 44.5891V44.1151H44.7446V48.0219H45.5945V45.8314C45.5945 45.1858 45.8725 44.8261 46.4282 44.8261C46.61 44.8236 46.7906 44.857 46.9595 44.9242L47.2211 44.1232C47.0269 44.0538 46.8224 44.0179 46.6162 44.017ZM35.6642 46.0684C35.6529 46.3436 35.6993 46.6182 35.8005 46.8744C35.9017 47.1306 36.0554 47.3628 36.2517 47.556C36.448 47.7492 36.6826 47.8992 36.9404 47.9964C37.1981 48.0935 37.4734 48.1356 37.7484 48.12C38.2587 48.1456 38.7602 47.9794 39.1541 47.654L38.7455 46.9675C38.4516 47.1915 38.0933 47.3147 37.7238 47.3189C37.4053 47.2996 37.1062 47.1594 36.8875 46.927C36.6688 46.6947 36.547 46.3876 36.547 46.0685C36.547 45.7493 36.6688 45.4422 36.8875 45.2099C37.1062 44.9775 37.4053 44.8373 37.7238 44.818C38.0933 44.8222 38.4516 44.9454 38.7455 45.1695L39.1541 44.4829C38.7601 44.1576 38.2587 43.9914 37.7484 44.017C37.4734 44.0014 37.1982 44.0435 36.9404 44.1406C36.6827 44.2377 36.4481 44.3877 36.2518 44.5809C36.0555 44.7741 35.9018 45.0063 35.8006 45.2625C35.6994 45.5186 35.6529 45.7932 35.6642 46.0684ZM43.6248 46.0684V44.1151H42.7748V44.5891C42.6298 44.4022 42.442 44.2527 42.2273 44.1531C42.0126 44.0536 41.7771 44.0069 41.5407 44.017C41.014 44.0428 40.5174 44.2703 40.1538 44.6522C39.7902 45.034 39.5873 45.5412 39.5873 46.0685C39.5873 46.5958 39.7902 47.1029 40.1538 47.4848C40.5174 47.8667 41.014 48.0941 41.5407 48.12C41.7771 48.13 42.0126 48.0834 42.2273 47.9838C42.442 47.8843 42.6298 47.7347 42.7748 47.5478V48.0219H43.6248V46.0684ZM40.4618 46.0684C40.475 45.8379 40.5554 45.6162 40.693 45.4308C40.8307 45.2454 41.0196 45.1043 41.2364 45.025C41.4533 44.9457 41.6886 44.9315 41.9134 44.9844C42.1382 45.0372 42.3426 45.1546 42.5015 45.3222C42.6603 45.4898 42.7666 45.7003 42.8073 45.9276C42.848 46.1549 42.8213 46.3891 42.7304 46.6014C42.6396 46.8137 42.4886 46.9947 42.2961 47.1222C42.1035 47.2497 41.8779 47.3181 41.647 47.3189C41.4851 47.3211 41.3246 47.2898 41.1754 47.2268C41.0263 47.1639 40.8918 47.0707 40.7805 46.9532C40.6691 46.8358 40.5834 46.6965 40.5285 46.5442C40.4737 46.3919 40.4509 46.2299 40.4618 46.0684ZM30.2046 44.017C29.6745 44.0449 29.1758 44.277 28.8132 44.6646C28.4506 45.0523 28.2521 45.5653 28.2595 46.096C28.2669 46.6268 28.4796 47.134 28.8529 47.5114C29.2262 47.8887 29.7312 48.1068 30.2618 48.12C30.8449 48.1404 31.4152 47.9455 31.8637 47.5723L31.4469 46.943C31.1241 47.2017 30.7244 47.3454 30.3108 47.3516C30.0299 47.3753 29.7509 47.2887 29.5328 47.1102C29.3146 46.9317 29.1745 46.6753 29.1421 46.3953H32.0436C32.0517 46.2891 32.0599 46.1829 32.0599 46.0684C32.0517 44.8507 31.2998 44.017 30.2046 44.017ZM30.1882 44.7771C30.445 44.7721 30.6932 44.8691 30.8786 45.0468C31.064 45.2245 31.1713 45.4685 31.1772 45.7252H29.1502C29.1652 45.4629 29.2821 45.2169 29.4761 45.0397C29.67 44.8625 29.9256 44.7683 30.1882 44.7771ZM51.5119 46.0684V42.5459H50.6619V44.5891C50.5168 44.4022 50.3291 44.2527 50.1143 44.1531C49.8996 44.0536 49.6642 44.0069 49.4278 44.017C48.9011 44.0428 48.4045 44.2702 48.0408 44.6521C47.6772 45.034 47.4743 45.5412 47.4743 46.0685C47.4743 46.5958 47.6772 47.103 48.0408 47.4849C48.4045 47.8668 48.9011 48.0942 49.4278 48.12C49.6642 48.13 49.8997 48.0834 50.1144 47.9838C50.3291 47.8843 50.5168 47.7347 50.6619 47.5478V48.0219H51.5119V46.0684ZM52.9288 47.4557C52.9816 47.4553 53.034 47.4657 53.0826 47.4862C53.1294 47.5057 53.172 47.5339 53.2083 47.5694C53.2442 47.6048 53.2729 47.6468 53.2929 47.6931C53.3133 47.7407 53.3239 47.792 53.3239 47.8438C53.3239 47.8956 53.3133 47.9468 53.2929 47.9944C53.2728 48.0405 53.2441 48.0823 53.2083 48.1176C53.1719 48.1531 53.1293 48.1815 53.0826 48.2013C53.034 48.2221 52.9817 48.2327 52.9288 48.2323C52.8511 48.2331 52.7748 48.211 52.7096 48.1686C52.6443 48.1263 52.593 48.0657 52.562 47.9944C52.5416 47.9468 52.5311 47.8956 52.5311 47.8438C52.5311 47.792 52.5416 47.7408 52.562 47.6931C52.5819 47.6469 52.6105 47.6049 52.6463 47.5694C52.6824 47.5337 52.7253 47.5054 52.7724 47.4862C52.822 47.4656 52.8752 47.4553 52.9288 47.4557ZM52.9288 48.1467C52.9691 48.147 53.009 48.1389 53.046 48.1229C53.0815 48.1074 53.1137 48.0855 53.1411 48.0581C53.1975 48.0011 53.2292 47.9242 53.2292 47.844C53.2292 47.7638 53.1975 47.6868 53.1411 47.6298C53.1138 47.6025 53.0815 47.5807 53.046 47.5656C53.009 47.5499 52.9691 47.5419 52.9288 47.5423C52.8879 47.542 52.8473 47.5499 52.8094 47.5656C52.7733 47.5805 52.7405 47.6023 52.7129 47.6298C52.6564 47.6868 52.6247 47.7637 52.6247 47.844C52.6247 47.9242 52.6564 48.0012 52.7129 48.0581C52.7406 48.0857 52.7734 48.1077 52.8094 48.1229C52.8472 48.1388 52.8878 48.1469 52.9288 48.1467ZM52.9517 47.6622C52.9899 47.6597 53.0278 47.6706 53.0588 47.6931C53.0712 47.7033 53.081 47.7162 53.0875 47.7308C53.094 47.7455 53.0971 47.7614 53.0964 47.7774C53.0968 47.7911 53.0944 47.8047 53.0892 47.8174C53.084 47.8301 53.0763 47.8416 53.0664 47.8511C53.0428 47.8721 53.0128 47.8847 52.9812 47.8868L53.0992 48.0229H53.007L52.8975 47.8877H52.8623V48.0229H52.7852V47.6622H52.9517ZM52.8623 47.7298V47.8259H52.9508C52.9678 47.8268 52.9847 47.8226 52.9994 47.814C53.0053 47.81 53.0101 47.8045 53.0133 47.7981C53.0164 47.7917 53.0179 47.7845 53.0174 47.7774C53.0178 47.7704 53.0163 47.7634 53.0131 47.7571C53.01 47.7508 53.0052 47.7455 52.9994 47.7416C52.9847 47.7331 52.9678 47.729 52.9508 47.7298H52.8623ZM48.3489 46.0684C48.3621 45.8379 48.4425 45.6162 48.5802 45.4309C48.7178 45.2455 48.9067 45.1044 49.1236 45.0251C49.3404 44.9458 49.5757 44.9317 49.8005 44.9845C50.0253 45.0373 50.2297 45.1548 50.3885 45.3224C50.5474 45.49 50.6537 45.7004 50.6943 45.9277C50.735 46.155 50.7083 46.3892 50.6174 46.6015C50.5265 46.8137 50.3756 46.9948 50.183 47.1223C49.9905 47.2498 49.7649 47.3181 49.534 47.3189C49.3722 47.3211 49.2116 47.2897 49.0625 47.2268C48.9134 47.1639 48.7789 47.0707 48.6676 46.9532C48.5562 46.8357 48.4704 46.6965 48.4156 46.5442C48.3608 46.3919 48.3381 46.2299 48.3489 46.0684ZM19.6449 46.0684V44.1151H18.7948V44.5891C18.6498 44.4022 18.462 44.2527 18.2473 44.1531C18.0326 44.0536 17.7971 44.0069 17.5607 44.017C17.034 44.0428 16.5374 44.2703 16.1738 44.6522C15.8102 45.034 15.6073 45.5412 15.6073 46.0685C15.6073 46.5958 15.8102 47.1029 16.1738 47.4848C16.5374 47.8667 17.034 48.0941 17.5607 48.12C17.7971 48.13 18.0326 48.0834 18.2473 47.9838C18.462 47.8843 18.6498 47.7347 18.7948 47.5478V48.0219H19.6449V46.0684ZM16.4819 46.0684C16.4951 45.8379 16.5755 45.6162 16.7131 45.4309C16.8508 45.2455 17.0397 45.1044 17.2565 45.0251C17.4734 44.9458 17.7087 44.9317 17.9335 44.9845C18.1583 45.0373 18.3627 45.1548 18.5215 45.3224C18.6803 45.49 18.7866 45.7004 18.8273 45.9277C18.868 46.155 18.8412 46.3892 18.7504 46.6015C18.6595 46.8137 18.5085 46.9948 18.316 47.1223C18.1235 47.2498 17.8979 47.3181 17.667 47.3189C17.5051 47.3211 17.3446 47.2897 17.1955 47.2268C17.0463 47.1639 16.9119 47.0707 16.8005 46.9532C16.6892 46.8357 16.6034 46.6965 16.5486 46.5442C16.4937 46.3919 16.471 46.2299 16.4819 46.0684Z" fill="#231F20"/>
<path d="M36.4379 14.3435H23.5635V37.4793H36.4379V14.3435Z" fill="#FF5F00"/>
<path d="M24.3809 25.9102C24.3788 23.6821 24.8837 21.4827 25.8574 19.4785C26.831 17.4743 28.2478 15.718 30.0006 14.3423C27.8301 12.6362 25.2233 11.5752 22.4782 11.2806C19.7331 10.9859 16.9606 11.4696 14.4774 12.6762C11.9942 13.8828 9.90057 15.7637 8.43583 18.104C6.9711 20.4442 6.19434 23.1494 6.19434 25.9102C6.19434 28.671 6.9711 31.3762 8.43583 33.7164C9.90057 36.0567 11.9942 37.9376 14.4774 39.1442C16.9606 40.3508 19.7331 40.8345 22.4782 40.5398C25.2233 40.2452 27.8301 39.1842 30.0006 37.4781C28.2479 36.1024 26.831 34.346 25.8574 32.3419C24.8838 30.3377 24.3788 28.1383 24.3809 25.9102Z" fill="#EB001B"/>
<path d="M53.8065 25.9102C53.8066 28.671 53.03 31.3761 51.5653 33.7164C50.1007 36.0566 48.0071 37.9375 45.524 39.1442C43.0408 40.3508 40.2683 40.8345 37.5233 40.5398C34.7782 40.2452 32.1715 39.1842 30.001 37.4781C31.7522 36.101 33.1679 34.3444 34.1414 32.3405C35.1149 30.3367 35.6207 28.138 35.6207 25.9102C35.6207 23.6824 35.1149 21.4837 34.1414 19.4799C33.1679 17.476 31.7522 15.7193 30.001 14.3423C32.1715 12.6362 34.7782 11.5752 37.5233 11.2806C40.2683 10.9859 43.0408 11.4696 45.524 12.6762C48.0071 13.8829 50.1007 15.7638 51.5653 18.104C53.03 20.4443 53.8066 23.1494 53.8065 25.9102Z" fill="#F79E1B"/>
<path d="M52.4019 35.0273V34.5536H52.5929V34.4571H52.1064V34.5536H52.2975V35.0273H52.4019ZM53.3462 35.0273V34.4562H53.1971L53.0256 34.849L52.8541 34.4562H52.7049V35.0273H52.8102V34.5965L52.971 34.9679H53.0802L53.241 34.5955V35.0273H53.3462Z" fill="#F79E1B"/>
</svg>
