<svg width="60" height="60" viewBox="0 0 60 60" fill="none" xmlns="http://www.w3.org/2000/svg">
<path fill-rule="evenodd" clip-rule="evenodd" d="M5.54818 22.0029C6.08458 21.9993 7.67758 21.8559 8.35198 24.1329C9.08798 26.6424 9.81199 29.1554 10.524 31.6719H10.929C11.6544 29.1572 12.3864 26.6444 13.125 24.1335C13.8066 21.8325 15.5112 22.0029 16.1934 22.0029H21.4535V38.3661H16.092V28.7229H15.732L12.744 38.3661H8.70957L5.72158 28.7157H5.36158V38.3661H0V22.0029H5.54818ZM29.1521 22.0029V31.6533H29.5799L33.2159 23.7177C33.9215 22.1385 35.4257 22.0029 35.4257 22.0029H40.6139V38.3661H35.1407V28.7157H34.7129L31.1489 36.6513C30.4427 38.2233 28.8671 38.3661 28.8671 38.3661H23.6789V22.0029H29.1527H29.1521ZM59.533 29.7789C58.7692 31.9425 56.3716 33.4917 53.7172 33.4917H47.9771V38.3661H42.7721V29.7789H59.533Z" fill="#0F754E"/>
<path fill-rule="evenodd" clip-rule="evenodd" d="M53.968 22.0029H42.499C42.772 25.6461 45.9094 28.7649 49.1572 28.7649H59.8942C60.514 25.7367 58.381 22.0029 53.968 22.0029Z" fill="url(#paint0_linear_386_22695)"/>
<defs>
<linearGradient id="paint0_linear_386_22695" x1="59.9998" y1="26.2563" x2="42.499" y2="26.2563" gradientUnits="userSpaceOnUse">
<stop stop-color="#1F5CD7"/>
<stop offset="1" stop-color="#02AEFF"/>
</linearGradient>
</defs>
</svg>
