<svg width="30" height="30" viewBox="0 0 30 30" fill="none" xmlns="http://www.w3.org/2000/svg">
<path d="M6.83333 13.8334C8.12016 13.8334 9.16666 12.7869 9.16666 11.5001C9.16666 10.2132 8.12016 9.16675 6.83333 9.16675C5.5465 9.16675 4.5 10.2132 4.5 11.5001C4.5 12.7869 5.5465 13.8334 6.83333 13.8334Z" fill="white"/>
<path d="M25.5 6.83333H13.1497L11.1593 4.84183C10.94 4.6225 10.6437 4.5 10.3333 4.5H4.5C2.57033 4.5 1 6.07033 1 8V22C1 23.9297 2.57033 25.5 4.5 25.5H25.5C27.4297 25.5 29 23.9297 29 22V10.3333C29 8.40367 27.4297 6.83333 25.5 6.83333ZM4.5 6.83333H9.85033L11.8418 8.82483C12.06 9.04417 12.3575 9.16667 12.6667 9.16667H25.5C26.1428 9.16667 26.6667 9.6905 26.6667 10.3333V18.4288L20.53 12.2922C19.732 11.4942 18.4335 11.4942 17.6367 12.2922L12.0833 17.8455L10.6133 16.3755C9.81533 15.5775 8.51683 15.5775 7.72 16.3755L3.33333 20.7622V8C3.33333 7.35717 3.85717 6.83333 4.5 6.83333Z" fill="white"/>
</svg>
