<svg width="50" height="50" viewBox="0 0 50 50" fill="none" xmlns="http://www.w3.org/2000/svg">
<path d="M42.8555 24.9998C42.8555 25.986 42.056 26.7855 41.0698 26.7855L8.9269 26.7855C7.94068 26.7855 7.14119 25.986 7.14119 24.9998V24.9998C7.14119 24.0136 7.94068 23.2141 8.9269 23.2141L41.0698 23.2141C42.056 23.2141 42.8555 24.0136 42.8555 24.9998V24.9998Z" fill="#fff"/>
<path fill-rule="evenodd" clip-rule="evenodd" d="M24.477 40.5485C23.7796 41.2459 22.649 41.2459 21.9516 40.5485L7.66588 26.2628C6.96851 25.5654 6.96851 24.4348 7.66588 23.7374L21.9516 9.4517C22.649 8.75433 23.7796 8.75433 24.477 9.4517C25.1743 10.1491 25.1743 11.2797 24.477 11.9771L11.454 25.0001L24.477 38.0231C25.1743 38.7205 25.1743 39.8511 24.477 40.5485Z" fill="#fff"/>
</svg>
