<svg width="93" height="93" viewBox="0 0 93 93" fill="none" xmlns="http://www.w3.org/2000/svg">
<path fill-rule="evenodd" clip-rule="evenodd" d="M46.5001 84.7776C67.6402 84.7776 84.7776 67.6402 84.7776 46.5001C84.7776 25.3601 67.6402 8.22266 46.5001 8.22266C25.3601 8.22266 8.22266 25.3601 8.22266 46.5001C8.22266 67.6402 25.3601 84.7776 46.5001 84.7776ZM47.9355 29.5145C47.9355 27.5326 46.3289 25.926 44.347 25.926C42.3651 25.926 40.7585 27.5326 40.7585 29.5145V50.3278C40.7585 52.9704 42.9007 55.1125 45.5432 55.1125H61.8111C63.793 55.1125 65.3996 53.5059 65.3996 51.524C65.3996 49.5421 63.793 47.9355 61.8111 47.9355H47.9355V29.5145Z" fill="url(#paint0_linear_403_22771)"/>
<defs>
<linearGradient id="paint0_linear_403_22771" x1="-35.0396" y1="0.309062" x2="88.0323" y2="118.815" gradientUnits="userSpaceOnUse">
<stop stop-color="white"/>
<stop offset="1" stop-color="white" stop-opacity="0"/>
</linearGradient>
</defs>
</svg>
