<svg width="41" height="40" viewBox="0 0 41 40" fill="none" xmlns="http://www.w3.org/2000/svg">
<path fill-rule="evenodd" clip-rule="evenodd" d="M20.9687 10.6134C18.8666 8.97643 16.2145 7.99951 13.3325 7.99951C6.50401 7.99951 0.96875 13.4814 0.96875 20.2438C0.96875 27.0062 6.50401 32.488 13.3325 32.488C16.2142 32.488 18.866 31.5113 20.968 29.8746C23.071 31.5116 25.723 32.4885 28.605 32.4885C35.4335 32.4885 40.9688 27.0067 40.9688 20.2443C40.9688 13.4819 35.4335 8 28.605 8C25.7233 8 23.0715 8.97672 20.9687 10.6134ZM20.968 10.622C18.0956 12.864 16.2514 16.3409 16.2514 20.2438C16.2514 24.1469 18.0959 27.624 20.9687 29.8661C23.8419 27.624 25.6861 24.1471 25.6861 20.2443C25.6861 16.3411 23.8416 12.864 20.968 10.622Z" fill="black"/>
</svg>
