<svg width="16" height="16" viewBox="0 0 16 16" fill="none" xmlns="http://www.w3.org/2000/svg">
<path fill-rule="evenodd" clip-rule="evenodd" d="M8.66646 2.00004C8.66646 1.63185 8.36799 1.33337 7.9998 1.33337C7.63161 1.33337 7.33313 1.63185 7.33313 2.00004V2.50004H6.96152C5.47814 2.50004 4.25041 3.65338 4.15781 5.13387L4.01047 7.48951C3.9543 8.38764 3.65277 9.25314 3.13873 9.99176C2.67428 10.6591 3.08776 11.5809 3.89504 11.6777L6.16646 11.9503V12.6667C6.16646 13.6792 6.98727 14.5 7.9998 14.5C9.01232 14.5 9.83313 13.6792 9.83313 12.6667V11.9503L12.1045 11.6777C12.9118 11.5809 13.3253 10.6591 12.8609 9.99176C12.3468 9.25314 12.0453 8.38764 11.9891 7.48951L11.8418 5.13387C11.7492 3.65338 10.5214 2.50004 9.03807 2.50004H8.66646V2.00004ZM7.16646 12.6667C7.16646 13.1269 7.53956 13.5 7.9998 13.5C8.46003 13.5 8.83313 13.1269 8.83313 12.6667V12.1667H7.16646V12.6667Z" fill="black"/>
</svg>
