<svg width="16" height="16" viewBox="0 0 16 16" fill="none" xmlns="http://www.w3.org/2000/svg">
<path d="M8 3.75C8.13807 3.75 8.25 3.86193 8.25 4C8.25 4.13807 8.13807 4.25 8 4.25C7.86193 4.25 7.75 4.13807 7.75 4C7.75 3.86193 7.86193 3.75 8 3.75ZM8 7.75C8.13807 7.75 8.25 7.86193 8.25 8C8.25 8.13807 8.13807 8.25 8 8.25C7.86193 8.25 7.75 8.13807 7.75 8C7.75 7.86193 7.86193 7.75 8 7.75ZM8 11.75C8.13807 11.75 8.25 11.8619 8.25 12C8.25 12.1381 8.13807 12.25 8 12.25C7.86193 12.25 7.75 12.1381 7.75 12C7.75 11.8619 7.86193 11.75 8 11.75Z" fill="black" stroke="black" stroke-width="1.5"/>
</svg>
