<svg width="24" height="24" viewBox="0 0 24 24" fill="none" xmlns="http://www.w3.org/2000/svg">
<path d="M11.0164 16.0761C9.46769 15.9146 8.0705 15.5332 6.87397 14.5973C6.72576 14.4808 6.57255 14.3692 6.43766 14.2393C5.91309 13.7364 5.86146 13.1602 6.27529 12.5673C6.63 12.0594 7.22452 11.9237 7.84235 12.2151C7.96211 12.2733 8.07685 12.3412 8.1854 12.4183C10.4144 13.9495 13.4761 13.992 15.7134 12.4865C15.9349 12.3167 16.1714 12.1785 16.4462 12.1077C16.9807 11.9703 17.4787 12.166 17.7651 12.6339C18.0923 13.1668 18.0882 13.6881 17.6852 14.1019C17.0657 14.7372 16.3221 15.1968 15.4953 15.5174C14.7134 15.8205 13.8574 15.9729 13.0098 16.0745C13.138 16.2135 13.198 16.2818 13.2779 16.3626C14.4286 17.5183 15.5844 18.669 16.7318 19.8297C17.1223 20.2244 17.2039 20.7148 16.9882 21.1736C16.7534 21.6766 16.2272 22.0063 15.7101 21.9713C15.3837 21.9488 15.1281 21.7856 14.9016 21.5575C14.0331 20.6832 13.1489 19.8256 12.2979 18.9355C12.0498 18.6773 11.9315 18.7256 11.7125 18.9504C10.8373 19.8485 9.95246 20.7369 9.05803 21.6158C8.65669 22.0113 8.17957 22.0821 7.71495 21.8572C7.22036 21.6174 6.90561 21.1129 6.92976 20.6058C6.94641 20.2627 7.11544 20.0004 7.35108 19.7648C8.49015 18.6282 9.62506 17.4883 10.7616 16.3492C10.8366 16.2735 10.9065 16.1927 11.0164 16.0761Z" fill="black"/>
<path d="M11.9608 12.1155C9.19718 12.1063 6.93153 9.81485 6.94735 7.04711C6.96317 4.24772 9.23049 1.99206 12.0215 2.00039C14.8184 2.00872 17.0633 4.29602 17.0491 7.12371C17.035 9.88563 14.7527 12.1246 11.9616 12.1155H11.9608ZM14.4729 7.05294C14.4737 6.72823 14.4102 6.40658 14.2862 6.10648C14.1622 5.80638 13.9801 5.53377 13.7503 5.30432C13.5206 5.07487 13.2477 4.89312 12.9474 4.76952C12.6472 4.64592 12.3254 4.58291 12.0007 4.58412C11.6731 4.58276 11.3486 4.64666 11.0459 4.77208C10.7433 4.8975 10.4687 5.08193 10.2381 5.31461C10.0075 5.54729 9.82559 5.82356 9.70291 6.12731C9.58023 6.43105 9.51927 6.75619 9.52358 7.08375C9.52521 7.40839 9.591 7.72952 9.71718 8.02864C9.84335 8.32777 10.0274 8.59901 10.2588 8.82674C10.4902 9.05448 10.7643 9.23423 11.0654 9.35565C11.3665 9.47707 11.6886 9.53777 12.0132 9.53425C12.338 9.53459 12.6597 9.47055 12.9597 9.34582C13.2596 9.22109 13.5318 9.03815 13.7606 8.80757C13.9894 8.57699 14.1702 8.30335 14.2926 8.00247C14.415 7.70158 14.4766 7.37942 14.4737 7.0546L14.4729 7.05294Z" fill="black"/>
</svg>
