<svg width="16" height="16" viewBox="0 0 16 16" fill="none" xmlns="http://www.w3.org/2000/svg">
<path d="M8.69573 3.36216C8.69573 2.97796 8.38428 2.6665 8.00008 2.6665C7.61588 2.6665 7.30443 2.97796 7.30443 3.36216V7.30418H3.3624C2.9782 7.30418 2.66675 7.61564 2.66675 7.99984C2.66675 8.38403 2.9782 8.69549 3.3624 8.69549H7.30443V12.6375C7.30443 13.0217 7.61588 13.3332 8.00008 13.3332C8.38428 13.3332 8.69573 13.0217 8.69573 12.6375V8.69549H12.6378C13.022 8.69549 13.3334 8.38404 13.3334 7.99984C13.3334 7.61564 13.022 7.30418 12.6378 7.30418H8.69573V3.36216Z" fill="black"/>
</svg>
