<svg width="176" height="178" viewBox="0 0 176 178" fill="none" xmlns="http://www.w3.org/2000/svg">
<path d="M101.847 74.3844C104.105 68.2908 105.124 61.873 104.9 55.4868L175.393 55.4868C181.916 55.4868 187.204 60.7748 187.204 67.2978V74.3844H101.847Z" fill="url(#paint0_linear_397_22656)"/>
<path d="M55.2949 125.753C55.3184 125.755 55.3419 125.757 55.3655 125.758C56.8303 125.855 58.4115 124.187 75.0341 107.544C84.8798 97.6986 93.5034 88.8905 94.2182 87.9913C96.1773 85.4935 97.868 82.8647 99.29 80.1408H108.963V112.091C108.963 114.894 111.235 117.166 114.038 117.166H125.691C128.494 117.166 130.766 114.894 130.766 112.091V80.1408H184.434V168.872C184.434 178.656 176.502 186.588 166.717 186.588H73.0114C63.2268 186.588 55.2949 178.656 55.2949 168.872L55.2949 125.753Z" fill="url(#paint1_linear_397_22656)"/>
<path opacity="0.5" d="M51.6875 7.80782C51.318 7.854 50.0247 8.01566 48.8239 8.15422C44.0897 8.70847 37.7158 10.6714 33.0971 13.0501C23.4902 17.9459 15.3612 26.2365 10.8349 35.728C2.59049 52.9558 4.83057 73.0703 16.6314 88.1273C17.3473 89.028 25.9843 97.8497 35.8453 107.711C51.7567 123.645 53.8583 125.678 54.6434 125.816C56.8142 126.186 55.6827 127.202 75.1506 107.711C85.0115 97.8497 93.6485 89.028 94.3644 88.1273C108.475 70.1374 108.682 45.358 94.8956 27.1833C93.0712 24.7816 89.6302 21.2021 87.0207 19.0313C78.2451 11.6875 66.6059 7.55379 55.0591 7.69235C53.5811 7.71544 52.0801 7.78472 51.6875 7.80782ZM61.1558 35.8434C65.1048 36.9057 68.4765 38.9149 71.3401 41.894C74.2961 44.9885 75.8895 47.8059 77.0211 51.9166C77.6677 54.3414 77.737 59.8377 77.1366 62.2625C75.4739 68.8442 71.2939 74.1095 65.3358 77.1117C62.1027 78.7282 59.5162 79.3287 55.6134 79.3518C51.6182 79.3518 49.2857 78.8437 45.9141 77.2041C43.0966 75.8185 41.2261 74.4559 39.2169 72.2851C36.6535 69.4908 34.8291 66.0961 33.8592 62.2625C33.2588 59.8377 33.3281 54.3414 33.9747 51.9166C36.3302 43.3258 42.8657 37.1829 51.4565 35.4739C53.8121 35.0121 58.7772 35.1968 61.1558 35.8434Z" fill="white"/>
<defs>
<linearGradient id="paint0_linear_397_22656" x1="187.204" y1="186.595" x2="48.7368" y2="93.1202" gradientUnits="userSpaceOnUse">
<stop stop-color="white"/>
<stop offset="1" stop-color="white" stop-opacity="0"/>
</linearGradient>
<linearGradient id="paint1_linear_397_22656" x1="187.204" y1="186.595" x2="48.7368" y2="93.1202" gradientUnits="userSpaceOnUse">
<stop stop-color="white"/>
<stop offset="1" stop-color="white" stop-opacity="0"/>
</linearGradient>
</defs>
</svg>
