<svg width="16" height="16" viewBox="0 0 16 16" fill="none" xmlns="http://www.w3.org/2000/svg">
<path fill-rule="evenodd" clip-rule="evenodd" d="M12.7887 3.11087L7.99928 3L3.20988 3.11087C2.24205 3.13054 1.42155 3.82822 1.24656 4.78031C0.855314 6.90903 0.855314 9.09124 1.24656 11.22C1.42155 12.1721 2.24204 12.8697 3.20988 12.8894L7.99928 13.0003L12.7887 12.8894C13.7565 12.8697 14.577 12.1721 14.752 11.22C15.1432 9.09124 15.1432 6.90903 14.752 4.78031C14.577 3.82822 13.7565 3.13054 12.7887 3.11087ZM13.9993 7.33346C13.9993 7.70165 13.7008 8.00012 13.3326 8.00012H2.66593C2.29774 8.00012 1.99927 7.70165 1.99927 7.33346C1.99927 6.96527 2.29774 6.66679 2.66593 6.66679H13.3326C13.7008 6.66679 13.9993 6.96527 13.9993 7.33346Z" fill="black"/>
</svg>
