<svg width="16" height="16" viewBox="0 0 16 16" fill="none" xmlns="http://www.w3.org/2000/svg">
<path d="M3.33271 6.57353C4.61031 9.35612 6.88365 11.5685 9.71001 12.7678L10.1631 12.9697C11.1996 13.4315 12.4181 13.0806 13.0503 12.1383L13.6424 11.2558C13.8349 10.9689 13.7763 10.5825 13.5074 10.3655L11.4995 8.74565C11.2046 8.50773 10.7709 8.56315 10.5453 8.86759L9.92411 9.70576C8.33024 8.91953 7.03621 7.6255 6.24998 6.03162L7.08815 5.41048C7.39259 5.18486 7.44801 4.75119 7.21008 4.45626L5.59017 2.4483C5.37327 2.17945 4.98693 2.1208 4.70002 2.31318L3.81146 2.90898C2.86323 3.54479 2.51431 4.77335 2.9868 5.81265L3.33219 6.57239L3.33271 6.57353Z" fill="black"/>
</svg>
