<svg width="16" height="16" viewBox="0 0 16 16" fill="none" xmlns="http://www.w3.org/2000/svg">
<path d="M8.97978 5.01989C9.17504 5.21516 9.49162 5.21516 9.68689 5.01989L10.1667 4.54011L10.1667 11.333C10.1667 11.6092 10.3905 11.833 10.6667 11.833C10.9428 11.833 11.1667 11.6092 11.1667 11.333L11.1667 4.54011L11.6464 5.01989C11.8417 5.21516 12.1583 5.21516 12.3536 5.01989C12.5488 4.82463 12.5488 4.50805 12.3536 4.31279L11.0202 2.97945C10.825 2.78419 10.5084 2.78419 10.3131 2.97945L8.97978 4.31279C8.78452 4.50805 8.78452 4.82463 8.97978 5.01989Z" fill="black"/>
<path d="M5.83333 11.4592L6.31311 10.9795C6.50838 10.7842 6.82496 10.7842 7.02022 10.9795C7.21548 11.1747 7.21548 11.4913 7.02022 11.6866L5.68689 13.0199C5.49162 13.2152 5.17504 13.2152 4.97978 13.0199L3.64645 11.6866C3.45118 11.4913 3.45118 11.1747 3.64645 10.9795C3.84171 10.7842 4.15829 10.7842 4.35355 10.9795L4.83333 11.4592L4.83333 4.66634C4.83333 4.3902 5.05719 4.16634 5.33333 4.16634C5.60948 4.16634 5.83333 4.3902 5.83333 4.66634L5.83333 11.4592Z" fill="black"/>
</svg>
