<svg width="16" height="16" viewBox="0 0 16 16" fill="none" xmlns="http://www.w3.org/2000/svg">
<path d="M13.352 9.39589C13.2972 9.44431 13.264 9.51277 13.2605 9.58585C13.2282 10.2609 13.1727 10.9351 13.094 11.6074C12.9913 12.4858 12.281 13.1855 11.3942 13.2847C9.15699 13.5347 6.84261 13.5347 4.60538 13.2847C3.71864 13.1855 3.00832 12.4858 2.90558 11.6074C2.63825 9.32167 2.63825 7.01261 2.90558 4.72693C3.00832 3.84848 3.71864 3.14874 4.60538 3.04963C6.0804 2.88478 7.59075 2.82868 9.08877 2.88122C9.19694 2.88501 9.28902 2.8027 9.29656 2.69472L9.32932 2.22604C9.33133 2.19845 9.33405 2.17115 9.33743 2.14416C9.35371 2.01456 9.26385 1.88678 9.13331 1.88215C7.58294 1.82723 6.02163 1.88512 4.49431 2.05582C3.15294 2.20574 2.07005 3.26241 1.91235 4.61076C1.63599 6.97363 1.63599 9.36065 1.91235 11.7235C2.07005 13.0719 3.15294 14.1285 4.49431 14.2785C6.80536 14.5368 9.19425 14.5368 11.5053 14.2785C12.8467 14.1285 13.9296 13.0719 14.0873 11.7235C14.1999 10.7603 14.2666 9.79309 14.2875 8.82513C14.2901 8.70363 14.141 8.64309 14.0557 8.72967C13.829 8.95984 13.5943 9.18205 13.352 9.39589Z" fill="black"/>
<path d="M5.24461 10.367C5.09712 10.3264 4.99623 10.1906 4.9999 10.0376L5.0394 8.39506C5.09594 6.04308 7.01882 4.16587 9.37148 4.16588L10.2098 4.16588C10.2273 3.75006 10.2512 3.33444 10.2814 2.91917L10.3267 2.29874C10.3543 1.92011 10.7765 1.70845 11.0964 1.91286C12.477 2.79506 13.6772 3.93179 14.6331 5.26246L14.9372 5.68575C15.0207 5.80197 15.0207 5.95849 14.9372 6.0747L14.6331 6.49799C13.6772 7.82867 12.477 8.9654 11.0964 9.84759C10.8329 10.0159 10.4992 9.90209 10.3745 9.64521C10.3483 9.59066 10.3315 9.52774 10.3267 9.46171L10.2814 8.84129C10.2453 8.34603 10.2183 7.85028 10.2003 7.35429L9.96429 7.31876C8.46012 7.09237 6.97236 7.81821 6.225 9.14307L5.62347 10.2094C5.59482 10.2602 5.55416 10.3012 5.50693 10.3301C5.43029 10.3769 5.33578 10.3921 5.24461 10.367Z" fill="black"/>
</svg>
