<svg width="20" height="20" viewBox="0 0 20 20" fill="none" xmlns="http://www.w3.org/2000/svg">
<path d="M10.9669 3.67205C10.3719 3.31374 9.62749 3.31375 9.03246 3.67205L8.6022 3.93112C7.55825 4.55974 6.38627 4.94548 5.17303 5.05978L4.90197 5.08532C4.36689 5.13573 3.95801 5.58495 3.95801 6.1224V7.4923C3.95801 9.80782 4.89808 12.0241 6.56287 13.6335L9.27567 16.256C9.67943 16.6463 10.3199 16.6463 10.7237 16.256L13.4365 13.6335C15.1013 12.0241 16.0413 9.80782 16.0413 7.4923V6.1224C16.0413 5.58495 15.6325 5.13573 15.0974 5.08532L14.8263 5.05978C13.6131 4.94548 12.4411 4.55974 11.3971 3.93112L10.9669 3.67205Z" fill="black"/>
</svg>
