<svg width="16" height="16" viewBox="0 0 16 16" fill="none" xmlns="http://www.w3.org/2000/svg">
<path fill-rule="evenodd" clip-rule="evenodd" d="M2.33325 8.00016C2.33325 4.87055 4.87031 2.3335 7.99992 2.3335C11.1295 2.3335 13.6666 4.87055 13.6666 8.00016C13.6666 11.1298 11.1295 13.6668 7.99992 13.6668C4.87031 13.6668 2.33325 11.1298 2.33325 8.00016ZM8.49992 4.66683C8.49992 4.39069 8.27606 4.16683 7.99992 4.16683C7.72378 4.16683 7.49992 4.39069 7.49992 4.66683V8.00016C7.49992 8.17256 7.58873 8.33279 7.73492 8.42416L9.73492 9.67416C9.96909 9.82052 10.2776 9.74933 10.4239 9.51516C10.5703 9.28099 10.4991 8.97252 10.2649 8.82616L8.49992 7.72304V4.66683Z" fill="black"/>
</svg>
