<svg width="16" height="16" viewBox="0 0 16 16" fill="none" xmlns="http://www.w3.org/2000/svg">
<path fill-rule="evenodd" clip-rule="evenodd" d="M2.3335 8.00016C2.3335 4.87055 4.87055 2.3335 8.00016 2.3335C11.1298 2.3335 13.6668 4.87055 13.6668 8.00016C13.6668 11.1298 11.1298 13.6668 8.00016 13.6668C4.87055 13.6668 2.3335 11.1298 2.3335 8.00016ZM8.50016 4.66683C8.50016 4.39069 8.27631 4.16683 8.00016 4.16683C7.72402 4.16683 7.50016 4.39069 7.50016 4.66683V8.00016C7.50016 8.17256 7.58897 8.33279 7.73516 8.42416L9.73516 9.67416C9.96933 9.82052 10.2778 9.74933 10.4242 9.51516C10.5705 9.28099 10.4993 8.97252 10.2652 8.82616L8.50016 7.72304V4.66683Z" fill="white"/>
</svg>
