<svg width="20" height="20" viewBox="0 0 20 20" fill="none" xmlns="http://www.w3.org/2000/svg">
<path fill-rule="evenodd" clip-rule="evenodd" d="M15.4028 16.4922L15.4034 16.4907L15.4179 16.4545L17.9169 3.85526V3.81434C17.9169 3.50042 17.8009 3.22637 17.5485 3.06199C17.3276 2.9181 17.0736 2.90786 16.8955 2.92137C16.7072 2.93567 16.5296 2.98268 16.4066 3.02182C16.3434 3.04195 16.2904 3.06135 16.2526 3.07602C16.2336 3.08338 16.2182 3.08963 16.207 3.09429L16.196 3.09892L2.2628 8.5647L2.25896 8.56607C2.25144 8.56881 2.24149 8.57253 2.22947 8.5772C2.20551 8.58653 2.17289 8.59988 2.13457 8.61725C2.05934 8.65134 1.95539 8.70396 1.84997 8.77615C1.67093 8.89876 1.33 9.18903 1.38757 9.64922C1.43525 10.0304 1.69801 10.2725 1.87515 10.3978C1.9701 10.465 2.06095 10.5134 2.12747 10.5451C2.16118 10.5612 2.18981 10.5735 2.21113 10.5821C2.22182 10.5865 2.23076 10.59 2.23768 10.5926L2.24653 10.5959L2.25219 10.598L4.68989 11.4187C4.68167 11.5716 4.69684 11.7276 4.7374 11.8814L5.95847 16.5134C6.10325 17.0626 6.6001 17.4452 7.16808 17.4448C7.67718 17.4444 8.12871 17.1364 8.32053 16.6769L10.2269 14.6385L13.5011 17.1487L13.5476 17.169C13.8451 17.2988 14.123 17.34 14.3771 17.3053C14.6309 17.2706 14.8325 17.1642 14.984 17.043C15.133 16.9238 15.2352 16.7892 15.2994 16.6879C15.3321 16.6364 15.3564 16.5911 15.3733 16.5571C15.3817 16.54 15.3884 16.5255 15.3934 16.5142L15.3997 16.4997L15.4019 16.4944L15.4028 16.4922ZM5.94606 11.5628C5.91831 11.4575 5.96188 11.3464 6.05378 11.288L14.3221 6.03726C14.3221 6.03726 14.8084 5.74201 14.7911 6.03726C14.7911 6.03726 14.8779 6.0894 14.6173 6.3325C14.3701 6.5634 8.7242 12.0143 8.15292 12.5659C8.11994 12.5977 8.10026 12.6342 8.08864 12.6786L7.16713 16.1948L5.94606 11.5628Z" fill="black"/>
</svg>
