<svg width="20" height="20" viewBox="0 0 20 20" fill="none" xmlns="http://www.w3.org/2000/svg">
<path d="M18.1751 5.18904C18.2233 5.12173 18.152 5.03482 18.0748 5.06476C17.5258 5.27754 16.9521 5.4211 16.3669 5.49184C17.0185 5.10257 17.5213 4.51001 17.8002 3.80845C17.8286 3.73699 17.7505 3.67316 17.6832 3.71034C17.0776 4.04479 16.4245 4.28562 15.746 4.42432C15.7176 4.43012 15.6883 4.42046 15.6684 4.39942C15.1593 3.86219 14.4891 3.50449 13.7584 3.38088C13.0125 3.25468 12.2457 3.37964 11.5784 3.73617C10.9111 4.09269 10.381 4.66062 10.0713 5.35087C9.77679 6.00717 9.69732 6.73876 9.84258 7.44137C9.85385 7.49588 9.81118 7.54735 9.75562 7.5439C8.43557 7.46192 7.14582 7.11081 5.96581 6.51173C4.7888 5.91417 3.74653 5.08286 2.90247 4.06909C2.86501 4.0241 2.79401 4.02992 2.76672 4.08171C2.50407 4.5801 2.36656 5.1356 2.36693 5.70017C2.36587 6.26216 2.50378 6.81569 2.7684 7.31148C3.03301 7.80727 3.41612 8.22993 3.8836 8.54184C3.38783 8.52835 2.90172 8.40579 2.45964 8.18357C2.40267 8.15493 2.33433 8.19571 2.33729 8.2594C2.37177 9.00043 2.64381 9.74437 3.1147 10.3151C3.6158 10.9225 4.31131 11.3382 5.0836 11.4918C4.78631 11.5823 4.47766 11.63 4.16693 11.6335C3.99782 11.6315 3.82903 11.6191 3.66155 11.5962C3.59945 11.5877 3.54874 11.6467 3.57048 11.7054C3.80083 12.3283 4.20776 12.8719 4.74283 13.2686C5.31487 13.6928 6.00491 13.9281 6.71693 13.9418C5.5146 14.8879 4.03017 15.4042 2.50027 15.4085C2.34306 15.409 2.18593 15.4039 2.02917 15.3932C1.94083 15.3872 1.9002 15.5049 1.97635 15.5501C3.46699 16.4347 5.17076 16.9023 6.9086 16.9002C8.19168 16.9135 9.46455 16.671 10.6529 16.1869C11.8412 15.7028 12.9211 14.9867 13.8296 14.0806C14.7381 13.1744 15.4569 12.0963 15.9441 10.9093C16.4312 9.72219 16.677 8.44995 16.6669 7.16684V6.76698C16.6669 6.74067 16.6794 6.71593 16.7004 6.70008C17.2656 6.27329 17.7627 5.76376 18.1751 5.18904Z" fill="black"/>
</svg>
