<svg width="60" height="60" viewBox="0 0 60 60" fill="none" xmlns="http://www.w3.org/2000/svg">
<g clip-path="url(#clip0_386_22680)">
<path d="M21.9893 38.9059L25.054 21.6284H29.8427L26.8734 38.9059H21.9893Z" fill="#3C58BF"/>
<path d="M21.9893 38.9059L25.916 21.6284H29.8427L26.8734 38.9059H21.9893Z" fill="#293688"/>
<path d="M43.9786 21.7671C43.0343 21.3839 41.5227 21 39.6341 21C34.912 21 31.5118 23.3975 31.5118 26.8492C31.5118 29.439 33.8728 30.7809 35.762 31.6442C37.6506 32.5074 38.2173 33.0829 38.2173 33.8494C38.2173 35.0004 36.7063 35.5759 35.3838 35.5759C33.4952 35.5759 32.4561 35.2882 30.8508 34.6172L30.1893 34.3294L29.5283 38.2612C30.6617 38.7405 32.7394 39.2199 34.912 39.2199C39.9174 39.2199 43.2228 36.8224 43.2228 33.1784C43.2228 31.1648 41.9951 29.6306 39.1616 28.3841C37.4615 27.5208 36.4224 27.0415 36.4224 26.1788C36.4224 25.4111 37.273 24.644 39.1616 24.644C40.7675 24.644 41.9009 24.9317 42.7509 25.315L43.2228 25.5072L43.9786 21.7665V21.7671Z" fill="#3C58BF"/>
<path d="M43.9786 21.7671C43.0343 21.3839 41.5227 21 39.6341 21C34.912 21 32.3618 23.3975 32.3618 26.8492C32.3618 29.439 33.8728 30.7809 35.762 31.6442C37.6506 32.5074 38.2173 33.0829 38.2173 33.8494C38.2173 35.0004 36.7063 35.5759 35.3838 35.5759C33.4952 35.5759 32.4561 35.2882 30.8508 34.6172L30.1893 34.3294L29.5283 38.2612C30.6617 38.7405 32.7394 39.2199 34.912 39.2199C39.9174 39.2199 43.2228 36.8224 43.2228 33.1784C43.2228 31.1648 41.9951 29.6306 39.1616 28.3841C37.4615 27.5208 36.4224 27.0415 36.4224 26.1788C36.4224 25.4111 37.273 24.644 39.1616 24.644C40.7675 24.644 41.9009 24.9317 42.7509 25.315L43.2228 25.5072L43.9786 21.7665V21.7671Z" fill="#293688"/>
<path d="M52.3107 21.6284C51.1717 21.6284 50.3172 21.7245 49.8422 22.8762L42.7227 38.9059H47.8494L48.798 36.0265H54.8734L55.4433 38.9059H60.0001L56.0131 21.6284H52.3101H52.3107ZM50.1275 33.1465C50.4121 32.2827 52.0261 28.0594 52.0261 28.0594C52.0261 28.0594 52.4056 27.0039 52.6902 26.3317L52.9754 27.9633C52.9754 27.9633 53.9241 32.2827 54.1145 33.2427H50.1275V33.1465Z" fill="#3C58BF"/>
<path d="M53.4498 21.6284C52.3107 21.6284 51.4563 21.7245 50.9819 22.8762L42.7227 38.9059H47.8494L48.798 36.0265H54.8734L55.4433 38.9059H60.0001L56.0131 21.6284H53.4498ZM50.1275 33.1465C50.507 32.1872 52.0261 28.0594 52.0261 28.0594C52.0261 28.0594 52.4056 27.0039 52.6902 26.3317L52.9754 27.9633C52.9754 27.9633 53.9241 32.2827 54.1145 33.2427H50.1275V33.1465Z" fill="#293688"/>
<path d="M13.1675 33.7225L12.6875 31.2722C11.8242 28.445 9.041 25.3351 5.96875 23.8272L10.2881 38.9057H15.4714L23.2462 21.9424H18.063L13.1675 33.7225Z" fill="#3C58BF"/>
<path d="M13.1675 33.7225L12.6875 31.2722C11.8242 28.445 9.041 25.3351 5.96875 23.8272L10.2881 38.9057H15.4714L23.2462 21.9424H19.023L13.1675 33.7225Z" fill="#293688"/>
<path d="M0 21.6284L0.865131 21.8232C7.01591 23.2839 11.2454 26.9844 12.8796 31.3666L11.1493 23.0892C10.8609 21.9206 9.99581 21.6284 8.93906 21.6284H0Z" fill="#FFBC00"/>
<path d="M0 21.6284C6.15141 23.0565 11.2461 26.7689 12.8796 31.0525L11.2461 24.2935C10.9571 23.1514 9.99581 22.4854 8.93906 22.4854L0 21.6284Z" fill="#F7981D"/>
<path d="M0 21.6284C6.15141 23.0565 11.2461 26.7689 12.8796 31.0525L11.7261 27.3394C11.4377 26.1978 11.0538 25.055 9.70743 24.5794L0 21.6284Z" fill="#ED7C00"/>
<path d="M17.9985 33.1403L14.7603 29.9022L13.2368 33.521L12.856 31.1405C11.9985 28.2831 9.2372 25.1405 6.18945 23.6169L10.4749 38.8551H15.6179L17.9991 33.1403H17.9985ZM26.8565 38.8551L22.7608 34.6645L21.9993 38.8551H26.8558H26.8565ZM37.8091 32.9499C38.1905 33.3307 38.3809 33.6165 38.2854 33.9979C38.2854 35.1407 36.7618 35.7118 35.4286 35.7118C33.5237 35.7118 32.4757 35.4259 30.8567 34.7594L30.1907 34.4741L29.5235 38.3788C30.6669 38.8551 32.7616 39.3307 34.9518 39.3307C38.0001 39.3307 40.4761 38.4737 41.9042 36.9495L37.8091 32.9499ZM43.331 38.8551H47.8068L48.7593 35.9977H54.8548L55.4265 38.8551H59.9972L58.3788 31.9026L52.664 26.3788L52.9499 27.9024C52.9499 27.9024 53.9023 32.1878 54.0933 33.1403H50.0919C50.4732 32.1878 51.9968 28.0928 51.9968 28.0928C51.9968 28.0928 52.3775 27.0454 52.6634 26.3788" fill="#051244"/>
</g>
<defs>
<clipPath id="clip0_386_22680">
<rect width="60" height="60" fill="white"/>
</clipPath>
</defs>
</svg>
