<svg width="16" height="16" viewBox="0 0 16 16" fill="none" xmlns="http://www.w3.org/2000/svg">
<path d="M8.00008 6.49984C7.17165 6.49984 6.50008 7.17141 6.50008 7.99984C6.50008 8.82826 7.17165 9.49984 8.00008 9.49984C8.82851 9.49984 9.50008 8.82826 9.50008 7.99984C9.50008 7.17141 8.82851 6.49984 8.00008 6.49984Z" fill="black"/>
<path fill-rule="evenodd" clip-rule="evenodd" d="M8.00008 3.6665C6.2549 3.6665 4.68542 4.36743 3.55449 5.23541C2.98829 5.66996 2.5237 6.15259 2.19774 6.62229C1.87799 7.08304 1.66675 7.56753 1.66675 7.99984C1.66675 8.43215 1.87799 8.91663 2.19774 9.37738C2.5237 9.84708 2.98829 10.3297 3.55449 10.7643C4.68542 11.6322 6.2549 12.3332 8.00008 12.3332C9.74526 12.3332 11.3147 11.6322 12.4457 10.7643C13.0119 10.3297 13.4765 9.84708 13.8024 9.37738C14.1222 8.91663 14.3334 8.43215 14.3334 7.99984C14.3334 7.56753 14.1222 7.08304 13.8024 6.62229C13.4765 6.15259 13.0119 5.66996 12.4457 5.23541C11.3147 4.36743 9.74526 3.6665 8.00008 3.6665ZM5.50008 7.99984C5.50008 6.61913 6.61937 5.49984 8.00008 5.49984C9.38079 5.49984 10.5001 6.61913 10.5001 7.99984C10.5001 9.38055 9.38079 10.4998 8.00008 10.4998C6.61937 10.4998 5.50008 9.38055 5.50008 7.99984Z" fill="black"/>
</svg>
