<svg width="16" height="16" viewBox="0 0 16 16" fill="none" xmlns="http://www.w3.org/2000/svg">
<path fill-rule="evenodd" clip-rule="evenodd" d="M4.64442 3.87593C6.21294 3.73569 7.79136 3.74793 9.35752 3.91248L9.76267 3.95505C10.536 4.0363 11.1583 4.62284 11.2878 5.38625L13.4734 4.22508C13.6215 4.14638 13.7992 4.1472 13.9466 4.22723C14.0939 4.30727 14.1914 4.45588 14.206 4.62296L14.2226 4.81219C14.4086 6.9333 14.4086 9.06662 14.2226 11.1877L14.206 11.377C14.1914 11.544 14.0939 11.6926 13.9466 11.7727C13.7992 11.8527 13.6215 11.8535 13.4734 11.7748L11.2878 10.6137C11.1583 11.3771 10.536 11.9636 9.76267 12.0449L9.35752 12.0874C7.79136 12.252 6.21294 12.2642 4.64442 12.124L3.5899 12.0297C2.7953 11.9587 2.15328 11.3516 2.03787 10.5623C1.78946 8.86309 1.78946 7.13684 2.03787 5.43768C2.15328 4.6483 2.7953 4.04126 3.58989 3.97022L4.64442 3.87593ZM11.4111 9.5777C11.4646 9.5861 11.5176 9.60341 11.5681 9.63023L13.2715 10.5352C13.3923 8.8472 13.3923 7.15272 13.2715 5.46472L11.5681 6.36969C11.5176 6.39651 11.4646 6.41381 11.4111 6.42222C11.5045 7.47197 11.5045 8.52795 11.4111 9.5777Z" fill="black"/>
</svg>
