<svg width="41" height="40" viewBox="0 0 41 40" fill="none" xmlns="http://www.w3.org/2000/svg">
<path d="M21.6558 17.1403C21.633 18.944 23.2593 19.9505 24.4845 20.5489C25.7432 21.163 26.166 21.5567 26.1612 22.1057C26.1516 22.9461 25.1571 23.317 24.2262 23.3314C22.6023 23.3567 21.6582 22.892 20.9075 22.5404L20.3225 25.2844C21.0757 25.6323 22.4702 25.9357 23.9163 25.949C27.3107 25.949 29.5316 24.2694 29.5436 21.6651C29.5568 18.36 24.9829 18.177 25.0142 16.6997C25.025 16.2518 25.4514 15.7738 26.3858 15.6522C26.8483 15.5908 28.1251 15.5438 29.5724 16.212L30.1406 13.5572C29.3622 13.273 28.3617 13.0009 27.1161 13.0009C23.9211 13.0009 21.6738 14.7034 21.6558 17.1403ZM35.5997 13.2297C34.9799 13.2297 34.4574 13.5921 34.2244 14.1483L29.3755 25.7539H32.7674L33.4425 23.8841H37.5876L37.9791 25.7539H40.9688L38.3599 13.2297H35.5997ZM36.0742 16.613L37.0531 21.3159H34.3722L36.0742 16.613ZM17.5431 13.2297L14.8694 25.7539H18.1017L20.7742 13.2297H17.5431ZM12.7614 13.2297L9.39707 21.7542L8.03619 14.5059C7.87644 13.6968 7.24585 13.2297 6.54559 13.2297H1.04562L0.96875 13.5933C2.09781 13.8389 3.38062 14.235 4.15775 14.6588C4.63339 14.9177 4.76912 15.1441 4.92527 15.7593L7.50289 25.7539H10.9189L16.1558 13.2297H12.7614Z" fill="black"/>
</svg>
