<svg width="172" height="86" viewBox="0 0 172 86" fill="none" xmlns="http://www.w3.org/2000/svg">
<path d="M108.48 10.4513C107.129 11.763 108.728 15.5344 112.052 18.875C115.377 22.2156 119.168 23.8604 120.52 22.5487C121.871 21.237 120.272 17.4656 116.948 14.125C113.623 10.7844 109.832 9.13962 108.48 10.4513Z" fill="#FF6138"/>
<path d="M13.32 45.468C11.592 45.468 10.008 45.24 8.568 44.784C7.128 44.304 5.892 43.548 4.86 42.516C3.852 41.484 3.06 40.152 2.484 38.52C1.908 36.888 1.62 34.896 1.62 32.544V31.86C1.62 29.652 1.92 27.756 2.52 26.172C3.12 24.588 3.948 23.292 5.004 22.284C6.06 21.276 7.296 20.532 8.712 20.052C10.152 19.572 11.688 19.332 13.32 19.332C14.784 19.332 16.152 19.5 17.424 19.836C18.72 20.172 19.848 20.7 20.808 21.42C21.792 22.14 22.584 23.076 23.184 24.228C23.808 25.38 24.18 26.784 24.3 28.44H17.604C17.484 27.768 17.292 27.204 17.028 26.748C16.764 26.268 16.44 25.884 16.056 25.596C15.672 25.284 15.24 25.068 14.76 24.948C14.304 24.804 13.824 24.732 13.32 24.732C12.6 24.732 11.928 24.864 11.304 25.128C10.704 25.368 10.176 25.776 9.72 26.352C9.288 26.904 8.94 27.636 8.676 28.548C8.436 29.46 8.316 30.564 8.316 31.86V32.616C8.316 34.008 8.448 35.184 8.712 36.144C9 37.08 9.372 37.848 9.828 38.448C10.284 39.024 10.812 39.444 11.412 39.708C12.012 39.948 12.648 40.068 13.32 40.068C14.544 40.068 15.516 39.78 16.236 39.204C16.98 38.604 17.436 37.656 17.604 36.36H24.3C24.204 38.04 23.856 39.456 23.256 40.608C22.68 41.76 21.9 42.696 20.916 43.416C19.956 44.136 18.828 44.664 17.532 45C16.236 45.312 14.832 45.468 13.32 45.468ZM26.2786 19.8H31.8226V28.332C32.0146 28.02 32.2786 27.696 32.6146 27.36C32.9506 27.024 33.3586 26.712 33.8386 26.424C34.3426 26.136 34.9186 25.908 35.5666 25.74C36.2146 25.548 36.9346 25.452 37.7266 25.452C40.0066 25.452 41.7226 26.076 42.8746 27.324C44.0506 28.548 44.6386 30.288 44.6386 32.544V45H39.0946V33.84C39.0946 32.592 38.8186 31.656 38.2666 31.032C37.7386 30.384 36.8626 30.06 35.6386 30.06C34.2946 30.06 33.3226 30.42 32.7226 31.14C32.1226 31.86 31.8226 32.76 31.8226 33.84V45H26.2786V19.8ZM56.1755 45.468C54.7835 45.468 53.4755 45.276 52.2515 44.892C51.0515 44.484 50.0075 43.872 49.1195 43.056C48.2315 42.24 47.5355 41.22 47.0315 39.996C46.5275 38.748 46.2755 37.296 46.2755 35.64V34.92C46.2755 33.336 46.5155 31.956 46.9955 30.78C47.4995 29.604 48.1715 28.62 49.0115 27.828C49.8755 27.036 50.8835 26.448 52.0355 26.064C53.2115 25.656 54.4715 25.452 55.8155 25.452C58.9595 25.452 61.3355 26.268 62.9435 27.9C64.5515 29.508 65.3555 31.848 65.3555 34.92V36.9H51.9635C51.9875 37.644 52.1195 38.28 52.3595 38.808C52.5995 39.312 52.9115 39.732 53.2955 40.068C53.6795 40.404 54.1115 40.656 54.5915 40.824C55.0955 40.968 55.6235 41.04 56.1755 41.04C57.2315 41.04 58.0595 40.884 58.6595 40.572C59.2835 40.236 59.6915 39.792 59.8835 39.24H64.9955C64.6115 41.328 63.6635 42.888 62.1515 43.92C60.6395 44.952 58.6475 45.468 56.1755 45.468ZM55.9955 29.844C55.4915 29.844 54.9995 29.904 54.5195 30.024C54.0635 30.144 53.6435 30.348 53.2595 30.636C52.8995 30.9 52.5995 31.248 52.3595 31.68C52.1435 32.112 52.0235 32.64 51.9995 33.264H59.9195C59.9195 32.592 59.8115 32.04 59.5955 31.608C59.3795 31.176 59.0915 30.828 58.7315 30.564C58.3955 30.3 57.9875 30.12 57.5075 30.024C57.0275 29.904 56.5235 29.844 55.9955 29.844ZM73.0898 45.468C72.0578 45.468 71.1338 45.312 70.3178 45C69.5258 44.688 68.8538 44.268 68.3018 43.74C67.7498 43.188 67.3298 42.552 67.0418 41.832C66.7538 41.088 66.6098 40.284 66.6098 39.42C66.6098 37.524 67.1858 36.072 68.3378 35.064C69.5138 34.056 71.2778 33.552 73.6298 33.552H79.0658V32.76C79.0658 31.608 78.7898 30.816 78.2378 30.384C77.6858 29.928 76.9298 29.7 75.9698 29.7C75.0578 29.7 74.3858 29.844 73.9538 30.132C73.5218 30.42 73.2818 30.876 73.2338 31.5H67.6898C67.7378 30.636 67.9538 29.844 68.3378 29.124C68.7218 28.38 69.2618 27.744 69.9578 27.216C70.6778 26.664 71.5538 26.232 72.5858 25.92C73.6178 25.608 74.8058 25.452 76.1498 25.452C77.3978 25.452 78.5378 25.596 79.5698 25.884C80.6258 26.148 81.5258 26.592 82.2698 27.216C83.0138 27.816 83.5898 28.608 83.9978 29.592C84.4058 30.552 84.6098 31.728 84.6098 33.12V40.14C84.6098 41.148 84.6338 42.036 84.6818 42.804C84.7298 43.548 84.8018 44.28 84.8978 45H79.6418C79.5938 44.592 79.5458 44.232 79.4978 43.92C79.4738 43.608 79.4618 43.224 79.4618 42.768C78.8858 43.536 78.0818 44.184 77.0498 44.712C76.0418 45.216 74.7218 45.468 73.0898 45.468ZM74.8898 41.58C76.0658 41.58 77.0498 41.244 77.8418 40.572C78.6578 39.9 79.0658 38.976 79.0658 37.8V37.008H74.7098C73.8938 37.008 73.2818 37.224 72.8738 37.656C72.4898 38.088 72.2978 38.592 72.2978 39.168C72.2978 39.864 72.4898 40.44 72.8738 40.896C73.2818 41.352 73.9538 41.58 74.8898 41.58ZM86.9527 25.92H92.0647V28.512C92.3047 28.128 92.6047 27.756 92.9647 27.396C93.3487 27.012 93.7927 26.676 94.2967 26.388C94.8007 26.1 95.3647 25.872 95.9887 25.704C96.6127 25.536 97.2847 25.452 98.0047 25.452C100.693 25.452 102.733 26.244 104.125 27.828C105.517 29.412 106.213 31.776 106.213 34.92V35.64C106.213 37.272 106.021 38.7 105.637 39.924C105.253 41.148 104.701 42.168 103.981 42.984C103.261 43.8 102.397 44.424 101.389 44.856C100.381 45.264 99.2527 45.468 98.0047 45.468C96.9247 45.468 95.8927 45.228 94.9087 44.748C93.9487 44.244 93.1447 43.524 92.4967 42.588V52.2H86.9527V25.92ZM96.6727 40.896C97.7767 40.896 98.6887 40.452 99.4087 39.564C100.153 38.676 100.525 37.368 100.525 35.64V34.92C100.525 33.264 100.165 32.04 99.4447 31.248C98.7487 30.432 97.8247 30.024 96.6727 30.024C95.4967 30.024 94.5007 30.396 93.6847 31.14C92.8927 31.86 92.4967 32.94 92.4967 34.38V36.18C92.4967 37.692 92.8927 38.856 93.6847 39.672C94.5007 40.488 95.4967 40.896 96.6727 40.896ZM117.021 45.468C115.677 45.468 114.417 45.276 113.241 44.892C112.065 44.484 111.033 43.872 110.145 43.056C109.257 42.24 108.561 41.22 108.057 39.996C107.553 38.748 107.301 37.296 107.301 35.64V34.92C107.301 33.36 107.553 31.992 108.057 30.816C108.561 29.64 109.257 28.656 110.145 27.864C111.033 27.072 112.065 26.472 113.241 26.064C114.417 25.656 115.677 25.452 117.021 25.452C118.365 25.452 119.625 25.656 120.801 26.064C121.977 26.472 123.009 27.072 123.897 27.864C124.785 28.656 125.481 29.64 125.985 30.816C126.489 31.992 126.741 33.36 126.741 34.92V35.64C126.741 37.272 126.489 38.712 125.985 39.96C125.481 41.184 124.785 42.204 123.897 43.02C123.009 43.836 121.977 44.448 120.801 44.856C119.625 45.264 118.365 45.468 117.021 45.468ZM117.021 40.86C118.317 40.86 119.313 40.392 120.009 39.456C120.705 38.52 121.053 37.248 121.053 35.64V34.92C121.053 33.48 120.705 32.316 120.009 31.428C119.313 30.516 118.317 30.06 117.021 30.06C115.725 30.06 114.729 30.516 114.033 31.428C113.337 32.316 112.989 33.48 112.989 34.92V35.64C112.989 37.296 113.337 38.58 114.033 39.492C114.729 40.404 115.725 40.86 117.021 40.86ZM135.367 45.216C134.215 45.216 133.219 45.12 132.379 44.928C131.539 44.736 130.843 44.388 130.291 43.884C129.763 43.356 129.367 42.648 129.103 41.76C128.839 40.848 128.707 39.684 128.707 38.268V19.8H134.251V37.44C134.251 38.04 134.287 38.544 134.359 38.952C134.431 39.36 134.551 39.684 134.719 39.924C134.911 40.164 135.175 40.344 135.511 40.464C135.847 40.56 136.267 40.608 136.771 40.608C137.059 40.608 137.299 40.608 137.491 40.608C137.683 40.584 137.875 40.56 138.067 40.536V45.108C137.347 45.18 136.447 45.216 135.367 45.216ZM146.346 45.216C145.194 45.216 144.198 45.12 143.358 44.928C142.518 44.736 141.822 44.388 141.27 43.884C140.742 43.356 140.346 42.648 140.082 41.76C139.818 40.848 139.686 39.684 139.686 38.268V19.8H145.23V37.44C145.23 38.04 145.266 38.544 145.338 38.952C145.41 39.36 145.53 39.684 145.698 39.924C145.89 40.164 146.154 40.344 146.49 40.464C146.826 40.56 147.246 40.608 147.75 40.608C148.038 40.608 148.278 40.608 148.47 40.608C148.662 40.584 148.854 40.56 149.046 40.536V45.108C148.326 45.18 147.426 45.216 146.346 45.216ZM159.308 45.468C157.964 45.468 156.704 45.276 155.528 44.892C154.352 44.484 153.32 43.872 152.432 43.056C151.544 42.24 150.848 41.22 150.344 39.996C149.84 38.748 149.588 37.296 149.588 35.64V34.92C149.588 33.36 149.84 31.992 150.344 30.816C150.848 29.64 151.544 28.656 152.432 27.864C153.32 27.072 154.352 26.472 155.528 26.064C156.704 25.656 157.964 25.452 159.308 25.452C160.652 25.452 161.912 25.656 163.088 26.064C164.264 26.472 165.296 27.072 166.184 27.864C167.072 28.656 167.768 29.64 168.272 30.816C168.776 31.992 169.028 33.36 169.028 34.92V35.64C169.028 37.272 168.776 38.712 168.272 39.96C167.768 41.184 167.072 42.204 166.184 43.02C165.296 43.836 164.264 44.448 163.088 44.856C161.912 45.264 160.652 45.468 159.308 45.468ZM159.308 40.86C160.604 40.86 161.6 40.392 162.296 39.456C162.992 38.52 163.34 37.248 163.34 35.64V34.92C163.34 33.48 162.992 32.316 162.296 31.428C161.6 30.516 160.604 30.06 159.308 30.06C158.012 30.06 157.016 30.516 156.32 31.428C155.624 32.316 155.276 33.48 155.276 34.92V35.64C155.276 37.296 155.624 38.58 156.32 39.492C157.016 40.404 158.012 40.86 159.308 40.86Z" fill="black"/>
<path opacity="0.7" d="M20.9375 68.13C20.8422 68.13 20.7468 68.1257 20.6515 68.117C20.5648 68.117 20.4868 68.1127 20.4175 68.104V67.012C20.4868 67.0207 20.5648 67.0293 20.6515 67.038C20.7468 67.038 20.8422 67.038 20.9375 67.038C21.1195 67.038 21.2755 67.025 21.4055 66.999C21.5355 66.9643 21.6482 66.908 21.7435 66.83C21.8475 66.7433 21.9385 66.6307 22.0165 66.492C22.1032 66.3533 22.1942 66.1713 22.2895 65.946L18.5325 58.9H19.8585L22.9005 64.685L25.4745 58.9H26.7225L23.4075 66.219C23.2602 66.5483 23.1085 66.8343 22.9525 67.077C22.7965 67.3197 22.6232 67.519 22.4325 67.675C22.2418 67.831 22.0252 67.9437 21.7825 68.013C21.5398 68.091 21.2582 68.13 20.9375 68.13ZM27.371 61.11H28.515V63.983H29.49C29.5246 63.489 29.633 63.0557 29.815 62.683C29.997 62.3017 30.2266 61.9853 30.504 61.734C30.79 61.4827 31.115 61.2963 31.479 61.175C31.843 61.045 32.2286 60.98 32.636 60.98C33.078 60.98 33.4896 61.0537 33.871 61.201C34.261 61.3397 34.599 61.552 34.885 61.838C35.171 62.1153 35.3963 62.4663 35.561 62.891C35.7343 63.3157 35.821 63.8053 35.821 64.36V64.62C35.821 65.2093 35.7343 65.725 35.561 66.167C35.3963 66.609 35.171 66.9773 34.885 67.272C34.599 67.558 34.261 67.7747 33.871 67.922C33.4896 68.0607 33.078 68.13 32.636 68.13C32.2286 68.13 31.8386 68.0693 31.466 67.948C31.102 67.818 30.777 67.623 30.491 67.363C30.2136 67.103 29.984 66.778 29.802 66.388C29.6286 65.9893 29.5246 65.5257 29.49 64.997H28.515V68H27.371V61.11ZM32.636 67.09C32.896 67.09 33.1473 67.0467 33.39 66.96C33.6326 66.8647 33.845 66.7217 34.027 66.531C34.2176 66.3317 34.3693 66.076 34.482 65.764C34.5946 65.452 34.651 65.0707 34.651 64.62V64.36C34.651 63.944 34.5946 63.5887 34.482 63.294C34.3693 62.9993 34.2176 62.7567 34.027 62.566C33.845 62.3753 33.6326 62.2367 33.39 62.15C33.1473 62.0633 32.896 62.02 32.636 62.02C32.376 62.02 32.1246 62.0633 31.882 62.15C31.6393 62.2367 31.4226 62.3753 31.232 62.566C31.05 62.7567 30.9026 62.9993 30.79 63.294C30.6773 63.5887 30.621 63.944 30.621 64.36V64.62C30.621 65.0707 30.6773 65.452 30.79 65.764C30.9026 66.076 31.05 66.3317 31.232 66.531C31.4226 66.7217 31.6393 66.8647 31.882 66.96C32.1246 67.0467 32.376 67.09 32.636 67.09ZM38.7671 62.124H36.4141V61.11H42.2641V62.124H39.9111V68H38.7671V62.124ZM43.4371 61.11H44.5811V63.983H48.1431V61.11H49.2871V68H48.1431V64.997H44.5811V68H43.4371V61.11ZM51.2417 61.11H52.3857V63.71H53.7767C54.6434 63.71 55.2804 63.9007 55.6877 64.282C56.1037 64.6633 56.3117 65.192 56.3117 65.868C56.3117 66.5267 56.1037 67.0467 55.6877 67.428C55.2804 67.8093 54.6434 68 53.7767 68H51.2417V61.11ZM53.7117 66.986C54.249 66.986 54.626 66.8907 54.8427 66.7C55.0594 66.5093 55.1677 66.2277 55.1677 65.855C55.1677 65.4823 55.0594 65.2007 54.8427 65.01C54.626 64.8193 54.249 64.724 53.7117 64.724H52.3857V66.986H53.7117ZM57.3777 61.11H58.5217V68H57.3777V61.11ZM60.4681 61.11H61.6121V66.31L65.1741 61.11H66.3181V68H65.1741V62.8L61.6121 68H60.4681V61.11ZM63.3931 60.265C62.7171 60.265 62.2231 60.122 61.9111 59.836C61.5991 59.5413 61.4431 59.121 61.4431 58.575H62.5611C62.5611 59.1643 62.8385 59.459 63.3931 59.459C63.9651 59.459 64.2511 59.1643 64.2511 58.575H65.3431C65.3431 59.121 65.1871 59.5413 64.8751 59.836C64.5631 60.122 64.0691 60.265 63.3931 60.265ZM71.3927 61.11H72.6147L75.0717 65.4L77.5287 61.11H78.6727V68H77.5287V62.995L75.4877 66.505H74.5777L72.5367 62.995V68H71.3927V61.11ZM82.5822 68.13C82.2008 68.13 81.8628 68.078 81.5682 67.974C81.2822 67.8613 81.0395 67.7097 80.8402 67.519C80.6408 67.3283 80.4892 67.103 80.3852 66.843C80.2812 66.583 80.2292 66.297 80.2292 65.985C80.2292 65.3003 80.4285 64.8063 80.8272 64.503C81.2345 64.1997 81.8152 64.048 82.5692 64.048H84.8052V63.58C84.8052 62.9907 84.6708 62.5833 84.4022 62.358C84.1422 62.1327 83.7478 62.02 83.2192 62.02C82.7252 62.02 82.3655 62.1153 82.1402 62.306C81.9148 62.488 81.7892 62.696 81.7632 62.93H80.6192C80.6365 62.6527 80.7102 62.397 80.8402 62.163C80.9788 61.9203 81.1608 61.7123 81.3862 61.539C81.6202 61.3657 81.8975 61.2313 82.2182 61.136C82.5388 61.032 82.8942 60.98 83.2842 60.98C84.0988 60.98 84.7445 61.175 85.2212 61.565C85.7065 61.9463 85.9492 62.5747 85.9492 63.45V66.245C85.9492 66.609 85.9492 66.9297 85.9492 67.207C85.9578 67.4757 85.9795 67.74 86.0142 68H85.0132C84.9872 67.8007 84.9698 67.6143 84.9612 67.441C84.9525 67.259 84.9482 67.0553 84.9482 66.83C84.7662 67.194 84.4715 67.5017 84.0642 67.753C83.6568 68.0043 83.1628 68.13 82.5822 68.13ZM82.8292 67.09C83.0978 67.09 83.3492 67.0553 83.5832 66.986C83.8258 66.908 84.0382 66.7997 84.2202 66.661C84.4022 66.5137 84.5452 66.336 84.6492 66.128C84.7532 65.92 84.8052 65.6773 84.8052 65.4V64.932H82.7642C82.3395 64.932 82.0058 65.0187 81.7632 65.192C81.5205 65.3567 81.3992 65.621 81.3992 65.985C81.3992 66.3057 81.5118 66.57 81.7372 66.778C81.9712 66.986 82.3352 67.09 82.8292 67.09ZM87.8398 61.11H88.9058V62.41C89.1398 61.9507 89.4648 61.5997 89.8808 61.357C90.3054 61.1057 90.7951 60.98 91.3498 60.98C92.2164 60.98 92.9098 61.266 93.4298 61.838C93.9498 62.4013 94.2098 63.242 94.2098 64.36V64.62C94.2098 65.2093 94.1404 65.725 94.0018 66.167C93.8631 66.6003 93.6681 66.9643 93.4168 67.259C93.1654 67.545 92.8621 67.7617 92.5068 67.909C92.1601 68.0563 91.7744 68.13 91.3498 68.13C90.7604 68.13 90.2664 68 89.8678 67.74C89.4778 67.48 89.1831 67.155 88.9838 66.765V70.6H87.8398V61.11ZM91.0898 67.116C91.3671 67.116 91.6271 67.064 91.8698 66.96C92.1124 66.8473 92.3204 66.687 92.4938 66.479C92.6758 66.271 92.8144 66.011 92.9098 65.699C93.0138 65.387 93.0658 65.0273 93.0658 64.62V64.36C93.0658 63.9873 93.0138 63.6537 92.9098 63.359C92.8144 63.0643 92.6758 62.8173 92.4938 62.618C92.3204 62.41 92.1124 62.254 91.8698 62.15C91.6271 62.046 91.3671 61.994 91.0898 61.994C90.7778 61.994 90.4918 62.046 90.2318 62.15C89.9718 62.2453 89.7508 62.384 89.5688 62.566C89.3868 62.7393 89.2438 62.9473 89.1398 63.19C89.0358 63.4327 88.9838 63.6927 88.9838 63.97V65.01C88.9838 65.322 89.0358 65.608 89.1398 65.868C89.2438 66.128 89.3868 66.349 89.5688 66.531C89.7508 66.713 89.9718 66.856 90.2318 66.96C90.4918 67.064 90.7778 67.116 91.0898 67.116ZM95.7078 61.11H96.8518V63.996H97.7618L100.336 61.11H101.688L98.6978 64.412L101.818 68H100.362L97.7618 64.984H96.8518V68H95.7078V61.11ZM105.661 68.13C105.219 68.13 104.799 68.0607 104.4 67.922C104.002 67.7833 103.651 67.571 103.347 67.285C103.044 66.9903 102.801 66.622 102.619 66.18C102.437 65.738 102.346 65.218 102.346 64.62V64.36C102.346 63.788 102.433 63.294 102.606 62.878C102.78 62.4533 103.009 62.1023 103.295 61.825C103.59 61.539 103.928 61.3267 104.309 61.188C104.699 61.0493 105.107 60.98 105.531 60.98C106.545 60.98 107.33 61.2573 107.884 61.812C108.439 62.3667 108.716 63.151 108.716 64.165V64.893H103.49C103.49 65.3003 103.555 65.6427 103.685 65.92C103.815 66.1973 103.984 66.4227 104.192 66.596C104.4 66.7693 104.63 66.895 104.881 66.973C105.141 67.051 105.401 67.09 105.661 67.09C106.181 67.09 106.58 67.0033 106.857 66.83C107.143 66.6567 107.347 66.4183 107.468 66.115H108.586C108.517 66.4443 108.391 66.7347 108.209 66.986C108.036 67.2373 107.819 67.4497 107.559 67.623C107.308 67.7877 107.018 67.9133 106.688 68C106.368 68.0867 106.025 68.13 105.661 68.13ZM105.596 62.02C105.328 62.02 105.068 62.059 104.816 62.137C104.565 62.2063 104.34 62.3233 104.14 62.488C103.95 62.644 103.794 62.8433 103.672 63.086C103.551 63.3287 103.49 63.619 103.49 63.957H107.637C107.629 63.6017 107.568 63.3027 107.455 63.06C107.351 62.8087 107.208 62.6093 107.026 62.462C106.844 62.306 106.628 62.1933 106.376 62.124C106.134 62.0547 105.874 62.02 105.596 62.02ZM111.658 62.124H109.305V61.11H115.155V62.124H112.802V68H111.658V62.124ZM116.329 61.11H122.049V68H120.905V62.124H117.473V68H116.329V61.11ZM123.668 68.13C123.538 68.13 123.408 68.117 123.278 68.091V66.947C123.322 66.9557 123.387 66.96 123.473 66.96C123.664 66.96 123.829 66.8993 123.967 66.778C124.115 66.6567 124.232 66.4443 124.318 66.141C124.405 65.8377 124.47 65.426 124.513 64.906C124.557 64.386 124.578 63.7273 124.578 62.93V61.11H129.518V68H128.374V62.124H125.722V63.19C125.722 64.152 125.679 64.9493 125.592 65.582C125.506 66.2147 125.376 66.7217 125.202 67.103C125.038 67.4757 124.825 67.74 124.565 67.896C124.305 68.052 124.006 68.13 123.668 68.13ZM134.328 68.13C133.886 68.13 133.466 68.0607 133.067 67.922C132.668 67.7833 132.317 67.571 132.014 67.285C131.711 66.9903 131.468 66.622 131.286 66.18C131.104 65.738 131.013 65.218 131.013 64.62V64.36C131.013 63.788 131.1 63.294 131.273 62.878C131.446 62.4533 131.676 62.1023 131.962 61.825C132.257 61.539 132.595 61.3267 132.976 61.188C133.366 61.0493 133.773 60.98 134.198 60.98C135.212 60.98 135.996 61.2573 136.551 61.812C137.106 62.3667 137.383 63.151 137.383 64.165V64.893H132.157C132.157 65.3003 132.222 65.6427 132.352 65.92C132.482 66.1973 132.651 66.4227 132.859 66.596C133.067 66.7693 133.297 66.895 133.548 66.973C133.808 67.051 134.068 67.09 134.328 67.09C134.848 67.09 135.247 67.0033 135.524 66.83C135.81 66.6567 136.014 66.4183 136.135 66.115H137.253C137.184 66.4443 137.058 66.7347 136.876 66.986C136.703 67.2373 136.486 67.4497 136.226 67.623C135.975 67.7877 135.684 67.9133 135.355 68C135.034 68.0867 134.692 68.13 134.328 68.13ZM134.263 62.02C133.994 62.02 133.734 62.059 133.483 62.137C133.232 62.2063 133.006 62.3233 132.807 62.488C132.616 62.644 132.46 62.8433 132.339 63.086C132.218 63.3287 132.157 63.619 132.157 63.957H136.304C136.295 63.6017 136.235 63.3027 136.122 63.06C136.018 62.8087 135.875 62.6093 135.693 62.462C135.511 62.306 135.294 62.1933 135.043 62.124C134.8 62.0547 134.54 62.02 134.263 62.02ZM138.879 61.11H140.023V66.31L143.585 61.11H144.729V68H143.585V62.8L140.023 68H138.879V61.11ZM141.804 60.265C141.128 60.265 140.634 60.122 140.322 59.836C140.01 59.5413 139.854 59.121 139.854 58.575H140.972C140.972 59.1643 141.249 59.459 141.804 59.459C142.376 59.459 142.662 59.1643 142.662 58.575H143.754C143.754 59.121 143.598 59.5413 143.286 59.836C142.974 60.122 142.48 60.265 141.804 60.265ZM149.349 68.13C148.907 68.13 148.495 68.0607 148.114 67.922C147.732 67.7747 147.403 67.558 147.126 67.272C146.848 66.9773 146.627 66.609 146.463 66.167C146.307 65.725 146.229 65.2093 146.229 64.62V64.36C146.229 63.8053 146.315 63.3157 146.489 62.891C146.662 62.4663 146.892 62.1153 147.178 61.838C147.464 61.552 147.793 61.3397 148.166 61.201C148.547 61.0537 148.941 60.98 149.349 60.98C149.756 60.98 150.12 61.0363 150.441 61.149C150.77 61.2617 151.052 61.4177 151.286 61.617C151.528 61.8163 151.723 62.0503 151.871 62.319C152.027 62.5877 152.139 62.878 152.209 63.19H151.039C150.969 63.0253 150.887 62.8737 150.792 62.735C150.705 62.5877 150.592 62.462 150.454 62.358C150.324 62.254 150.168 62.1717 149.986 62.111C149.804 62.0503 149.591 62.02 149.349 62.02C149.097 62.02 148.855 62.0677 148.621 62.163C148.387 62.2497 148.179 62.3883 147.997 62.579C147.815 62.761 147.667 62.9993 147.555 63.294C147.451 63.5887 147.399 63.944 147.399 64.36V64.62C147.399 65.062 147.451 65.4433 147.555 65.764C147.667 66.076 147.815 66.3317 147.997 66.531C148.179 66.7217 148.387 66.8647 148.621 66.96C148.855 67.0467 149.097 67.09 149.349 67.09C149.773 67.09 150.129 66.986 150.415 66.778C150.709 66.57 150.917 66.284 151.039 65.92H152.209C152.044 66.6047 151.706 67.1463 151.195 67.545C150.683 67.935 150.068 68.13 149.349 68.13Z" fill="black"/>
</svg>
