<svg width="60" height="60" viewBox="0 0 60 60" fill="none" xmlns="http://www.w3.org/2000/svg">
<g opacity="0.07">
<path d="M47.8693 13.125H13.3379L10.3874 7.83649C10.0562 7.24288 9.42974 6.875 8.75 6.875H5C3.96447 6.875 3.125 7.71447 3.125 8.75C3.125 9.78553 3.96447 10.625 5 10.625H7.649L10.5607 15.8441L17.2759 30.7022L17.2828 30.7174L17.8743 32.026L11.1322 39.2176C10.6474 39.7347 10.4956 40.481 10.74 41.1463C10.9843 41.8117 11.5829 42.2824 12.2871 42.3629L18.4325 43.0652C26.1192 43.9437 33.8809 43.9437 41.5676 43.0652L47.7129 42.3629C48.7418 42.2453 49.4805 41.3159 49.3629 40.2871C49.2453 39.2583 48.316 38.5196 47.2871 38.6371L41.1418 39.3395C33.7381 40.1856 26.262 40.1856 18.8583 39.3395L16.4195 39.0607L21.3679 33.7824C21.4158 33.7313 21.4602 33.6783 21.5013 33.6236L23.3833 33.8685C26.0207 34.2116 28.6865 34.2789 31.3378 34.0692C37.5215 33.5802 43.2525 30.6377 47.2537 25.8977L48.6989 24.1856C48.7474 24.1281 48.7924 24.0678 48.8337 24.0049L51.5271 19.9002C53.4363 16.9908 51.3492 13.125 47.8693 13.125Z" fill="black"/>
<path d="M16.25 46.25C14.1789 46.25 12.5 47.9289 12.5 50C12.5 52.0711 14.1789 53.75 16.25 53.75C18.3211 53.75 20 52.0711 20 50C20 47.9289 18.3211 46.25 16.25 46.25Z" fill="black"/>
<path d="M40 50C40 47.9289 41.6789 46.25 43.75 46.25C45.8211 46.25 47.5 47.9289 47.5 50C47.5 52.0711 45.8211 53.75 43.75 53.75C41.6789 53.75 40 52.0711 40 50Z" fill="black"/>
</g>
</svg>
