<svg width="60" height="60" viewBox="0 0 60 60" fill="none" xmlns="http://www.w3.org/2000/svg">
<g opacity="0.05">
<path d="M24.0789 13.4211C24.0789 12.5655 24.0789 12.1377 24.1312 11.7791C24.4501 9.59031 26.1693 7.87114 28.3581 7.55224C28.7166 7.5 29.1444 7.5 30 7.5C30.8556 7.5 31.2834 7.5 31.6419 7.55224C33.8307 7.87114 35.5499 9.59031 35.8688 11.7791C35.9211 12.1377 35.9211 12.5655 35.9211 13.4211V46.5789C35.9211 47.4345 35.9211 47.8623 35.8688 48.2209C35.5499 50.4097 33.8307 52.1289 31.6419 52.4478C31.2834 52.5 30.8556 52.5 30 52.5C29.1444 52.5 28.7166 52.5 28.3581 52.4478C26.1693 52.1289 24.4501 50.4097 24.1312 48.2209C24.0789 47.8623 24.0789 47.4345 24.0789 46.5789V13.4211Z" fill="black"/>
<path d="M40.6579 28.4211C40.6579 27.5655 40.6579 27.1377 40.7101 26.7791C41.029 24.5903 42.7482 22.8711 44.937 22.5522C45.2956 22.5 45.7234 22.5 46.5789 22.5C47.4345 22.5 47.8623 22.5 48.2209 22.5522C50.4097 22.8711 52.1289 24.5903 52.4478 26.7791C52.5 27.1377 52.5 27.5655 52.5 28.4211V46.5789C52.5 47.4345 52.5 47.8623 52.4478 48.2209C52.1289 50.4097 50.4097 52.1289 48.2209 52.4478C47.8623 52.5 47.4345 52.5 46.5789 52.5C45.7234 52.5 45.2956 52.5 44.937 52.4478C42.7482 52.1289 41.029 50.4097 40.7101 48.2209C40.6579 47.8623 40.6579 47.4345 40.6579 46.5789V28.4211Z" fill="black"/>
<path d="M7.5 40.9211C7.5 40.0655 7.5 39.6377 7.55224 39.2791C7.87114 37.0903 9.59031 35.3711 11.7791 35.0522C12.1377 35 12.5655 35 13.4211 35C14.2766 35 14.7044 35 15.063 35.0522C17.2518 35.3711 18.971 37.0903 19.2899 39.2791C19.3421 39.6377 19.3421 40.0655 19.3421 40.9211V46.5789C19.3421 47.4345 19.3421 47.8623 19.2899 48.2209C18.971 50.4097 17.2518 52.1289 15.063 52.4478C14.7044 52.5 14.2766 52.5 13.4211 52.5C12.5655 52.5 12.1377 52.5 11.7791 52.4478C9.59031 52.1289 7.87114 50.4097 7.55224 48.2209C7.5 47.8623 7.5 47.4345 7.5 46.5789V40.9211Z" fill="black"/>
</g>
</svg>
