<svg width="60" height="60" viewBox="0 0 60 60" fill="none" xmlns="http://www.w3.org/2000/svg">
<g opacity="0.05">
<path d="M21 13.125C14.0479 13.125 8.125 18.3233 8.125 25.0745C8.125 29.7319 10.3059 33.653 13.1962 36.9011C16.0767 40.138 19.7929 42.855 23.1524 45.1291L28.949 49.0527C29.5838 49.4824 30.4162 49.4824 31.051 49.0527L36.8476 45.1291C40.2071 42.855 43.9233 40.138 46.8038 36.9011C49.6941 33.653 51.875 29.7319 51.875 25.0745C51.875 18.3233 45.9521 13.125 39 13.125C35.4163 13.125 32.2629 14.8053 30 16.9796C27.7371 14.8053 24.5837 13.125 21 13.125Z" fill="black"/>
</g>
</svg>
