<svg width="60" height="60" viewBox="0 0 60 60" fill="none" xmlns="http://www.w3.org/2000/svg">
<g opacity="0.05">
<path d="M32.9017 11.0181C31.1165 9.94319 28.8835 9.94319 27.0983 11.0181L25.8076 11.7953C22.6757 13.6812 19.1598 14.8384 15.5201 15.1813L14.7069 15.2579C13.1017 15.4092 11.875 16.7568 11.875 18.3691V22.4789C11.875 29.4254 14.6952 36.0743 19.6896 40.9025L27.828 48.77C29.0393 49.941 30.9607 49.941 32.172 48.77L40.3104 40.9025C45.3048 36.0744 48.125 29.4254 48.125 22.4789V18.3691C48.125 16.7568 46.8984 15.4092 45.2931 15.2579L44.4799 15.1813C40.8402 14.8384 37.3243 13.6812 34.1924 11.7953L32.9017 11.0181Z" fill="black"/>
</g>
</svg>
