<svg width="60" height="60" viewBox="0 0 60 60" fill="none" xmlns="http://www.w3.org/2000/svg">
<g opacity="0.05">
<path fill-rule="evenodd" clip-rule="evenodd" d="M47.9575 11.6658L29.9973 11.25L12.0371 11.6658C8.40767 11.7395 5.33079 14.3558 4.67459 17.9262C3.20743 25.9089 3.20743 34.0922 4.67459 42.0749C5.33079 45.6452 8.40766 48.2615 12.037 48.3353L29.9973 48.751L47.9575 48.3353C51.5869 48.2615 54.6638 45.6452 55.32 42.0749C56.7871 34.0922 56.7871 25.9089 55.32 17.9262C54.6638 14.3558 51.5869 11.7395 47.9575 11.6658ZM52.4973 27.5005C52.4973 28.8812 51.378 30.0005 49.9973 30.0005H9.99725C8.61654 30.0005 7.49725 28.8812 7.49725 27.5005C7.49725 26.1197 8.61654 25.0005 9.99725 25.0005H49.9973C51.378 25.0005 52.4973 26.1197 52.4973 27.5005Z" fill="black"/>
</g>
</svg>
