<svg width="60" height="60" viewBox="0 0 60 60" fill="none" xmlns="http://www.w3.org/2000/svg">
<g opacity="0.05">
<path fill-rule="evenodd" clip-rule="evenodd" d="M20.0049 11.382C26.7457 10.874 33.5163 10.9073 40.2518 11.4817L44.3112 11.8279C47.3774 12.0894 49.8659 14.4164 50.3322 17.4583L50.5883 19.1291C51.4574 24.7989 51.3761 30.5738 50.3479 36.2169C49.8406 39.0013 47.4151 41.0247 44.5849 41.0247H22.1439C21.6276 41.0247 21.1194 41.1527 20.6646 41.3971L10.8876 46.6513C10.3065 46.9636 9.60408 46.9476 9.03787 46.6091C8.47166 46.2706 8.125 45.6594 8.125 44.9997V23.7065C8.125 17.26 13.0935 11.9029 19.5218 11.4184L20.0049 11.382ZM20 23.7497C18.2741 23.7497 16.875 25.1489 16.875 26.8747C16.875 28.6006 18.2741 29.9997 20 29.9997C21.7259 29.9997 23.125 28.6006 23.125 26.8747C23.125 25.1489 21.7259 23.7497 20 23.7497ZM30 23.7497C28.2741 23.7497 26.875 25.1489 26.875 26.8747C26.875 28.6006 28.2741 29.9997 30 29.9997C31.7259 29.9997 33.125 28.6006 33.125 26.8747C33.125 25.1489 31.7259 23.7497 30 23.7497ZM36.875 26.8747C36.875 25.1489 38.2741 23.7497 40 23.7497C41.7259 23.7497 43.125 25.1489 43.125 26.8747C43.125 28.6006 41.7259 29.9997 40 29.9997C38.2741 29.9997 36.875 28.6006 36.875 26.8747Z" fill="black"/>
</g>
</svg>
