<svg width="60" height="60" viewBox="0 0 60 60" fill="none" xmlns="http://www.w3.org/2000/svg">
<g opacity="0.05">
<path d="M36.5165 8.75C36.848 8.75 37.166 8.8817 37.4004 9.11612L44.4714 16.1872C44.9596 16.6753 44.9596 17.4668 44.4714 17.955L21.4905 40.9359C21.3334 41.093 21.1374 41.2053 20.9225 41.2615L11.3514 43.7615C10.9221 43.8736 10.4654 43.7497 10.1516 43.4359C9.83785 43.1221 9.71395 42.6655 9.8261 42.2361L12.3261 32.6651C12.3822 32.4502 12.4946 32.2541 12.6516 32.0971L35.6326 9.11612C35.867 8.8817 36.185 8.75 36.5165 8.75Z" fill="black"/>
<path d="M10 48.125C8.96447 48.125 8.125 48.9645 8.125 50C8.125 51.0355 8.96447 51.875 10 51.875H47.5C48.5355 51.875 49.375 51.0355 49.375 50C49.375 48.9645 48.5355 48.125 47.5 48.125H10Z" fill="black"/>
</g>
</svg>
