<svg width="24" height="24" viewBox="0 0 24 24" fill="none" xmlns="http://www.w3.org/2000/svg">
<path d="M19.8366 16.9064C20.2798 12.6469 20.2798 8.35292 19.8366 4.09343C19.698 2.76112 18.1619 2.08623 17.0868 2.88535L12.9832 5.93576C11.6896 6.89732 10.1207 7.41658 8.50889 7.41658H4.67969C4.1274 7.41658 3.67969 7.86429 3.67969 8.41658V12.5832C3.67969 13.1355 4.1274 13.5832 4.67969 13.5832L8.50888 13.5832C10.1207 13.5832 11.6896 14.1025 12.9832 15.0641L17.0868 18.1145C18.1619 18.9136 19.698 18.2387 19.8366 16.9064Z" fill="black"/>
<path d="M9.09311 15.8019C9.15055 15.5774 9.10104 15.339 8.95896 15.156C8.81689 14.973 8.59822 14.8659 8.36653 14.8659L6.36653 14.8659C6.08245 14.8659 5.82275 15.0264 5.69571 15.2805L4.69571 17.2805C4.52493 17.6221 4.63805 18.0374 4.95843 18.2452L7.0924 19.6292C7.29501 19.7606 7.54849 19.7864 7.77342 19.6985C7.99835 19.6106 8.16721 19.4198 8.22708 19.1859L9.09311 15.8019Z" fill="black"/>
</svg>
