<svg width="24" height="24" viewBox="0 0 24 24" fill="none" xmlns="http://www.w3.org/2000/svg">
<path d="M9.63158 5.36842C9.63158 5.02619 9.63158 4.85507 9.65247 4.71165C9.78004 3.83613 10.4677 3.14846 11.3432 3.0209C11.4866 3 11.6578 3 12 3C12.3422 3 12.5134 3 12.6568 3.0209C13.5323 3.14846 14.22 3.83613 14.3475 4.71165C14.3684 4.85507 14.3684 5.02619 14.3684 5.36842V18.6316C14.3684 18.9738 14.3684 19.1449 14.3475 19.2883C14.22 20.1639 13.5323 20.8515 12.6568 20.9791C12.5134 21 12.3422 21 12 21C11.6578 21 11.4866 21 11.3432 20.9791C10.4677 20.8515 9.78004 20.1639 9.65247 19.2883C9.63158 19.1449 9.63158 18.9738 9.63158 18.6316V5.36842Z" fill="black"/>
<path d="M16.2632 11.3684C16.2632 11.0262 16.2632 10.8551 16.2841 10.7117C16.4116 9.83613 17.0993 9.14846 17.9748 9.0209C18.1182 9 18.2893 9 18.6316 9C18.9738 9 19.1449 9 19.2883 9.0209C20.1639 9.14846 20.8515 9.83613 20.9791 10.7117C21 10.8551 21 11.0262 21 11.3684V18.6316C21 18.9738 21 19.1449 20.9791 19.2883C20.8515 20.1639 20.1639 20.8515 19.2883 20.9791C19.1449 21 18.9738 21 18.6316 21C18.2893 21 18.1182 21 17.9748 20.9791C17.0993 20.8515 16.4116 20.1639 16.2841 19.2883C16.2632 19.1449 16.2632 18.9738 16.2632 18.6316V11.3684Z" fill="black"/>
<path d="M3 16.3684C3 16.0262 3 15.8551 3.0209 15.7117C3.14846 14.8361 3.83613 14.1485 4.71165 14.0209C4.85507 14 5.02619 14 5.36842 14C5.71066 14 5.88177 14 6.02519 14.0209C6.90072 14.1485 7.58839 14.8361 7.71595 15.7117C7.73684 15.8551 7.73684 16.0262 7.73684 16.3684V18.6316C7.73684 18.9738 7.73684 19.1449 7.71595 19.2883C7.58839 20.1639 6.90072 20.8515 6.02519 20.9791C5.88177 21 5.71066 21 5.36842 21C5.02619 21 4.85507 21 4.71165 20.9791C3.83613 20.8515 3.14846 20.1639 3.0209 19.2883C3 19.1449 3 18.9738 3 18.6316V16.3684Z" fill="black"/>
</svg>
