<svg width="24" height="24" viewBox="0 0 24 24" fill="none" xmlns="http://www.w3.org/2000/svg">
<path fill-rule="evenodd" clip-rule="evenodd" d="M8.00194 4.5532C10.6983 4.34998 13.4065 4.36331 16.1007 4.59307L17.7245 4.73155C18.951 4.83614 19.9464 5.76696 20.1329 6.98371L20.2353 7.65203C20.5829 9.91994 20.5505 12.2299 20.1392 14.4871C19.9362 15.6009 18.9661 16.4103 17.834 16.4103H8.85756C8.65104 16.4103 8.44774 16.4615 8.26583 16.5592L4.35504 18.6609C4.12261 18.7858 3.84163 18.7794 3.61515 18.644C3.38867 18.5086 3.25 18.2642 3.25 18.0003V9.48299C3.25 6.90439 5.23741 4.76156 7.80871 4.56776L8.00194 4.5532ZM8 9.50029C7.30964 9.50029 6.75 10.0599 6.75 10.7503C6.75 11.4406 7.30964 12.0003 8 12.0003C8.69036 12.0003 9.25 11.4406 9.25 10.7503C9.25 10.0599 8.69036 9.50029 8 9.50029ZM12 9.50029C11.3096 9.50029 10.75 10.0599 10.75 10.7503C10.75 11.4406 11.3096 12.0003 12 12.0003C12.6904 12.0003 13.25 11.4406 13.25 10.7503C13.25 10.0599 12.6904 9.50029 12 9.50029ZM14.75 10.7503C14.75 10.0599 15.3096 9.50029 16 9.50029C16.6904 9.50029 17.25 10.0599 17.25 10.7503C17.25 11.4406 16.6904 12.0003 16 12.0003C15.3096 12.0003 14.75 11.4406 14.75 10.7503Z" fill="black"/>
</svg>
