<svg width="24" height="24" viewBox="0 0 24 24" fill="none" xmlns="http://www.w3.org/2000/svg">
<path d="M12.0625 2.06533C11.7729 1.93834 11.4876 2.02718 11.3041 2.21406C11.1259 2.39561 11.0367 2.67268 11.0992 2.95203C11.1979 3.39298 11.25 3.85173 11.25 4.32294C11.25 5.39879 10.9789 6.1523 10.5123 6.77694C10.038 7.41192 9.35149 7.92888 8.48466 8.51216C8.47103 8.52133 8.45834 8.53182 8.44678 8.54348L8.34179 8.64927C6.48195 9.85083 5.25 11.9429 5.25 14.3229C5.25 18.0509 8.27208 21.0729 12 21.0729C15.7279 21.0729 18.75 18.0509 18.75 14.3229C18.75 13.2284 18.4893 12.194 18.0264 11.2792C17.9887 11.2048 17.9164 11.154 17.8336 11.1439C17.7508 11.1338 17.6684 11.1656 17.614 11.2288C17.5435 11.3105 17.4744 11.3912 17.4064 11.4707C16.5281 12.4969 15.8193 13.3251 14.3662 13.695C14.3044 13.7107 14.266 13.699 14.2387 13.682C14.2067 13.662 14.1716 13.622 14.1476 13.5581C14.0975 13.425 14.119 13.2552 14.2216 13.1439C14.9988 12.3013 15.5509 11.1575 15.7482 9.53042C16.1177 6.48252 14.7325 3.23592 12.0625 2.06533Z" fill="#FF6138"/>
</svg>
