<svg width="24" height="24" viewBox="0 0 24 24" fill="none" xmlns="http://www.w3.org/2000/svg">
<path d="M5.00102 9.86078C6.91742 14.0347 10.3274 17.3532 14.567 19.1522L15.2466 19.455C16.8014 20.1477 18.6291 19.6214 19.5775 18.2079L20.4655 16.8842C20.7543 16.4538 20.6664 15.8742 20.263 15.5488L17.2512 13.119C16.8088 12.7621 16.1583 12.8452 15.8199 13.3019L14.8881 14.5591C12.4973 13.3798 10.5563 11.4387 9.37692 9.04792L10.6342 8.1162C11.0908 7.77778 11.174 7.12727 10.8171 6.68489L8.3872 3.67294C8.06186 3.26966 7.48235 3.18169 7.05199 3.47026L5.71915 4.36396C4.2968 5.31767 3.77342 7.16052 4.48215 8.71947L5.00024 9.85908L5.00102 9.86078Z" fill="black"/>
</svg>
