<svg width="24" height="24" viewBox="0 0 24 24" fill="none" xmlns="http://www.w3.org/2000/svg">
<path fill-rule="evenodd" clip-rule="evenodd" d="M19.185 4.66631L12.0009 4.5L4.81677 4.66631C3.36502 4.69581 2.13427 5.74233 1.87179 7.17046C1.28492 10.3635 1.28492 13.6369 1.87179 16.83C2.13427 18.2581 3.36502 19.3046 4.81677 19.3341L12.0009 19.5004L19.185 19.3341C20.6367 19.3046 21.8675 18.2581 22.1299 16.83C22.7168 13.6369 22.7168 10.3636 22.1299 7.17046C21.8675 5.74233 20.6367 4.69581 19.185 4.66631ZM21.0009 11.0002C21.0009 11.5525 20.5531 12.0002 20.0009 12.0002H4.00085C3.44857 12.0002 3.00085 11.5525 3.00085 11.0002C3.00085 10.4479 3.44857 10.0002 4.00085 10.0002H20.0009C20.5531 10.0002 21.0009 10.4479 21.0009 11.0002Z" fill="black"/>
</svg>
