<svg width="264" height="264" viewBox="0 0 264 264" fill="none" xmlns="http://www.w3.org/2000/svg">
<path opacity="0.2" fill-rule="evenodd" clip-rule="evenodd" d="M141.717 29.4644C116.306 27.0738 90.7446 26.7249 65.2778 28.421L63.4527 28.5425C39.1667 30.1599 20.2314 50.222 20.019 74.5609L19.3174 154.954C19.2957 157.445 20.5844 159.764 22.711 161.06C24.8375 162.357 27.4891 162.441 29.6932 161.281L59.2079 145.75C59.1128 141.459 59.1479 137.162 59.3141 132.865L59.5819 125.939C60.0696 113.329 69.128 102.693 81.4994 100.204L96.2338 97.2403C92.8823 95.1336 90.6686 91.3896 90.7057 87.1405C90.7626 80.6244 96.0911 75.3881 102.607 75.4449C109.123 75.5018 114.36 80.8303 114.303 87.3464C114.28 89.9441 113.42 92.3385 111.98 94.2751C117.695 93.2891 123.425 92.3992 129.168 91.6057C128.699 90.3163 128.448 88.9227 128.461 87.47C128.518 80.9538 133.846 75.7176 140.362 75.7744C146.879 75.8313 152.115 81.1598 152.058 87.6759C152.054 88.1126 152.027 88.5435 151.977 88.9674C161.403 88.0881 170.855 87.4668 180.323 87.1048L182.308 87.0289C182.369 87.0265 182.43 87.0243 182.492 87.0222C182.515 77.5541 181.848 68.0808 180.491 58.6779L179.579 52.3613C177.919 40.8612 168.6 31.9935 157.032 30.9052L141.717 29.4644ZM52.9505 86.811C53.0073 80.2949 58.3358 75.0586 64.8519 75.1155C71.3681 75.1723 76.6044 80.5008 76.5475 87.0169C76.4906 93.5331 71.1622 98.7694 64.646 98.7125C58.1299 98.6556 52.8936 93.3272 52.9505 86.811Z" fill="white"/>
<path opacity="0.4" fill-rule="evenodd" clip-rule="evenodd" d="M180.323 87.1045C152.623 88.1636 125.053 91.4424 97.8775 96.9093L81.4994 100.204C69.128 102.693 60.0695 113.329 59.5819 125.939L59.314 132.865C58.4051 156.368 61.4167 179.859 68.2254 202.373C71.5849 213.482 82.4062 220.6 93.9373 219.287L185.368 208.869C187.471 208.63 189.601 208.915 191.568 209.7L233.841 226.568C236.353 227.571 239.208 227.18 241.357 225.538C243.507 223.896 244.636 221.245 244.33 218.557L234.445 131.803C231.453 105.538 208.723 86.0185 182.308 87.0286L180.323 87.1045ZM186.083 137.491C193.115 136.69 199.465 141.741 200.266 148.773C201.067 155.805 196.016 162.154 188.985 162.956C181.953 163.757 175.603 158.706 174.802 151.674C174.001 144.642 179.052 138.293 186.083 137.491ZM145.341 142.134C152.373 141.332 158.722 146.383 159.524 153.415C160.325 160.447 155.274 166.796 148.242 167.598C141.21 168.399 134.861 163.348 134.059 156.316C133.258 149.284 138.309 142.935 145.341 142.134ZM118.781 158.057C117.98 151.025 111.63 145.974 104.598 146.776C97.5666 147.577 92.5157 153.927 93.3169 160.958C94.118 167.99 100.468 173.041 107.5 172.24C114.531 171.438 119.582 165.089 118.781 158.057Z" fill="white"/>
</svg>
