<svg width="248" height="248" viewBox="0 0 248 248" fill="none" xmlns="http://www.w3.org/2000/svg">
<g clip-path="url(#clip0)">
<path fill-rule="evenodd" clip-rule="evenodd" d="M71.5664 36.8834C75.8498 15.8294 96.3375 2.2236 117.327 6.49393C129.082 8.88547 138.501 16.3765 143.761 26.2032C152.443 19.2131 164.041 15.998 175.796 18.3895C196.785 22.6598 210.328 43.1893 206.044 64.2433C204.244 73.0906 199.583 80.6226 193.225 86.0657L204.195 88.2975C220.34 91.5824 230.758 107.374 227.463 123.57L224.48 138.232C223.491 143.09 218.763 146.23 213.92 145.245L135.572 129.305C133.634 128.91 132.384 127.015 132.78 125.072L141.039 84.4765C138.163 81.6785 135.738 78.4515 133.849 74.9235C130.732 77.4331 127.239 79.4561 123.498 80.9078L115.239 121.503C114.844 123.447 112.952 124.703 111.015 124.309L32.6671 108.368C27.8234 107.383 24.6981 102.645 25.6866 97.7868L28.6696 83.1246C31.9646 66.9293 47.7244 56.4632 63.8701 59.7481L74.8397 61.9799C71.1142 54.4854 69.7664 45.7307 71.5664 36.8834ZM130.035 48.779C132.341 37.4422 125.049 26.3879 113.747 24.0885C102.445 21.7891 91.4134 29.1153 89.107 40.4521C86.8005 51.7889 94.0927 62.8432 105.395 65.1426C116.697 67.442 127.729 60.1158 130.035 48.779ZM147.576 52.3477C145.269 63.6844 152.561 74.7387 163.863 77.0382C175.165 79.3376 186.197 72.0113 188.504 60.6746C190.81 49.3378 183.518 38.2835 172.216 35.9841C160.914 33.6847 149.882 41.0109 147.576 52.3477Z" fill="url(#paint0_linear)"/>
<path d="M110.585 144.376C110.981 142.433 109.731 140.538 107.793 140.144L45.805 127.532C41.0614 126.567 36.3104 129.171 34.5551 133.698C28.8661 148.369 25.7061 163.901 25.2103 179.629L24.7095 195.517C24.3722 206.215 31.1318 215.838 41.2872 219.117L53.4583 223.048C65.1243 226.815 76.933 230.092 88.8538 232.874C90.8068 233.329 92.7441 232.07 93.1452 230.098L110.585 144.376Z" fill="url(#paint1_linear)"/>
<path d="M113.552 237.899C111.576 237.555 110.285 235.638 110.686 233.667L128.126 147.945C128.521 146.002 130.413 144.746 132.35 145.14L194.338 157.752C199.082 158.717 202.438 162.97 202.285 167.823C201.789 183.55 198.629 199.082 192.94 213.754L187.193 228.574C183.324 238.554 173.341 244.771 162.712 243.821L149.973 242.684C137.762 241.593 125.611 239.996 113.552 237.899Z" fill="url(#paint2_linear)"/>
</g>
<defs>
<linearGradient id="paint0_linear" x1="-60.4877" y1="-53.683" x2="232.122" y2="322.854" gradientUnits="userSpaceOnUse">
<stop stop-color="white"/>
<stop offset="1" stop-color="white" stop-opacity="0"/>
</linearGradient>
<linearGradient id="paint1_linear" x1="-60.4877" y1="-53.683" x2="232.122" y2="322.854" gradientUnits="userSpaceOnUse">
<stop stop-color="white"/>
<stop offset="1" stop-color="white" stop-opacity="0"/>
</linearGradient>
<linearGradient id="paint2_linear" x1="-60.4877" y1="-53.683" x2="232.122" y2="322.854" gradientUnits="userSpaceOnUse">
<stop stop-color="white"/>
<stop offset="1" stop-color="white" stop-opacity="0"/>
</linearGradient>
<clipPath id="clip0">
<rect width="248" height="248" fill="white"/>
</clipPath>
</defs>
</svg>
