<svg width="248" height="248" viewBox="0 0 248 248" fill="none" xmlns="http://www.w3.org/2000/svg">
<path fill-rule="evenodd" clip-rule="evenodd" d="M72.9632 158.024C113.26 158.024 145.927 125.357 145.927 85.0608C145.927 74.4547 143.664 64.3772 139.594 55.2847H164.165C175.116 55.2847 185.175 61.3203 190.329 70.9828L203.553 95.7787C207.003 102.248 212.728 107.21 219.622 109.706L228.442 112.899C240.181 117.149 248 128.296 248 140.78V172.546C248 186.125 238.872 197.572 226.417 201.087C226.417 219.696 211.349 235.893 192.739 235.893C174.129 235.893 159.043 220.807 159.043 202.198H122.652C122.652 220.807 107.566 235.893 88.9564 235.893C70.3468 235.893 55.2618 220.538 55.2618 201.928C40.5964 199.968 28.3042 187.56 28.3042 172.546V142.765C40.6461 152.33 56.1397 158.024 72.9632 158.024Z" fill="url(#paint0_linear)"/>
<ellipse opacity="0.5" cx="72.9634" cy="85.0606" rx="72.9634" ry="72.9634" fill="white"/>
<g opacity="0.8">
<path d="M52.5801 120.219C48.7903 120.219 45.2417 119.632 41.9343 118.457C38.6958 117.282 35.8707 115.278 33.459 112.444C31.0474 109.541 29.1525 105.705 27.7744 100.936C26.3963 96.0976 25.7073 90.0498 25.7073 82.7926V80.7191C25.7073 74.0147 26.3963 68.4162 27.7744 63.9236C29.1525 59.3619 31.0474 55.7333 33.459 53.0377C35.8707 50.273 38.6958 48.3032 41.9343 47.1282C45.2417 45.9532 48.7903 45.3657 52.5801 45.3657C56.3698 45.3657 59.884 45.9532 63.1225 47.1282C66.4299 48.3032 69.2895 50.273 71.7011 53.0377C74.1128 55.7333 76.0077 59.3619 77.3857 63.9236C78.7638 68.4162 79.4529 74.0147 79.4529 80.7191V82.7926C79.4529 90.0498 78.7638 96.0976 77.3857 100.936C76.0077 105.705 74.1128 109.541 71.7011 112.444C69.2895 115.278 66.4299 117.282 63.1225 118.457C59.884 119.632 56.3698 120.219 52.5801 120.219ZM52.5801 109.437C54.5094 109.437 56.3354 109.057 58.058 108.297C59.7806 107.536 61.2965 106.189 62.6057 104.253C63.9838 102.249 65.0518 99.5189 65.8098 96.063C66.6366 92.6072 67.0501 88.1837 67.0501 82.7926V80.7191C67.0501 75.8809 66.6366 71.8721 65.8098 68.6927C65.0518 65.5133 63.9838 62.9906 62.6057 61.1244C61.2965 59.2582 59.7806 57.9796 58.058 57.2884C56.3354 56.5281 54.5094 56.148 52.5801 56.148C50.6507 56.148 48.8248 56.5281 47.1022 57.2884C45.3795 57.9796 43.8292 59.2582 42.4511 61.1244C41.1419 62.9906 40.0739 65.5133 39.247 68.6927C38.4891 71.8721 38.1101 75.8809 38.1101 80.7191V82.7926C38.1101 88.1837 38.4891 92.6072 39.247 96.063C40.0739 99.5189 41.1419 102.249 42.4511 104.253C43.8292 106.189 45.3795 107.536 47.1022 108.297C48.8248 109.057 50.6507 109.437 52.5801 109.437Z" fill="white"/>
<path d="M91.807 114.448H86.3402V107.259H91.807V104.334H86.3402V95.9261H91.807V76.4289H107.903C113.208 76.4289 117.217 77.7084 119.93 80.2674C122.643 82.8264 124 86.2993 124 90.6862C124 92.7172 123.656 94.5856 122.967 96.2916C122.279 97.957 121.267 99.399 119.93 100.618C118.594 101.796 116.913 102.709 114.889 103.359C112.905 104.009 110.576 104.334 107.903 104.334H102.74V107.259H115.496V114.448H102.74V119.079H91.807V114.448ZM106.689 95.9261C108.875 95.9261 110.475 95.4793 111.487 94.5856C112.54 93.692 113.066 92.3922 113.066 90.6862C113.066 88.9802 112.54 87.6804 111.487 86.7868C110.475 85.8932 108.875 85.4463 106.689 85.4463H102.74V95.9261H106.689Z" fill="white"/>
</g>
<defs>
<linearGradient id="paint0_linear" x1="248" y1="235.902" x2="46.4999" y2="71.4511" gradientUnits="userSpaceOnUse">
<stop stop-color="white"/>
<stop offset="1" stop-color="white" stop-opacity="0"/>
</linearGradient>
</defs>
</svg>
