<svg width="264" height="264" viewBox="0 0 264 264" fill="none" xmlns="http://www.w3.org/2000/svg">
<g clip-path="url(#clip0)">
<path opacity="0.3" fill-rule="evenodd" clip-rule="evenodd" d="M112.367 5.33643C124.316 -1.85888 139.264 -1.85889 151.214 5.33642L159.854 10.5391C180.818 23.1628 204.354 30.9092 228.717 33.2046L234.161 33.7174C244.906 34.7298 253.117 43.7508 253.117 54.5436V82.0537C253.117 128.553 234.239 173.061 200.807 205.38L146.329 258.044C138.221 265.882 125.359 265.882 117.251 258.044L62.7735 205.38C29.3416 173.061 10.4634 128.553 10.4634 82.0537V54.5436C10.4634 43.7508 18.6745 34.7298 29.4197 33.7174L34.8632 33.2046C59.227 30.9092 82.7624 23.1628 103.727 10.5391L112.367 5.33643ZM197.919 87.6505C202.32 83.25 202.32 76.1153 197.919 71.7147C193.519 67.3142 186.384 67.3142 181.983 71.7147L117.11 136.588L90.0654 109.544C85.6649 105.143 78.5302 105.143 74.1296 109.544C69.7291 113.945 69.7291 121.079 74.1296 125.48L109.142 160.492C113.542 164.893 120.677 164.893 125.078 160.492L197.919 87.6505Z" fill="url(#paint0_linear)"/>
</g>
<defs>
<linearGradient id="paint0_linear" x1="9.86574" y1="-0.28068" x2="253.715" y2="279.429" gradientUnits="userSpaceOnUse">
<stop stop-color="white"/>
<stop offset="1" stop-color="white" stop-opacity="0"/>
<stop offset="1" stop-color="white" stop-opacity="0"/>
</linearGradient>
<clipPath id="clip0">
<rect width="264" height="264" fill="white"/>
</clipPath>
</defs>
</svg>
