<svg width="264" height="264" viewBox="0 0 264 264" fill="none" xmlns="http://www.w3.org/2000/svg">
<g clip-path="url(#clip0)">
<path opacity="0.2" fill-rule="evenodd" clip-rule="evenodd" d="M2.01054 85.9607C-5.79169 61.2152 9.91005 35.317 35.392 27.2826C48.5273 23.141 62.0276 25.6557 72.8346 31.0099C78.6161 20.4254 88.2325 10.622 101.368 6.48047C126.85 -1.55394 154.567 10.6545 162.369 35.4C167.751 52.4708 164.289 69.3633 157.449 84.609C155.965 87.9159 154.308 91.1783 152.523 94.3849C143.653 85.5463 132.072 78.577 118.414 76.4139C84.5454 71.0496 51.6798 91.804 46.4705 124.694C46.2118 126.327 46.0111 127.951 45.8658 129.564C41.8825 127.701 37.9907 125.672 34.2659 123.448C19.9181 114.883 7.39296 103.032 2.01054 85.9607Z" fill="white"/>
<path opacity="0.5" d="M206.106 90.3024C239.975 95.6667 264.818 125.561 259.609 158.452C256.015 181.141 242.365 198.561 225.778 212.155C209.247 225.702 189.047 236.071 170.925 244.557L139.658 259.2C136.234 260.803 132.179 260.161 129.418 257.578L104.206 233.99C89.5935 220.319 73.5856 204.215 62.0506 186.223C50.4757 168.169 42.8766 147.383 46.4703 124.694C51.6796 91.8035 84.5453 71.0491 118.414 76.4134C135.873 79.1786 149.939 89.798 159.286 102.136C171.988 93.2902 188.647 87.5372 206.106 90.3024Z" fill="white"/>
</g>
<defs>
<clipPath id="clip0">
<rect width="264" height="264" fill="white"/>
</clipPath>
</defs>
</svg>
